<?xml version="1.0" standalone="no"?>
<!DOCTYPE svg PUBLIC "-//W3C//DTD SVG 20010904//EN"
 "http://www.w3.org/TR/2001/REC-SVG-20010904/DTD/svg10.dtd">
<svg version="1.0" xmlns="http://www.w3.org/2000/svg"
 width="700.000000pt" height="700.000000pt" viewBox="0 0 700.000000 700.000000"
 preserveAspectRatio="xMidYMid meet">
<metadata>
Created by potrace 1.11, written by Peter Selinger 2001-2013
</metadata>
<g transform="translate(0.000000,700.000000) scale(0.100000,-0.100000)"
fill="#000000" stroke="none">
<path d="M266 5803 c18 -70 32 -130 32 -133 -1 -3 2 -12 5 -20 19 -46 37 -131
31 -142 -4 -7 -3 -10 1 -5 10 9 58 -171 49 -184 -3 -5 0 -9 7 -9 6 0 9 -8 6
-20 -3 -11 -1 -18 4 -14 5 3 10 -5 11 -18 3 -39 5 -52 11 -68 3 -8 7 -24 9
-35 2 -11 6 -22 10 -25 3 -3 8 -19 11 -35 2 -17 7 -38 11 -47 5 -10 5 -25 2
-34 -3 -8 -2 -13 3 -10 5 3 12 -11 17 -32 18 -87 21 -105 25 -112 1 -3 3 -9 4
-15 1 -5 4 -17 8 -25 11 -31 29 -106 30 -132 1 -14 5 -24 9 -21 7 4 12 -28 11
-64 -1 -7 4 -13 9 -13 6 0 8 -11 6 -25 -3 -13 -2 -22 2 -20 5 3 40 -121 45
-160 1 -5 4 -17 7 -25 8 -18 45 -156 52 -191 2 -13 7 -31 10 -39 3 -8 8 -28
11 -45 9 -46 10 -49 19 -63 4 -7 6 -16 3 -18 -3 -3 1 -21 9 -40 8 -18 13 -37
12 -41 0 -5 1 -15 4 -23 22 -64 28 -91 23 -100 -3 -5 -1 -10 5 -10 7 0 10 -6
7 -14 -3 -7 -2 -17 3 -22 5 -5 11 -20 13 -34 3 -14 13 -54 22 -90 9 -36 19
-74 21 -85 2 -11 8 -31 13 -45 19 -48 42 -151 36 -160 -3 -6 -1 -10 4 -10 6 0
10 -3 9 -7 0 -5 2 -15 5 -23 16 -39 37 -142 31 -152 -4 -6 -3 -8 3 -5 12 8 26
-50 16 -66 -3 -6 -1 -7 5 -3 8 5 13 -2 14 -18 2 -47 3 -51 10 -56 4 -3 9 -17
11 -30 2 -14 8 -34 12 -44 5 -11 9 -34 9 -52 1 -18 4 -30 7 -28 5 2 15 -33 57
-196 2 -8 5 -25 6 -37 0 -13 4 -23 8 -23 6 0 28 -90 33 -130 1 -8 6 -24 12
-35 6 -11 13 -34 16 -52 3 -17 8 -37 12 -43 4 -6 8 -21 10 -33 2 -12 13 -56
23 -97 11 -41 18 -78 16 -82 -2 -3 0 -8 4 -10 13 -5 55 -176 46 -189 -4 -7 -3
-9 4 -5 7 4 14 -7 18 -31 4 -21 10 -45 15 -54 5 -10 3 -21 -4 -29 -9 -10 -9
-11 0 -6 8 4 15 -3 18 -21 4 -15 12 -48 20 -73 7 -25 19 -70 26 -100 7 -30 14
-57 14 -60 1 -3 5 -13 9 -22 5 -10 5 -25 2 -34 -3 -8 -2 -12 4 -9 5 3 12 -11
15 -32 10 -58 13 -63 31 -56 12 4 15 3 10 -5 -4 -7 -2 -12 4 -12 6 0 8 -5 4
-12 -4 -7 -3 -8 5 -4 6 4 8 12 5 18 -5 7 -2 8 6 3 7 -4 16 -2 21 6 5 8 9 9 9
3 0 -7 25 -11 73 -10 90 2 99 -1 92 -28 -5 -17 -3 -17 9 4 8 14 18 23 22 22 4
-2 10 2 14 8 6 9 10 7 14 -6 3 -11 15 -25 27 -32 21 -13 21 -13 -2 19 -12 18
-16 28 -8 23 7 -5 28 -10 44 -11 46 -2 47 -2 40 -13 -4 -6 -3 -10 2 -9 21 4
34 -2 28 -12 -4 -6 2 -5 13 2 12 7 18 17 15 22 -3 5 -9 3 -14 -4 -7 -11 -9
-11 -9 -1 0 7 -5 10 -12 6 -7 -4 -8 -3 -4 5 4 6 12 9 17 6 5 -4 9 0 9 7 0 7 7
2 16 -10 8 -12 12 -27 9 -32 -3 -6 -4 -10 -1 -10 3 0 10 10 17 21 9 17 8 20
-3 13 -11 -6 -11 -5 1 9 10 12 18 14 31 7 12 -7 20 -6 23 0 3 6 4 5 3 -2 -2
-7 -10 -12 -18 -10 -9 1 -18 -7 -21 -20 -5 -19 -4 -21 6 -8 15 19 39 19 62 0
18 -14 18 -14 1 12 -17 27 -17 27 3 23 12 -2 21 1 21 8 0 8 3 8 9 -1 10 -17
21 -17 31 -2 5 8 9 7 13 -5 4 -9 3 -14 -1 -11 -4 2 -9 -5 -9 -17 -2 -20 -1
-20 8 -4 6 9 15 17 20 17 6 0 7 -6 3 -12 -4 -7 -4 -10 1 -6 4 4 15 2 24 -5 14
-10 14 -10 4 4 -7 9 -9 20 -5 24 4 5 2 5 -5 1 -14 -8 -28 10 -14 18 5 4 18 -6
29 -20 16 -23 20 -24 25 -10 5 11 3 15 -5 10 -7 -4 -8 -3 -4 5 4 6 12 9 17 6
5 -4 9 -1 9 6 0 9 3 9 14 0 10 -8 16 -9 19 -1 3 6 4 5 3 -2 -2 -7 -10 -12 -18
-10 -9 1 -18 -7 -21 -20 -5 -19 -4 -21 6 -8 7 8 18 15 25 16 26 2 32 4 31 12
-3 19 2 23 16 12 8 -7 15 -9 15 -6 0 4 9 2 20 -4 11 -6 18 -16 14 -21 -4 -6 4
-5 17 2 28 15 29 15 41 -3 8 -10 9 -10 5 2 -2 8 -10 14 -16 13 -6 -2 -11 2
-11 7 0 13 6 13 31 -1 11 -5 17 -14 14 -20 -4 -5 -2 -9 3 -9 6 0 13 7 16 16 4
10 2 13 -7 8 -8 -5 -8 -2 2 9 10 12 18 14 31 7 12 -7 20 -6 23 0 3 6 4 5 3 -2
-2 -7 -10 -12 -18 -10 -9 1 -18 -7 -21 -20 -5 -19 -4 -21 6 -8 15 19 39 19 62
0 18 -14 18 -14 1 12 -17 27 -17 27 3 23 12 -2 21 1 21 8 0 8 3 8 9 -1 4 -8
11 -13 15 -13 22 3 27 -1 21 -22 -5 -19 -4 -18 9 4 12 21 21 25 42 21 23 -4
26 -2 22 15 -3 12 -1 27 4 34 8 11 9 10 4 -3 -3 -10 -1 -18 4 -18 5 0 10 10
12 23 2 12 9 21 16 19 8 -1 11 2 8 7 -4 5 -1 11 6 13 8 3 6 7 -5 11 -9 3 -16
3 -14 -1 1 -4 -2 -8 -7 -9 -5 -1 -13 -7 -17 -15 -5 -8 -9 -9 -9 -2 0 6 7 17
15 24 12 10 13 16 4 26 -11 13 -5 18 14 15 5 -1 6 8 2 19 -4 11 -2 20 4 20 6
0 11 7 11 16 0 9 -5 12 -12 8 -10 -6 -9 -3 0 8 8 9 20 14 28 11 9 -3 14 0 12
8 -2 8 2 13 9 12 7 -2 10 4 7 12 -7 17 -25 20 -21 4 1 -6 -5 -14 -13 -16 -13
-4 -13 -3 0 6 13 10 13 11 0 11 -8 1 -3 7 13 16 28 15 37 27 13 18 -8 -3 -17
0 -22 7 -4 7 -3 10 2 6 5 -3 17 0 26 7 16 12 16 14 -3 35 -18 20 -19 22 -4 19
10 -2 20 3 23 11 3 8 0 11 -6 7 -6 -3 -14 -1 -18 5 -4 7 -3 9 4 5 6 -3 13 -2
16 3 4 5 2 12 -4 16 -5 3 -10 12 -10 18 0 7 4 6 10 -3 8 -13 10 -12 10 3 0 9
5 17 11 17 5 0 7 -4 4 -10 -4 -6 1 -7 11 -3 16 6 16 7 -3 16 -37 16 -13 93 25
80 11 -3 13 -2 6 4 -6 4 -10 16 -9 25 2 11 -2 15 -13 11 -15 -4 -15 -3 -2 6
11 8 18 7 26 -4 19 -25 26 -17 8 10 -9 14 -20 22 -25 19 -5 -3 -9 0 -9 6 0 7
6 10 14 7 8 -3 17 0 20 8 3 8 0 13 -7 11 -7 -1 -9 -1 -4 1 4 3 7 11 7 18 0 8
4 17 10 20 6 4 7 -1 4 -12 -5 -15 -4 -15 4 -3 6 8 9 17 6 21 -2 4 4 10 13 12
16 4 16 5 -1 6 -19 1 -19 1 0 23 15 19 16 20 2 9 -12 -9 -18 -10 -19 -2 -4 37
-2 46 11 47 8 1 20 3 25 4 6 1 13 2 18 1 9 -1 9 13 0 22 -3 4 -12 -1 -19 -11
-9 -11 -13 -13 -14 -4 0 7 -4 11 -8 8 -5 -3 -9 1 -9 9 0 11 4 12 14 4 15 -13
17 -5 4 20 -7 13 -6 18 4 18 7 0 12 -5 11 -11 -2 -6 -1 -8 1 -3 3 4 10 4 15 1
6 -4 8 -2 4 4 -3 5 -1 12 6 14 7 3 5 7 -6 11 -10 4 -15 3 -11 -3 4 -6 -1 -7
-12 -3 -14 6 -12 9 15 20 28 12 31 16 22 33 -6 11 -8 20 -4 20 4 0 -1 9 -10
19 -18 19 -9 34 16 28 7 -2 10 -2 5 0 -4 3 -4 10 -1 15 4 7 2 8 -4 4 -8 -5
-10 -1 -5 10 5 13 3 15 -8 9 -8 -5 -7 0 4 12 10 11 17 24 16 29 -3 20 2 34 12
34 8 0 8 -4 1 -13 -8 -10 -6 -16 9 -25 11 -7 19 -8 19 -2 0 5 -4 10 -10 10 -5
0 -10 5 -10 11 0 5 4 8 9 4 16 -9 2 39 -14 51 -14 10 -14 12 0 18 9 3 13 2 10
-4 -3 -6 -1 -10 4 -10 6 0 11 9 11 21 0 11 -4 18 -8 15 -4 -2 -9 4 -9 15 -1
10 3 19 8 19 6 0 8 4 5 8 -3 5 1 9 9 9 13 0 12 -4 -2 -19 -9 -10 -11 -18 -5
-18 15 0 33 35 24 45 -4 5 2 5 13 2 19 -7 19 -6 2 7 -13 10 -14 15 -6 18 9 3
8 6 -3 11 -13 4 -16 1 -13 -14 2 -10 0 -19 -6 -19 -5 0 -7 10 -5 23 2 12 10
21 19 21 9 -1 18 4 21 12 3 8 0 11 -8 8 -8 -3 -17 0 -22 7 -4 7 -3 10 3 6 14
-9 42 35 47 72 2 22 0 28 -11 24 -9 -3 -10 -9 -4 -17 9 -12 -1 -50 -17 -60 -5
-3 -9 1 -9 9 0 8 4 12 8 10 11 -8 18 32 6 44 -7 7 -6 12 5 16 10 4 15 16 13
31 -3 26 10 41 20 24 4 -6 1 -17 -5 -25 -7 -9 -8 -15 -2 -15 13 0 23 26 16 45
-4 8 -1 15 5 15 7 0 9 10 5 28 -12 57 -12 72 -1 65 6 -4 8 0 4 9 -9 25 4 30
26 11 20 -18 20 -18 2 10 -9 15 -13 27 -9 27 5 0 2 5 -6 10 -8 5 -10 10 -4 10
6 0 11 8 11 18 0 34 3 43 13 37 6 -3 10 -11 10 -16 0 -6 -4 -8 -8 -5 -5 3 -9
-2 -9 -10 0 -12 3 -13 13 -2 16 16 7 61 -10 51 -7 -4 -6 -1 1 9 7 8 11 17 8
20 -3 3 2 11 12 19 15 12 16 12 8 -1 -8 -13 -6 -13 7 -2 9 7 17 23 17 35 1 50
3 57 10 53 4 -3 6 7 6 22 -2 38 4 45 23 30 15 -12 16 -11 3 5 -16 21 -16 21
-35 1 -9 -8 -16 -11 -16 -5 0 5 5 13 10 16 6 4 8 11 5 16 -3 5 1 6 10 3 13 -5
14 -2 7 17 -9 25 -6 49 7 49 4 0 8 -7 8 -15 0 -8 -4 -12 -9 -9 -4 3 -5 -2 -2
-11 7 -19 14 -14 18 11 2 10 9 20 16 22 8 3 10 0 5 -8 -6 -9 -4 -11 5 -5 10 6
9 11 -5 22 -11 7 -15 13 -11 13 4 0 0 7 -8 16 -9 8 -16 21 -16 27 0 8 3 8 8 2
4 -5 16 -17 27 -25 l20 -15 -20 24 c-17 21 -17 23 -3 18 12 -4 15 -2 12 8 -3
8 -12 11 -19 9 -9 -4 -13 1 -12 13 0 11 7 20 14 20 8 0 9 -4 3 -12 -6 -7 -3
-11 10 -11 15 0 16 4 9 18 -5 10 -6 18 -2 18 4 0 0 7 -10 14 -16 12 -16 14 -1
20 13 5 14 9 5 20 -8 9 -8 16 -2 20 6 4 9 12 7 19 -1 7 -1 9 1 4 3 -4 10 -4
16 0 7 4 6 -1 -2 -10 -7 -9 -10 -17 -5 -17 5 0 17 12 27 26 12 15 14 23 6 22
-7 -2 -13 2 -14 9 0 6 -3 15 -7 19 -4 3 -5 -4 -3 -16 2 -12 1 -20 -2 -16 -4 4
-8 16 -10 27 -3 17 1 19 19 13 l23 -7 -20 23 -20 23 21 -11 c18 -10 21 -9 20
6 0 9 5 16 12 14 10 -2 10 2 2 18 -13 24 -22 26 -18 4 2 -10 -2 -19 -8 -21 -7
-2 -11 6 -10 21 0 13 5 22 10 18 5 -3 6 3 2 13 -3 10 0 28 9 41 11 17 12 24 2
27 -9 4 -9 6 1 6 7 1 10 6 7 11 -4 6 -1 17 5 25 7 8 9 15 5 15 -4 0 -3 6 2 13
6 6 9 22 8 34 -1 12 2 20 7 17 5 -3 6 7 4 22 -3 15 0 34 6 41 6 7 7 13 3 13
-4 0 -3 6 2 13 6 6 9 20 8 30 -2 9 1 17 6 17 6 0 7 5 3 12 -4 7 -3 8 4 4 8 -5
10 5 7 31 -3 21 -2 33 3 27 4 -6 18 -16 32 -23 22 -11 23 -10 8 2 -10 8 -14
18 -10 22 4 5 1 5 -5 1 -7 -4 -14 -2 -14 3 -1 6 -2 17 -3 24 -1 6 0 17 3 22 3
6 6 15 6 20 1 6 6 9 13 8 6 -2 16 7 23 18 6 12 7 19 2 16 -4 -3 -14 1 -20 9
-11 11 -8 12 18 9 24 -3 28 -1 20 9 -7 9 -7 16 1 24 8 8 4 10 -18 7 -16 -2
-24 -2 -17 1 7 3 9 13 6 22 -4 14 -3 15 6 2 9 -13 13 -13 28 4 10 10 12 16 6
12 -7 -4 -13 -3 -13 3 0 6 -8 8 -17 5 -17 -5 -17 -5 0 6 9 6 23 8 30 4 6 -4 9
-4 5 1 -4 4 -2 15 5 24 11 14 10 14 -5 2 -10 -7 -18 -10 -19 -5 0 5 -2 16 -4
25 -1 9 3 16 11 16 11 0 11 -3 1 -16 -10 -14 -10 -14 4 -4 9 7 18 11 21 8 2
-3 5 2 5 10 0 8 -4 12 -9 9 -4 -3 -8 2 -8 11 0 10 5 13 12 9 7 -5 8 -3 3 6 -6
10 -11 9 -21 -5 -8 -10 -16 -16 -19 -13 -3 3 1 11 9 17 8 7 12 19 9 27 -3 8 0
14 7 14 6 0 8 -5 4 -12 -4 -6 -3 -8 4 -4 5 3 12 0 15 -6 2 -7 4 0 4 16 0 19
-2 24 -8 15 -7 -11 -9 -11 -9 -1 0 7 -4 10 -10 7 -5 -3 -10 -4 -10 -1 0 3 10
10 21 17 17 9 23 8 30 -2 6 -10 9 -10 9 -2 0 6 -5 15 -10 18 -8 5 -7 12 2 23
12 15 11 16 -4 3 -21 -16 -25 1 -5 18 10 8 17 7 27 -2 12 -10 12 -9 1 5 -7 9
-10 22 -6 28 13 21 13 47 -1 47 -10 0 -11 -4 -3 -14 9 -9 8 -13 0 -13 -7 0 -9
-5 -5 -12 4 -7 3 -8 -4 -4 -8 4 -10 2 -6 -7 3 -8 -3 -17 -13 -21 -14 -6 -15
-4 -6 5 6 6 9 18 6 25 -3 8 0 14 6 14 6 0 10 10 7 23 -3 20 -1 23 18 20 20 -4
26 -19 50 -116 15 -62 29 -123 32 -137 3 -14 22 -97 44 -185 21 -88 41 -171
43 -185 2 -14 6 -32 9 -40 18 -47 49 -211 42 -221 -4 -7 -3 -9 3 -6 11 7 22
-32 26 -90 1 -17 5 -29 10 -26 6 4 8 -3 10 -54 1 -10 5 -20 9 -23 4 -3 9 -25
10 -48 2 -23 6 -42 9 -42 4 0 12 -28 19 -62 7 -35 15 -70 18 -78 2 -8 5 -24 7
-35 1 -11 5 -27 9 -35 14 -36 64 -245 60 -252 -3 -4 -1 -8 3 -8 7 0 25 -57 39
-129 3 -13 9 -32 14 -41 5 -10 7 -19 5 -22 -2 -2 3 -26 11 -53 9 -28 18 -61
20 -75 3 -14 10 -43 16 -65 6 -22 12 -47 13 -55 1 -8 5 -22 8 -30 10 -26 26
-84 31 -110 3 -14 10 -40 15 -59 6 -19 9 -37 6 -39 -3 -3 0 -11 6 -18 6 -7 11
-28 12 -47 1 -19 5 -33 8 -32 9 6 40 -135 33 -147 -5 -7 -2 -8 6 -3 10 6 12 3
8 -13 -4 -12 -2 -22 4 -22 6 0 8 -6 5 -14 -3 -7 -2 -17 2 -22 4 -5 14 -36 20
-69 7 -33 19 -77 27 -97 8 -21 12 -38 9 -38 -2 0 2 -18 10 -39 7 -22 11 -42 8
-45 -3 -3 -1 -11 4 -18 5 -7 20 -56 33 -108 12 -52 30 -122 40 -155 10 -33 21
-74 25 -92 4 -19 11 -30 18 -27 7 2 20 -8 29 -23 15 -25 17 -26 15 -6 0 12 -5
19 -11 16 -5 -3 -6 -1 -2 6 9 14 26 5 26 -14 0 -7 6 -15 13 -17 16 -7 37 1 37
14 0 7 -5 6 -14 -1 -11 -9 -15 -8 -20 5 -4 9 -4 19 -1 22 3 3 5 0 5 -6 0 -6 9
-10 20 -9 11 1 20 6 20 12 0 6 3 7 8 0 11 -16 46 -19 36 -3 -5 9 -2 8 11 -2
21 -17 24 -17 37 2 8 10 9 9 5 -4 -4 -10 3 -22 17 -31 20 -14 22 -13 23 6 1
11 7 25 14 31 9 8 10 8 5 -1 -5 -8 -1 -13 9 -13 10 0 13 5 9 12 -5 7 -3 8 6 3
10 -6 7 -13 -11 -27 l-24 -18 25 8 c14 5 31 7 37 5 7 -3 13 0 13 7 0 6 -4 8
-10 5 -6 -3 -10 -2 -10 3 0 6 7 13 16 16 8 3 13 2 10 -2 -2 -4 -1 -14 4 -22 8
-13 11 -13 22 -1 10 10 10 12 1 7 -7 -4 -13 -2 -13 3 0 13 10 14 29 2 9 -6 10
-11 2 -15 -6 -4 -11 -13 -11 -19 0 -7 9 -1 19 12 12 15 24 22 34 18 9 -3 19
-2 22 4 11 17 26 -2 20 -24 -5 -17 -4 -19 4 -7 13 19 41 19 66 0 18 -14 19
-13 7 1 -6 9 -8 20 -4 24 4 5 1 5 -5 1 -9 -5 -11 -2 -6 9 3 9 9 13 12 8 10
-14 44 -16 35 -2 -4 8 -3 10 4 5 9 -5 9 -13 1 -27 -6 -12 -8 -23 -5 -26 3 -3
11 10 19 28 11 27 14 30 20 16 4 -10 3 -16 -1 -13 -4 2 -9 -5 -9 -17 -2 -20
-1 -20 8 -4 6 9 15 17 20 17 6 0 7 -6 3 -12 -4 -7 -4 -10 1 -6 4 4 15 2 24 -5
14 -10 14 -10 4 4 -7 9 -9 20 -5 24 4 5 2 5 -5 1 -6 -3 -15 -1 -19 5 -4 8 -3
9 4 5 7 -4 12 -1 12 6 0 8 3 9 8 3 11 -16 46 -19 36 -3 -6 10 -5 10 7 2 8 -7
30 -11 49 -11 31 1 35 -1 32 -23 -1 -19 0 -22 8 -10 12 19 40 19 65 0 18 -14
19 -13 7 1 -6 9 -8 20 -4 24 4 5 1 5 -5 1 -9 -5 -11 -2 -6 9 3 9 9 13 12 8 10
-14 44 -16 35 -2 -4 8 -3 10 4 5 9 -5 9 -13 1 -27 -6 -12 -8 -23 -5 -26 3 -3
11 10 19 28 11 27 14 30 20 16 4 -10 3 -16 -1 -13 -4 2 -9 -5 -9 -17 -2 -20
-1 -20 8 -4 6 9 15 17 20 17 6 0 7 -6 3 -12 -4 -7 -4 -10 1 -6 4 4 15 2 24 -5
14 -10 14 -10 4 4 -7 9 -9 20 -5 24 4 5 2 5 -5 1 -6 -3 -15 -1 -19 5 -4 8 -3
9 4 5 7 -4 12 -1 12 6 0 8 3 9 8 3 11 -16 46 -19 36 -3 -6 11 -5 11 8 0 9 -7
20 -12 24 -11 27 5 34 -2 24 -21 -8 -16 -8 -18 4 -14 15 6 16 20 3 41 -5 7 -1
10 10 8 10 -2 18 -4 18 -5 0 -1 8 -3 18 -5 9 -2 17 2 17 8 0 5 2 8 5 5 3 -3 2
-13 -1 -22 -5 -14 -9 -15 -15 -4 -5 8 -9 9 -9 2 0 -6 8 -18 18 -25 9 -7 14 -9
10 -5 -4 5 -3 15 3 22 8 10 16 11 31 3 11 -6 22 -8 26 -5 3 3 0 6 -7 6 -7 0
-9 4 -6 10 3 5 0 7 -8 4 -8 -3 -18 0 -22 6 -3 6 -3 10 2 9 20 -3 27 2 13 11
-11 7 -11 10 -2 10 7 0 10 5 6 12 -5 7 -3 8 6 3 10 -6 12 -4 7 9 -5 14 -3 17
8 12 8 -3 14 0 12 6 -1 6 4 13 12 16 9 3 11 0 6 -8 -6 -9 -4 -11 4 -5 9 5 10
10 2 18 -8 8 -14 8 -23 -1 -7 -7 -17 -12 -22 -12 -6 0 -4 5 4 10 13 9 13 11 0
21 -12 8 -11 9 5 5 27 -7 54 8 30 17 -10 5 -14 3 -9 -5 4 -7 3 -8 -4 -4 -23
14 -12 28 16 22 15 -3 21 -3 14 0 -6 3 -9 11 -6 16 5 7 2 8 -6 3 -9 -6 -10 -2
-5 15 5 15 4 20 -4 16 -6 -4 -11 -2 -11 3 0 18 21 12 41 -11 l20 -23 -17 28
c-13 21 -13 27 -3 27 7 0 3 7 -9 16 -18 12 -20 19 -12 29 7 8 8 20 4 26 -4 7
-3 9 3 6 6 -4 13 0 17 8 3 8 0 15 -7 15 -8 0 -6 4 3 10 8 5 20 10 25 10 6 0 3
-5 -5 -10 -8 -5 -10 -10 -5 -10 6 1 19 8 30 16 12 10 14 14 5 11 -8 -2 -23 0
-33 5 -14 7 -15 13 -7 29 6 11 15 17 21 14 5 -4 9 -2 9 4 0 5 -4 12 -10 16 -5
3 -6 13 -3 21 4 12 8 13 14 3 4 -7 5 -17 3 -21 -3 -4 2 -5 11 -1 9 3 13 9 8
12 -5 3 -13 14 -16 25 -6 14 -3 17 8 12 8 -3 14 -2 14 2 -1 4 -1 16 0 27 1 16
3 17 11 5 7 -12 9 -10 10 8 1 56 2 62 9 57 5 -2 7 9 6 26 -2 19 3 33 12 36 12
5 12 7 1 14 -7 5 -17 9 -23 9 -5 0 -3 -5 5 -10 9 -6 10 -10 3 -10 -16 0 -26
17 -14 25 5 3 8 14 6 25 -3 16 0 18 21 9 34 -12 37 -12 22 5 -7 8 -16 12 -20
10 -4 -2 -10 1 -14 7 -4 8 -3 9 5 5 8 -5 10 0 7 18 -3 18 -1 24 6 20 7 -5 9
-1 5 9 -6 17 19 51 32 43 4 -3 8 4 8 15 1 10 -2 19 -8 19 -5 0 -8 -5 -6 -11 1
-6 -5 -14 -13 -16 -12 -4 -12 -3 -1 5 11 8 11 10 0 15 -11 4 -11 6 -1 6 7 1
11 5 7 10 -3 6 3 8 15 6 11 -2 23 1 26 7 4 6 3 8 -3 5 -6 -4 -19 0 -29 8 -17
13 -16 13 16 10 19 -2 27 -1 18 1 -10 3 -18 10 -18 15 0 6 -5 7 -11 3 -7 -4
-6 3 2 17 7 13 12 25 11 27 -5 7 -1 22 6 22 5 0 9 -7 9 -15 0 -8 -3 -12 -7
-10 -3 2 -7 -6 -7 -17 -2 -23 16 -12 21 13 2 8 7 22 11 33 8 19 -11 40 -29 29
-5 -3 -6 -1 -3 4 4 6 20 9 37 8 16 -1 27 1 24 6 -3 5 -10 7 -15 3 -5 -3 -9 7
-8 23 1 15 -2 37 -7 48 -7 17 -6 18 8 5 9 -8 14 -23 13 -32 -2 -10 0 -20 5
-23 4 -3 7 3 6 12 -2 10 2 21 8 25 8 5 7 8 -2 8 -8 0 -10 5 -5 12 12 20 12 39
1 32 -6 -4 -9 -1 -6 7 3 8 10 14 16 14 12 0 13 10 5 32 -3 7 -3 18 0 25 2 7 1
20 -4 29 -5 11 -3 16 6 16 8 0 11 -5 8 -10 -4 -6 -1 -7 7 -2 10 6 12 4 6 -11
-5 -14 -4 -16 5 -7 9 9 8 16 -3 32 -8 12 -17 19 -20 16 -2 -3 -5 1 -5 9 0 15
21 16 34 1 4 -4 2 -5 -6 0 -9 5 -12 4 -7 -3 4 -6 14 -8 23 -5 11 4 13 8 5 11
-15 5 -16 32 0 32 6 0 8 3 5 6 -4 4 -13 1 -21 -5 -11 -9 -16 -9 -22 0 -4 7 -3
9 3 6 6 -4 13 0 17 8 3 8 0 15 -7 15 -8 0 -9 2 -1 8 6 4 10 14 9 23 -2 9 3 16
11 16 7 0 10 -5 6 -11 -12 -20 -10 -35 4 -40 11 -4 12 -2 4 14 -7 12 -7 21 0
25 5 3 10 1 10 -6 0 -7 3 -9 6 -6 4 4 2 13 -4 20 -9 10 -7 19 5 37 9 13 11 20
5 16 -17 -10 -15 10 3 27 9 9 11 17 4 19 -14 5 -12 80 4 105 5 7 6 17 3 21 -3
5 0 9 7 9 7 0 21 4 31 9 13 5 17 4 12 -4 -3 -6 -2 -13 3 -16 5 -4 8 2 7 11 -2
9 -8 19 -14 21 -7 2 -9 9 -6 14 4 7 2 8 -5 4 -6 -4 -9 -11 -7 -15 3 -4 -1 -8
-8 -8 -7 0 -13 6 -13 14 0 7 2 11 5 9 2 -3 14 5 26 17 l22 22 -20 18 c-12 10
-15 15 -7 11 11 -5 13 -3 8 10 -5 11 -3 15 5 10 8 -5 9 -2 4 11 -5 15 -4 16 9
5 9 -7 18 -10 22 -6 3 3 1 6 -5 6 -7 0 -12 7 -12 16 0 9 -5 12 -12 8 -10 -6
-10 -4 -1 6 11 12 16 11 29 -6 15 -18 15 -18 4 3 -5 12 -15 25 -20 28 -6 3
-10 12 -10 18 0 8 3 8 8 2 4 -5 14 -16 23 -22 13 -10 16 -10 16 2 0 8 -4 12
-9 9 -7 -5 -10 3 -7 22 0 4 -5 11 -13 15 -9 6 -9 9 -1 9 7 0 17 -8 22 -17 10
-17 10 -17 11 -1 0 9 -8 22 -17 27 -10 6 -12 11 -5 11 6 0 12 5 12 11 0 5 -4
7 -10 4 -16 -10 -11 1 7 16 9 8 14 9 10 3 -3 -6 0 -11 7 -11 7 0 13 6 13 13 0
7 -4 11 -8 9 -12 -8 -19 37 -8 54 8 13 9 12 5 -4 -4 -13 1 -24 14 -33 12 -7
20 -8 20 -2 0 5 -4 10 -10 10 -5 0 -10 11 -10 24 0 13 -5 26 -12 28 -7 3 -5 7
6 11 9 4 15 3 12 -1 -3 -5 1 -9 9 -9 10 0 11 5 4 18 -13 25 -11 29 9 23 12 -4
13 -3 4 3 -13 10 -6 47 8 38 12 -7 3 44 -11 61 -10 13 -8 13 14 5 19 -7 28 -7
33 2 4 7 4 9 -1 5 -4 -4 -14 0 -22 10 -9 10 -12 11 -7 2 4 -8 3 -11 -1 -7 -5
4 -10 14 -11 22 -2 12 2 13 18 4 11 -6 22 -8 26 -5 3 3 0 6 -7 6 -7 0 -9 5 -6
10 4 6 1 9 -5 8 -7 -2 -14 5 -15 15 -2 10 1 14 8 10 6 -4 8 0 4 10 -4 11 -2
14 9 10 10 -4 12 -9 4 -18 -8 -9 -6 -14 4 -18 11 -4 13 -1 9 10 -4 10 -2 14 5
9 6 -3 14 -2 17 4 4 6 1 9 -6 8 -15 -3 -19 22 -7 39 6 7 4 14 -3 19 -8 4 -9 3
-5 -4 5 -8 1 -10 -9 -5 -13 4 -14 8 -4 13 7 5 18 6 26 3 7 -3 13 0 13 7 0 6
-4 8 -10 5 -5 -3 -10 -1 -10 5 0 6 -4 9 -8 6 -5 -3 -9 1 -9 8 0 7 6 13 13 13
7 0 11 -3 9 -7 -2 -4 2 -7 10 -7 7 0 12 8 10 19 -2 10 4 23 13 29 15 9 15 10
1 6 -9 -3 -21 -1 -27 5 -13 13 -4 40 10 32 6 -4 5 -10 -3 -15 -11 -7 -10 -9 5
-9 12 0 16 5 12 16 -3 9 -6 20 -6 25 0 6 -6 7 -12 3 -10 -6 -10 -4 -2 7 6 8
10 21 9 30 -3 18 10 19 33 5 11 -7 11 -4 1 12 -7 12 -18 18 -24 14 -5 -3 -4 2
4 11 7 9 11 23 8 30 -3 8 1 14 8 14 8 0 13 -5 12 -10 -1 -5 5 -12 13 -14 12
-4 12 -3 1 5 -11 8 -11 10 0 15 9 4 10 6 2 6 -7 1 -10 8 -7 16 4 8 10 12 15 9
15 -9 10 3 -8 17 -14 12 -16 12 -8 0 5 -10 4 -12 -3 -7 -8 5 -10 2 -6 -8 3 -9
2 -16 -4 -16 -11 0 -10 13 3 44 5 10 9 28 10 40 3 28 24 76 24 55 1 -8 -4 -20
-11 -27 -9 -9 -9 -12 2 -12 13 0 13 -2 0 -10 -13 -8 -13 -10 1 -10 20 0 25 70
6 82 -8 5 -7 8 5 8 9 0 18 -4 20 -9 2 -5 10 -2 18 7 13 14 12 15 -3 9 -9 -3
-19 -2 -22 4 -4 5 -12 6 -18 2 -7 -3 -5 2 4 13 9 10 15 26 14 35 -2 11 3 15
14 12 10 -2 24 4 31 14 12 15 12 16 0 6 -16 -15 -30 -17 -30 -5 0 5 10 14 23
20 12 6 16 11 9 11 -7 1 -11 5 -7 10 3 5 1 12 -4 16 -6 3 -8 -3 -6 -15 2 -11
0 -20 -5 -20 -11 0 -5 66 8 83 5 6 8 23 6 37 -1 14 0 19 2 12 3 -6 9 -10 13
-8 4 3 8 -1 8 -9 0 -8 -4 -12 -9 -9 -5 3 -7 2 -6 -3 1 -4 -3 -18 -10 -29 -11
-21 -7 -34 9 -34 5 0 5 7 2 17 -4 10 -2 14 5 9 6 -3 14 -1 18 5 4 8 3 9 -4 5
-13 -8 -17 6 -5 18 14 14 12 44 -3 50 -8 3 -12 10 -9 16 7 11 15 44 19 75 2
12 9 19 19 17 11 -2 15 2 11 13 -3 8 -11 12 -17 8 -6 -3 -3 4 6 16 8 13 13 30
10 37 -3 8 0 14 7 14 6 0 9 -4 6 -9 -3 -4 1 -17 10 -27 14 -18 15 -18 4 4 -8
17 -8 22 2 22 6 0 3 7 -8 15 -10 8 -14 15 -9 15 6 0 3 5 -5 11 -13 9 -13 10 0
6 8 -2 14 -9 13 -15 -3 -13 24 -9 39 6 9 9 6 11 -10 7 -26 -5 -28 7 -6 29 14
14 14 16 0 16 -8 0 -20 -8 -26 -18 -8 -11 -10 -12 -7 -2 2 8 14 20 26 26 33
17 49 34 31 34 -7 0 -10 3 -7 7 4 3 -1 16 -10 27 l-18 20 30 -19 c20 -12 26
-14 18 -4 -10 12 -10 18 0 29 8 9 9 11 0 6 -8 -4 -11 2 -9 21 2 16 -2 31 -8
35 -8 5 -7 8 2 8 7 0 10 4 7 10 -3 5 -2 18 4 27 8 14 9 11 6 -15 -2 -22 0 -30
7 -26 7 5 9 1 5 -9 -9 -24 0 -21 13 3 8 15 8 20 -2 18 -8 -2 -11 8 -9 31 2 24
-1 31 -10 26 -8 -5 -10 -4 -5 4 6 9 12 9 24 -1 15 -12 15 -10 -1 14 -10 16
-13 29 -7 33 10 6 11 5 14 -15 2 -19 23 -32 31 -19 5 7 4 10 -3 5 -6 -3 -13
-2 -16 3 -4 5 -2 12 4 16 5 3 10 12 10 18 0 7 -4 6 -10 -3 -8 -13 -10 -12 -10
3 0 10 -4 16 -8 13 -5 -3 -9 1 -9 9 0 10 4 12 12 5 7 -5 15 -7 18 -3 9 9 9 24
0 20 -8 -2 -14 8 -12 18 1 3 2 14 3 25 1 23 19 28 22 5 1 -8 -1 -13 -5 -10 -4
2 -8 -2 -8 -9 0 -7 6 -13 12 -13 12 0 12 10 1 79 -2 16 0 31 5 34 6 4 6 11 -1
19 -8 9 -6 14 6 19 9 4 19 4 22 1 3 -3 0 -5 -6 -5 -7 0 -12 -5 -12 -12 0 -7 7
-5 18 5 9 8 22 16 27 17 6 1 12 4 15 7 3 2 -2 3 -10 1 -8 -2 -15 3 -16 10 -1
6 -2 17 -3 23 0 5 -5 8 -9 5 -4 -2 -8 4 -8 14 0 10 5 16 10 13 5 -4 7 1 3 10
-3 9 -2 19 3 22 5 3 7 22 4 43 -4 34 -3 35 10 17 14 -19 15 -17 12 22 -2 23 0
40 5 38 4 -3 10 -1 14 5 4 6 11 7 17 4 6 -4 8 -2 4 4 -3 6 -16 9 -28 7 -11 -3
-17 -1 -14 3 4 4 11 7 14 7 4 0 13 4 20 8 7 5 12 4 12 -2 0 -6 5 -11 10 -11 6
0 5 8 -2 19 -8 13 -16 17 -23 11 -8 -7 -12 -5 -12 5 0 8 4 12 8 9 4 -2 10 0
14 6 4 6 10 8 14 5 5 -2 8 6 8 18 1 42 3 48 16 41 6 -4 1 5 -13 21 -24 27 -24
27 -2 16 12 -6 22 -9 22 -5 0 3 -10 15 -22 26 -13 11 -17 16 -9 12 10 -5 13
-3 8 9 -4 11 -2 14 9 10 11 -4 12 -9 3 -19 -8 -10 -8 -14 0 -14 6 0 12 5 12
10 1 6 2 15 3 21 0 6 9 16 18 23 10 7 15 16 12 19 -4 3 -14 -3 -24 -15 -13
-16 -19 -18 -25 -8 -5 9 -4 11 3 6 7 -4 12 -3 12 3 0 5 -3 11 -7 14 -5 2 -3 2
4 1 14 -3 25 23 13 31 -6 4 -10 1 -10 -6 0 -7 -3 -10 -6 -6 -3 3 -1 14 5 24 6
10 11 13 11 6 0 -6 9 -11 19 -10 11 0 17 5 15 9 -3 5 -9 6 -14 3 -4 -3 -11 2
-14 11 -4 11 -2 15 7 11 8 -3 20 -1 28 5 11 8 10 9 -3 4 -10 -3 -18 -1 -18 4
0 5 -8 7 -17 4 -17 -5 -17 -5 0 6 19 12 24 36 5 24 -7 -4 -8 -3 -4 4 4 6 14 8
24 5 14 -5 14 -3 -3 17 -11 13 -15 20 -9 17 8 -5 12 6 11 33 l-1 40 -556 0
-557 0 -11 -52 c-6 -29 -13 -64 -16 -78 -2 -14 -36 -187 -76 -385 -40 -198
-74 -369 -76 -380 -2 -11 -15 -74 -29 -141 -13 -66 -27 -138 -31 -160 -3 -21
-7 -41 -9 -44 -2 -3 -6 -26 -10 -50 -3 -25 -8 -53 -11 -62 -8 -28 -15 -62 -19
-93 -2 -16 -9 -52 -15 -80 -7 -27 -14 -63 -17 -80 -3 -16 -9 -37 -14 -46 -4
-9 -6 -18 -4 -21 3 -3 -6 -61 -20 -129 -14 -68 -28 -137 -31 -154 -3 -16 -9
-46 -14 -65 -5 -19 -11 -53 -15 -75 -3 -22 -7 -47 -10 -55 -2 -8 -6 -26 -9
-40 -25 -134 -48 -252 -56 -285 -9 -40 -37 -181 -46 -233 -3 -15 -13 -67 -24
-117 -10 -49 -22 -106 -25 -125 -3 -19 -17 -87 -30 -150 -13 -63 -26 -131 -29
-150 -8 -49 -13 -72 -24 -113 -6 -20 -7 -38 -4 -41 3 -3 1 -6 -5 -6 -6 0 -9
-8 -6 -18 2 -10 -3 -34 -11 -53 -15 -31 -16 -32 -11 -6 4 19 2 26 -5 22 -5 -3
-11 1 -11 9 -2 24 -4 30 -10 41 -4 6 -6 32 -6 58 -1 26 -4 51 -8 55 -5 4 -5
-1 -2 -10 3 -10 3 -19 -1 -22 -4 -3 -9 10 -10 27 -2 17 -8 35 -15 40 -8 6 -7
7 5 3 12 -3 15 -1 11 9 -3 8 -10 12 -17 8 -8 -5 -8 -3 -1 8 17 23 12 54 -8 51
-11 -2 -15 2 -11 12 3 8 0 17 -5 21 -6 3 -9 11 -5 16 3 5 0 16 -6 24 -7 8 -9
15 -6 15 4 0 3 8 -3 17 -7 13 -5 23 5 34 14 15 13 17 -3 15 -12 -1 -18 6 -19
21 -1 12 2 21 6 18 4 -2 7 2 7 9 0 7 -7 13 -16 12 -16 -1 -18 3 -20 55 0 16
-5 28 -10 25 -5 -4 -8 5 -6 19 1 14 -1 28 -6 31 -4 2 -6 11 -3 18 3 8 1 17 -5
20 -6 4 -7 14 -4 23 4 11 3 14 -5 9 -13 -8 -6 20 10 41 9 12 -8 30 -19 19 -4
-3 -1 -6 6 -6 7 0 9 -4 6 -10 -11 -18 -25 -11 -25 13 0 41 -3 57 -12 57 -5 0
-7 4 -3 9 3 5 1 12 -4 16 -5 3 -8 15 -6 27 3 12 -1 26 -8 31 -9 6 -8 7 3 4 8
-2 14 -12 13 -22 -1 -12 2 -14 10 -6 13 13 -8 41 -32 41 -13 0 -13 2 -2 9 9 6
10 11 3 15 -6 4 -8 14 -5 23 4 10 2 14 -4 10 -6 -4 -9 3 -8 16 1 12 -5 33 -13
46 -13 22 -13 24 3 17 14 -5 16 -4 7 7 -7 8 -8 18 -4 22 4 5 0 6 -9 3 -9 -4
-16 -1 -16 8 0 7 3 11 6 9 3 -2 6 9 6 24 1 23 -3 27 -20 24 -18 -4 -18 -3 -3
7 20 12 13 40 -9 40 -9 0 -13 6 -10 15 4 8 2 17 -3 20 -4 3 -7 13 -5 23 2 9 4
21 4 25 1 5 5 5 11 2 5 -3 2 7 -8 24 -18 33 -30 35 -13 2 6 -11 7 -22 3 -25
-5 -3 -9 0 -9 7 -1 7 -6 27 -12 45 -9 29 -8 32 5 21 12 -10 13 -9 8 5 -3 9
-10 16 -14 16 -13 0 -19 39 -8 47 7 4 8 1 3 -7 -6 -9 -4 -11 5 -5 10 6 8 12
-8 26 -23 18 -32 79 -12 79 6 0 10 6 10 13 -1 6 -9 2 -19 -10 -16 -19 -20 -20
-25 -7 -3 8 -2 13 3 10 5 -3 12 1 15 10 3 8 2 13 -3 10 -5 -3 -11 1 -15 9 -3
8 -1 17 4 20 6 4 10 1 10 -6 0 -7 3 -10 6 -7 7 7 -22 64 -30 61 -15 -7 -15 -1
0 24 11 19 11 22 2 11 -8 -10 -18 -15 -21 -11 -4 3 -1 13 6 21 7 10 8 13 1 9
-11 -7 -28 32 -19 42 3 2 5 -1 5 -7 0 -6 10 -17 23 -23 l22 -11 -23 21 c-12
12 -20 26 -17 31 3 6 -1 7 -9 4 -12 -4 -14 0 -10 18 11 46 12 68 4 63 -5 -3
-7 -12 -4 -19 3 -8 0 -17 -7 -21 -7 -5 -10 -3 -7 6 3 8 1 22 -4 32 -14 28 -18
56 -8 62 5 3 7 -3 5 -13 -2 -10 1 -25 5 -32 6 -9 8 -3 6 18 -1 18 -8 38 -16
45 -10 9 -12 9 -6 0 4 -7 2 -13 -3 -13 -14 0 -14 17 0 25 6 5 4 11 -7 19 -16
12 -12 42 5 32 3 -3 7 4 7 15 0 19 -1 19 -13 3 -7 -10 -16 -15 -19 -11 -4 4
-3 12 3 19 5 7 8 19 7 26 -1 6 -2 17 -3 22 0 6 -6 10 -12 10 -6 0 -7 -5 -2
-12 10 -17 14 -42 5 -33 -4 4 -8 11 -8 16 -1 5 -2 10 -4 12 -4 5 -11 43 -12
64 0 13 -4 20 -9 18 -4 -3 -6 3 -4 15 2 11 -1 22 -6 25 -5 4 -7 10 -4 15 3 5
0 12 -5 15 -7 5 -5 12 7 21 17 13 17 14 -2 7 -11 -3 -17 -3 -13 2 4 4 2 17 -4
29 -19 33 -19 50 -1 63 11 8 12 13 4 13 -7 0 -9 5 -5 12 4 7 3 8 -5 4 -6 -4
-9 -12 -6 -17 4 -5 1 -9 -4 -9 -14 0 -14 6 -1 30 11 20 4 50 -12 50 -6 0 -5
-7 2 -15 7 -9 10 -18 6 -22 -9 -10 -16 0 -20 33 -2 16 -9 44 -14 62 -6 17 -9
32 -6 32 2 0 -2 12 -9 28 -7 15 -13 34 -12 42 0 8 -4 19 -10 23 -6 5 -4 7 5 4
8 -2 14 -10 12 -16 -1 -7 2 -10 7 -7 5 4 12 0 14 -6 4 -9 6 -9 6 -1 1 6 -10
21 -24 32 -14 11 -28 29 -30 40 -3 12 -8 31 -11 44 -3 12 -6 32 -5 45 0 12 -4
22 -9 22 -6 0 -10 4 -10 10 0 5 8 7 18 3 11 -3 9 0 -6 11 -13 10 -19 22 -15
29 11 18 12 38 2 31 -5 -3 -6 -10 -3 -16 4 -7 2 -8 -5 -4 -6 4 -9 11 -6 16 3
5 1 11 -4 14 -5 4 -8 20 -6 36 3 23 0 30 -13 30 -14 0 -15 2 -2 9 8 6 18 7 22
5 4 -3 5 2 1 11 -5 13 -7 14 -14 3 -6 -9 -9 -6 -9 10 0 13 -4 21 -9 18 -4 -3
-8 4 -7 15 0 11 7 23 14 28 11 7 10 9 -3 14 -11 5 -14 3 -9 -6 5 -9 4 -9 -6 0
-9 8 -10 16 -3 25 11 16 11 27 -5 54 -6 12 -8 24 -4 28 3 4 -1 4 -9 1 -10 -4
-16 0 -16 9 0 8 5 12 10 9 5 -3 8 0 6 6 -3 7 -9 12 -14 11 -15 -2 -27 42 -15
54 8 8 9 6 5 -6 -5 -11 1 -20 17 -28 21 -10 22 -10 4 4 -10 8 -15 20 -11 26 4
7 -2 14 -14 17 -11 3 -18 9 -15 14 3 5 10 6 16 3 6 -4 5 3 -2 15 -9 17 -9 26
1 39 11 14 11 15 -1 5 -18 -17 -27 -16 -33 1 -4 10 -1 13 9 9 7 -3 14 0 14 6
0 6 -7 11 -16 11 -8 0 -12 5 -9 10 3 6 0 10 -7 11 -7 1 -2 5 12 9 24 8 24 8 3
9 -13 1 -23 6 -23 11 0 19 -2 25 -12 38 -6 6 -8 12 -5 12 3 0 0 15 -8 34 -8
18 -11 36 -8 40 4 3 -216 5 -487 4 l-494 -3 -17 -65 c-10 -36 -36 -135 -59
-220 -23 -85 -43 -162 -45 -170 -2 -8 -11 -40 -19 -70 -26 -97 -97 -364 -101
-380 -1 -8 -9 -35 -16 -60 -7 -25 -14 -52 -15 -60 -2 -8 -34 -132 -73 -275
-69 -259 -100 -376 -191 -725 -27 -102 -61 -228 -75 -280 -14 -52 -28 -102
-29 -110 -2 -8 -30 -112 -61 -230 -31 -118 -59 -222 -61 -230 -4 -17 -9 -37
-58 -220 -20 -74 -44 -164 -53 -200 -9 -36 -19 -67 -22 -70 -3 -3 -7 -18 -9
-35 -2 -16 -13 -38 -25 -48 -13 -10 -16 -15 -6 -12 13 5 15 1 12 -19 -3 -14
-9 -23 -14 -20 -5 3 -7 9 -4 14 3 5 1 11 -4 14 -5 3 -7 15 -4 26 3 11 9 18 12
15 4 -2 8 2 8 9 0 8 -8 11 -18 9 -15 -4 -17 -1 -13 18 3 13 7 35 7 49 1 14 5
30 10 37 5 8 0 10 -16 8 -17 -4 -23 0 -24 16 -1 11 5 23 13 26 18 7 18 20 -1
20 -8 0 -12 -4 -9 -9 3 -4 0 -8 -5 -8 -15 0 -7 40 10 51 10 8 8 9 -8 4 -29 -8
-29 2 -1 26 13 10 17 18 11 19 -7 0 -13 -4 -13 -10 0 -5 -5 -10 -11 -10 -5 0
-7 5 -4 10 3 6 2 10 -4 10 -12 0 -2 31 13 43 6 5 2 6 -10 3 -14 -4 -21 -2 -21
8 0 8 6 12 14 9 9 -4 11 0 7 11 -3 8 -11 14 -17 13 -6 -1 -11 7 -12 18 0 11
-4 26 -9 33 -7 12 -4 12 15 2 22 -11 22 -10 -3 14 -35 34 -36 43 -2 21 l27
-17 -19 25 c-11 14 -22 23 -26 20 -4 -2 -5 3 -2 12 4 8 0 23 -7 32 -10 12 -10
15 -1 9 14 -8 16 3 2 24 -6 9 -5 20 3 29 10 12 9 14 -5 8 -10 -3 -17 -3 -17 1
1 4 0 9 -1 12 -8 22 -7 47 3 59 9 11 9 13 0 8 -6 -4 -15 -2 -19 4 -4 7 -3 9 4
5 6 -3 13 -2 17 4 3 5 -1 10 -9 10 -21 0 -20 16 2 30 15 10 15 10 -4 5 -18 -5
-20 -1 -18 30 2 26 0 34 -9 28 -7 -4 -5 2 3 12 9 11 10 16 3 11 -8 -4 -13 -2
-14 6 0 7 -2 20 -4 28 -14 55 -13 65 1 81 15 16 14 17 -8 12 -16 -3 -19 -2
-10 5 11 8 11 10 0 15 -10 3 -14 17 -12 41 2 20 0 34 -5 32 -4 -3 -8 1 -8 9 0
8 3 12 7 10 3 -2 11 5 18 16 10 16 10 21 -3 25 -9 4 -19 4 -22 0 -4 -3 2 -6
12 -6 20 0 13 -13 -9 -16 -10 -1 -13 8 -10 32 2 19 0 32 -5 30 -4 -3 -7 5 -6
17 1 12 9 23 18 25 9 2 17 8 17 13 0 6 -7 6 -19 -1 -27 -14 -30 -13 -24 10 3
11 1 20 -4 20 -5 0 -10 10 -10 23 -1 12 -3 37 -4 55 -1 21 4 37 15 45 16 12
16 13 -3 13 -11 0 -18 -4 -15 -7 2 -4 0 -10 -5 -13 -5 -4 -8 2 -6 11 2 10 4
18 5 18 1 0 3 10 6 23 2 12 0 22 -5 22 -6 0 -8 -10 -6 -21 3 -12 1 -18 -3 -15
-4 4 -8 16 -8 27 -1 10 -2 20 -4 22 -12 14 -5 45 13 60 22 18 22 18 0 8 -17
-9 -22 -7 -27 6 -4 9 -1 21 5 27 9 8 10 8 5 -1 -3 -6 -3 -14 2 -17 4 -2 8 6 8
18 0 17 -5 22 -18 18 -10 -2 -18 1 -18 7 0 7 4 10 9 7 5 -4 8 2 7 11 -2 10 1
21 6 24 5 3 3 9 -5 12 -12 4 -15 0 -12 -15 3 -11 1 -18 -2 -14 -4 4 -8 21 -9
38 -2 25 0 29 8 18 8 -12 9 -12 4 3 -3 10 0 17 7 17 7 1 0 7 -15 15 -18 10
-26 21 -23 35 2 11 0 22 -5 25 -4 3 -7 23 -5 45 2 28 0 38 -8 33 -7 -3 -9 -3
-5 2 4 4 2 17 -4 29 l-11 21 24 -20 c16 -14 20 -15 10 -3 -7 9 -10 22 -6 27 3
7 0 8 -10 5 -12 -5 -14 -2 -8 12 4 11 14 25 22 32 14 11 13 12 -6 3 -27 -13
-36 -14 -28 -2 3 5 1 12 -5 16 -6 4 -8 11 -4 16 3 5 9 7 14 4 5 -3 12 0 16 6
4 7 3 9 -2 6 -17 -10 -35 9 -38 39 -1 16 -6 36 -11 44 -8 13 -7 13 8 1 22 -17
22 -7 0 14 -11 12 -16 31 -15 64 2 34 0 42 -8 31 -8 -12 -10 -10 -9 10 0 22
-6 61 -11 68 -7 8 -5 29 4 41 8 11 8 13 -1 8 -6 -4 -15 -2 -19 4 -4 8 -3 9 4
5 7 -4 12 -2 12 3 0 6 -4 11 -9 11 -4 0 -6 11 -3 25 2 14 8 22 12 20 5 -3 11
-1 14 4 7 10 -13 9 -29 -1 -6 -4 -11 1 -12 10 -3 32 -12 72 -19 84 -4 7 2 5
13 -5 16 -14 20 -15 20 -2 0 8 -2 13 -5 10 -2 -2 -12 3 -20 12 -19 18 -23 56
-9 75 6 9 7 7 2 -7 -5 -15 -3 -17 6 -8 14 14 3 34 -16 26 -9 -3 -15 1 -15 10
0 10 7 13 20 10 12 -3 20 0 20 6 0 7 -4 10 -8 7 -12 -7 -35 10 -38 29 -2 11 3
15 12 11 11 -4 12 -2 2 14 -7 10 -15 17 -19 14 -9 -5 -5 20 6 49 4 10 3 17 -5
17 -6 0 -9 -4 -5 -9 3 -5 0 -13 -7 -17 -7 -4 -10 -4 -6 1 4 4 3 16 -3 26 -7
14 -6 17 4 13 8 -3 14 2 14 10 0 8 -4 13 -8 11 -8 -6 -19 32 -11 40 10 9 11
35 2 40 -5 3 -7 -4 -5 -15 2 -11 0 -18 -6 -15 -5 4 -7 10 -4 15 3 5 1 11 -5
15 -15 9 -2 25 15 18 8 -3 15 0 15 6 0 6 -3 10 -7 10 -18 -3 -36 1 -30 7 3 4
0 19 -8 34 -14 26 -13 27 11 24 21 -2 23 0 13 12 -14 17 -23 19 -13 2 4 -7 3
-8 -4 -4 -6 4 -9 13 -6 21 4 8 11 12 17 8 6 -3 7 -1 3 6 -6 9 -11 9 -24 -1
-14 -11 -15 -10 -9 5 4 10 7 21 7 23 0 3 6 2 13 -2 9 -6 9 -5 0 8 -7 8 -9 19
-5 23 4 5 1 5 -6 1 -7 -4 -10 -11 -7 -16 3 -5 1 -11 -4 -15 -6 -3 -8 4 -6 17
3 12 -1 26 -8 31 -8 6 -7 7 5 3 13 -4 15 -1 11 12 -4 9 -11 20 -16 24 -6 3
-11 15 -12 25 0 10 -5 25 -10 32 -5 10 -4 12 3 7 7 -4 12 -1 12 9 0 10 5 13
12 9 7 -4 8 -3 4 5 -6 9 -11 9 -23 -1 -14 -11 -15 -10 -8 11 4 14 3 21 -3 17
-5 -3 -8 7 -6 26 2 18 -1 35 -6 38 -6 4 -12 20 -14 36 -2 16 -5 29 -6 29 -1 0
-3 8 -5 18 -2 9 0 15 5 12 4 -3 11 2 14 11 4 9 2 13 -5 8 -6 -4 -15 0 -20 7
-13 20 -11 31 4 23 6 -4 2 3 -10 15 -22 21 -23 21 -576 21 l-554 0 33 -127z
m3784 -123 c0 -5 -2 -10 -4 -10 -3 0 -8 5 -11 10 -3 6 -1 10 4 10 6 0 11 -4
11 -10z m2610 -121 c-6 -10 -9 -23 -8 -30 2 -6 -2 -13 -9 -16 -7 -2 -11 4 -10
16 1 12 5 21 10 21 5 0 7 9 4 19 -3 14 -1 18 9 14 10 -4 11 -10 4 -24z m-2556
-69 c-6 -5 -24 21 -24 34 0 6 6 1 14 -10 8 -10 12 -21 10 -24z m2473 -274 c0
-8 -6 -12 -15 -9 -11 5 -11 7 0 14 7 5 13 9 14 9 0 0 1 -6 1 -14z m-3081 -471
c-3 -18 -19 -22 -24 -6 -2 6 1 11 8 11 6 0 8 5 4 12 -4 6 -3 8 4 5 5 -4 9 -14
8 -22z m2951 -1 c-3 -3 -12 -4 -19 -1 -8 3 -5 6 6 6 11 1 17 -2 13 -5z m3 -26
c0 -4 -7 -8 -15 -8 -8 0 -15 4 -15 8 0 5 7 9 15 9 8 0 15 -4 15 -9z m-3053
-402 c0 -8 -6 -12 -15 -9 -11 5 -11 7 0 14 7 5 13 9 14 9 0 0 1 -6 1 -14z
m-17 -56 c0 -5 -7 -7 -15 -4 -8 4 -15 8 -15 10 0 2 7 4 15 4 8 0 15 -4 15 -10z
m1110 -220 c0 -5 -4 -10 -10 -10 -5 0 -10 5 -10 10 0 6 5 10 10 10 6 0 10 -4
10 -10z m1707 -264 c0 -8 -6 -12 -14 -9 -7 3 -10 9 -7 14 8 14 21 11 21 -5z
m-30 -101 c0 -8 -4 -12 -9 -9 -4 3 -8 9 -8 15 0 5 4 9 8 9 5 0 9 -7 9 -15z
m-1557 -89 c0 -3 -4 -8 -10 -11 -5 -3 -10 -1 -10 4 0 6 5 11 10 11 6 0 10 -2
10 -4z m1507 -93 c-5 -12 -15 -23 -20 -23 -5 0 -4 7 3 15 6 8 9 18 6 23 -3 5
1 9 8 9 11 0 12 -5 3 -24z m-2947 -93 c8 -15 8 -18 -3 -14 -8 3 -14 11 -14 19
0 20 4 19 17 -5z m-41 -162 c-5 -10 -7 -24 -3 -30 4 -7 3 -8 -5 -4 -8 5 -10
-2 -7 -26 3 -18 3 -27 0 -20 -5 10 -9 10 -22 0 -15 -12 -16 -11 -3 5 14 17 18
33 23 78 1 9 8 16 15 16 8 0 9 -5 2 -19z m2881 -152 c0 -3 -4 -8 -10 -11 -5
-3 -10 -1 -10 4 0 6 5 11 10 11 6 0 10 -2 10 -4z m-2974 -213 c-2 -9 -8 -19
-14 -21 -15 -5 -16 14 -2 23 6 4 7 11 4 17 -4 6 -2 8 4 5 5 -4 9 -15 8 -24z
m2907 2 c4 -8 3 -16 -1 -19 -4 -3 -9 4 -9 15 -2 23 3 25 10 4z m-10 -72 c-3
-7 -8 -13 -12 -13 -4 0 -8 6 -8 13 0 8 6 14 13 14 7 0 10 -6 7 -14z m-1097
-83 c0 -12 -4 -16 -9 -11 -5 5 -6 14 -3 20 10 15 12 14 12 -9z m-2801 -129 c0
-17 -3 -32 -6 -35 -4 -5 -5 53 0 62 4 8 7 -2 6 -27z m3839 -39 c2 -4 -4 -8
-14 -8 -10 0 -16 4 -14 8 3 4 9 8 14 8 5 0 11 -4 14 -8z m-14 -57 c0 -12 -19
-12 -23 0 -4 9 -1 12 9 8 7 -3 14 -7 14 -8z m-2925 -25 c3 -6 -1 -7 -9 -4 -18
7 -21 14 -7 14 6 0 13 -4 16 -10z m2885 -110 c0 -5 -2 -10 -4 -10 -3 0 -8 5
-11 10 -3 6 -1 10 4 10 6 0 11 -4 11 -10z m-2935 -58 c-2 -3 0 -13 6 -23 6
-12 6 -19 0 -19 -5 0 -18 -3 -28 -6 -11 -4 -14 -3 -7 3 6 4 10 17 9 29 -1 11
5 21 12 21 7 0 11 -2 8 -5z m-59 -227 c1 -7 -4 -16 -12 -19 -11 -4 -12 -1 -5
13 6 10 8 21 6 25 -3 3 -2 4 2 1 4 -3 8 -12 9 -20z m2889 -103 c-2 -9 -4 -17
-6 -17 -1 0 -3 -9 -4 -21 -3 -26 -34 -74 -49 -74 -6 0 -5 4 3 9 8 5 11 16 8
24 -4 12 -2 14 10 10 11 -4 14 -2 9 5 -4 7 -2 12 5 12 8 0 8 4 -1 15 -7 8 -8
15 -2 15 5 0 8 14 7 30 -2 24 0 28 10 20 7 -6 12 -19 10 -28z m-2925 -46 c0
-2 -7 -7 -16 -10 -8 -3 -12 -2 -9 4 6 10 25 14 25 6z m-65 -226 c3 -5 1 -10
-4 -10 -6 0 -11 5 -11 10 0 6 2 10 4 10 3 0 8 -4 11 -10z m-390 -319 c3 -5 0
-13 -6 -17 -7 -4 -9 -3 -5 4 3 5 0 13 -6 15 -9 4 -10 6 -1 6 6 1 14 -3 18 -8z
m2515 -2 c0 -5 5 -7 12 -3 7 4 8 3 4 -4 -4 -6 -13 -9 -21 -5 -17 6 -20 23 -5
23 6 0 10 -5 10 -11z m320 0 c0 -5 5 -7 12 -3 7 4 8 3 4 -4 -4 -6 -13 -9 -21
-5 -17 6 -20 23 -5 23 6 0 10 -5 10 -11z m-570 -19 c0 -5 -2 -10 -4 -10 -3 0
-8 5 -11 10 -3 6 -1 10 4 10 6 0 11 -4 11 -10z"/>
<path d="M4000 5876 c7 -7 13 -7 20 0 6 6 3 10 -10 10 -13 0 -16 -4 -10 -10z"/>
<path d="M4005 5851 c-9 -15 15 -25 28 -12 9 9 7 10 -7 5 -13 -5 -17 -4 -12 4
4 7 5 12 2 12 -3 0 -7 -4 -11 -9z"/>
<path d="M6730 5846 c0 -2 7 -7 16 -10 8 -3 12 -2 9 4 -6 10 -25 14 -25 6z"/>
<path d="M1387 5819 c7 -7 15 -10 18 -7 3 3 -2 9 -12 12 -14 6 -15 5 -6 -5z"/>
<path d="M6725 5800 c-3 -5 -2 -10 4 -10 5 0 13 5 16 10 3 6 2 10 -4 10 -5 0
-13 -4 -16 -10z"/>
<path d="M1396 5792 c-2 -4 -1 -14 4 -22 7 -11 9 -9 7 8 -1 24 -3 26 -11 14z"/>
<path d="M1430 5602 c0 -4 9 -13 20 -20 19 -12 20 -11 8 8 -13 20 -28 27 -28
12z"/>
<path d="M6620 5410 c-8 -5 -10 -10 -5 -10 6 0 17 5 25 10 8 5 11 10 5 10 -5
0 -17 -5 -25 -10z"/>
<path d="M1482 5387 c10 -8 14 -18 10 -22 -4 -5 -1 -5 6 -1 17 10 15 14 -10
26 -21 10 -21 10 -6 -3z"/>
<path d="M6615 5381 c-6 -11 13 -26 22 -17 4 3 1 6 -6 6 -7 0 -9 5 -6 10 3 6
4 10 1 10 -3 0 -7 -4 -11 -9z"/>
<path d="M6590 5338 c0 -11 28 -10 35 1 3 6 -4 9 -15 8 -11 -1 -20 -5 -20 -9z"/>
<path d="M6594 5308 c-4 -7 -9 -20 -9 -30 -1 -13 2 -15 16 -7 26 14 31 25 15
38 -11 9 -16 9 -22 -1z m20 -19 c-3 -5 -10 -7 -15 -3 -5 3 -7 10 -3 15 3 5 10
7 15 3 5 -3 7 -10 3 -15z"/>
<path d="M4165 5280 c-16 -7 -17 -9 -3 -9 9 -1 20 4 23 9 7 11 7 11 -20 0z"/>
<path d="M1507 5259 c7 -7 15 -10 18 -7 3 3 -2 9 -12 12 -14 6 -15 5 -6 -5z"/>
<path d="M4195 5221 c-3 -5 -2 -12 3 -15 5 -3 9 1 9 9 0 17 -3 19 -12 6z"/>
<path d="M6570 5161 c0 -7 -4 -10 -9 -6 -5 3 -12 1 -16 -5 -3 -5 1 -10 9 -10
17 0 31 18 22 27 -3 4 -6 1 -6 -6z"/>
<path d="M4195 5141 c-3 -5 -2 -12 3 -15 5 -3 9 1 9 9 0 17 -3 19 -12 6z"/>
<path d="M6540 5123 c0 -6 8 -17 18 -24 16 -13 16 -13 2 6 -8 11 -16 22 -17
24 -2 2 -3 0 -3 -6z"/>
<path d="M4207 5104 c-3 -4 -2 -14 3 -24 5 -10 7 -20 5 -24 -3 -3 -2 -4 2 -1
3 3 12 -3 20 -13 8 -9 5 -1 -6 19 -11 20 -18 39 -14 42 3 4 4 7 1 7 -2 0 -8
-3 -11 -6z"/>
<path d="M1553 4975 c0 -8 3 -13 5 -10 3 3 12 -1 20 -8 13 -11 14 -9 1 11 -16
26 -26 28 -26 7z"/>
<path d="M4240 4960 c6 -11 13 -20 16 -20 2 0 0 9 -6 20 -6 11 -13 20 -16 20
-2 0 0 -9 6 -20z"/>
<path d="M4256 4922 c-3 -5 1 -9 9 -9 8 0 15 4 15 9 0 4 -4 8 -9 8 -6 0 -12
-4 -15 -8z"/>
<path d="M1577 4880 c3 -11 7 -20 9 -20 2 0 4 9 4 20 0 11 -4 20 -9 20 -5 0
-7 -9 -4 -20z"/>
<path d="M4275 4861 c-3 -5 -2 -12 3 -15 5 -3 9 1 9 9 0 17 -3 19 -12 6z"/>
<path d="M1614 4799 c-3 -6 -2 -15 3 -20 5 -5 9 -1 9 11 0 23 -2 24 -12 9z"/>
<path d="M1605 4733 c2 -10 4 -18 5 -18 1 0 3 -8 5 -19 5 -27 21 -40 30 -25 5
8 4 10 -3 5 -7 -4 -13 -2 -13 3 -2 14 -6 29 -9 36 -1 3 -3 9 -4 14 0 5 -4 12
-8 16 -3 4 -5 -1 -3 -12z"/>
<path d="M1633 4735 c0 -8 4 -12 9 -9 5 3 6 10 3 15 -9 13 -12 11 -12 -6z"/>
<path d="M4304 4729 c-4 -7 -3 -9 4 -5 5 3 13 0 15 -6 4 -9 6 -10 6 -1 1 17
-16 25 -25 12z"/>
<path d="M4335 4600 c3 -5 8 -10 11 -10 2 0 4 5 4 10 0 6 -5 10 -11 10 -5 0
-7 -4 -4 -10z"/>
<path d="M1635 4581 c-3 -6 5 -15 17 -21 21 -10 21 -10 6 3 -10 8 -15 17 -11
20 3 4 4 7 0 7 -3 0 -8 -4 -12 -9z"/>
<path d="M4340 4575 c0 -2 6 -8 13 -14 10 -8 14 -7 14 2 0 8 -6 14 -14 14 -7
0 -13 -1 -13 -2z"/>
<path d="M6395 4550 c3 -5 8 -10 11 -10 2 0 4 5 4 10 0 6 -5 10 -11 10 -5 0
-7 -4 -4 -10z"/>
<path d="M4370 4520 c-9 -6 -10 -10 -3 -10 6 0 15 5 18 10 8 12 4 12 -15 0z"/>
<path d="M6373 4502 c-1 -23 -11 -60 -18 -72 -3 -6 -1 -10 4 -10 6 0 11 7 11
15 0 8 4 15 9 15 5 0 7 8 4 18 -3 12 4 23 19 30 13 7 16 11 7 8 -9 -2 -21 0
-26 5 -5 5 -9 2 -10 -9z"/>
<path d="M1654 4495 c3 -23 22 -39 31 -26 4 7 1 10 -7 9 -8 -2 -12 4 -10 15 2
9 -1 17 -7 17 -5 0 -8 -7 -7 -15z"/>
<path d="M1670 4416 c7 -7 13 -7 20 0 6 6 3 10 -10 10 -13 0 -16 -4 -10 -10z"/>
<path d="M4410 4386 c0 -2 7 -7 16 -10 8 -3 12 -2 9 4 -6 10 -25 14 -25 6z"/>
<path d="M1708 4253 c7 -3 16 -2 19 1 4 3 -2 6 -13 5 -11 0 -14 -3 -6 -6z"/>
<path d="M3395 4240 c-3 -5 -1 -10 4 -10 6 0 11 5 11 10 0 6 -2 10 -4 10 -3 0
-8 -4 -11 -10z"/>
<path d="M1706 4232 c-3 -6 -1 -14 5 -17 15 -10 25 3 12 16 -7 7 -13 7 -17 1z"/>
<path d="M3361 4234 c1 -5 0 -11 -1 -14 -6 -17 -7 -40 -2 -40 4 0 13 9 19 19
10 16 9 22 -3 32 -8 7 -14 8 -13 3z"/>
<path d="M6303 4213 c4 -3 2 -12 -4 -20 -9 -9 -8 -13 0 -13 6 0 11 5 11 11 0
5 6 7 13 3 8 -5 8 -2 -2 9 -7 9 -16 17 -19 17 -3 0 -2 -3 1 -7z"/>
<path d="M3343 4098 c-19 -25 -26 -41 -15 -34 5 3 13 0 16 -6 3 -7 3 -2 -1 12
-5 23 -5 24 13 10 17 -14 18 -14 6 2 -10 13 -10 17 0 21 8 3 8 6 2 6 -6 1 -16
-5 -21 -11z"/>
<path d="M6267 4053 c-11 -10 -8 -20 7 -26 8 -3 13 0 12 8 -3 19 -11 27 -19
18z"/>
<path d="M3319 4045 c-1 -3 -2 -8 -3 -12 -1 -5 -4 -13 -8 -19 -7 -11 -3 -52 6
-61 7 -8 26 7 26 20 0 8 -3 8 -9 -2 -5 -8 -11 -9 -15 -3 -3 6 4 18 16 28 15
11 17 14 6 11 -22 -8 -24 9 -2 21 15 8 15 10 0 15 -9 4 -17 4 -17 2z"/>
<path d="M1763 3935 c0 -8 4 -12 9 -9 4 3 8 9 8 15 0 5 -4 9 -8 9 -5 0 -9 -7
-9 -15z"/>
<path d="M3296 3931 c-4 -6 -2 -11 5 -11 7 0 4 -7 -7 -15 -10 -8 -15 -15 -10
-15 5 0 4 -6 -2 -13 -6 -7 -10 -22 -8 -32 2 -11 -4 -30 -12 -43 -14 -22 -13
-25 8 -45 13 -12 19 -15 14 -7 -6 8 -10 22 -9 30 1 8 3 21 3 28 1 7 6 11 11 7
5 -3 13 -1 16 5 4 6 1 9 -6 8 -18 -4 -18 41 0 52 13 8 13 9 2 10 -12 0 -11 3
2 13 11 8 14 17 8 26 -6 9 -11 10 -15 2z"/>
<path d="M6238 3933 c7 -3 16 -2 19 1 4 3 -2 6 -13 5 -11 0 -14 -3 -6 -6z"/>
<path d="M6214 3875 c1 -8 6 -18 11 -22 4 -4 5 -2 1 5 -5 8 -1 12 11 12 15 0
16 2 3 10 -21 14 -29 12 -26 -5z"/>
<path d="M1807 3744 c-8 -8 3 -34 15 -34 7 0 6 5 -1 13 -6 8 -8 17 -4 20 3 4
4 7 1 7 -2 0 -7 -3 -11 -6z"/>
<path d="M4573 3705 c0 -8 4 -12 9 -9 5 3 6 10 3 15 -9 13 -12 11 -12 -6z"/>
<path d="M4588 3663 c7 -3 16 -2 19 1 4 3 -2 6 -13 5 -11 0 -14 -3 -6 -6z"/>
<path d="M3207 3570 c9 -10 10 -17 2 -27 -7 -7 -7 -13 -3 -13 5 0 15 10 23 23
7 12 10 19 6 15 -5 -4 -15 -2 -24 4 -13 10 -14 10 -4 -2z"/>
<path d="M4633 3565 c0 -8 4 -12 9 -9 5 3 6 10 3 15 -9 13 -12 11 -12 -6z"/>
<path d="M1857 3515 c-4 -8 -3 -16 1 -19 4 -3 9 4 9 15 2 23 -3 25 -10 4z"/>
<path d="M1875 3479 c-4 -6 -5 -12 -2 -15 2 -3 7 2 10 11 7 17 1 20 -8 4z"/>
<path d="M1890 3360 c-9 -6 -10 -10 -3 -10 6 0 15 5 18 10 8 12 4 12 -15 0z"/>
<path d="M1886 3328 c3 -5 10 -6 15 -3 13 9 11 12 -6 12 -8 0 -12 -4 -9 -9z"/>
<path d="M3176 3313 c-6 -14 -5 -15 5 -6 7 7 10 15 7 18 -3 3 -9 -2 -12 -12z"/>
<path d="M1910 3301 c0 -6 4 -13 10 -16 6 -3 7 1 4 9 -7 18 -14 21 -14 7z"/>
<path d="M4682 3290 c7 -11 17 -20 22 -20 5 0 1 9 -9 20 -10 11 -20 20 -22 20
-2 0 2 -9 9 -20z"/>
<path d="M6070 3280 c0 -5 5 -10 10 -10 6 0 10 5 10 10 0 6 -4 10 -10 10 -5 0
-10 -4 -10 -10z"/>
<path d="M4696 3247 c3 -10 9 -15 12 -12 3 3 0 11 -7 18 -10 9 -11 8 -5 -6z"/>
<path d="M1925 3140 c-3 -5 -1 -10 4 -10 6 0 11 5 11 10 0 6 -2 10 -4 10 -3 0
-8 -4 -11 -10z"/>
<path d="M4720 3135 c0 -2 6 -8 13 -14 10 -8 14 -7 14 2 0 8 -6 14 -14 14 -7
0 -13 -1 -13 -2z"/>
<path d="M3094 3113 c1 -7 8 -18 14 -23 9 -7 9 -7 2 2 -6 7 -4 15 6 23 13 9
13 11 -4 11 -11 0 -19 -6 -18 -13z"/>
<path d="M6017 3117 c-3 -8 1 -14 8 -14 7 0 11 6 8 14 -3 7 -6 13 -8 13 -2 0
-5 -6 -8 -13z"/>
<path d="M4737 3091 c6 -7 9 -19 7 -26 -3 -6 1 -17 9 -23 11 -9 14 -8 14 3 0
8 -4 12 -9 9 -11 -7 -10 10 2 24 6 6 7 10 4 7 -4 -3 -14 1 -23 7 -13 10 -14
10 -4 -1z"/>
<path d="M1946 3058 c3 -5 10 -6 15 -3 13 9 11 12 -6 12 -8 0 -12 -4 -9 -9z"/>
<path d="M3090 3019 c0 -5 -4 -8 -9 -5 -11 7 -9 -21 2 -29 4 -3 5 -2 2 2 -3 3
2 15 12 25 9 11 11 18 5 18 -7 0 -12 -5 -12 -11z"/>
<path d="M4763 2999 c-2 -23 3 -25 10 -4 4 8 3 16 -1 19 -4 3 -9 -4 -9 -15z"/>
<path d="M5969 2978 c-1 -2 -2 -15 -3 -29 -2 -14 -5 -30 -9 -35 -3 -6 -2 -16
4 -24 5 -8 9 -10 10 -5 0 6 2 24 3 40 1 17 6 36 10 43 4 7 2 12 -3 12 -6 0
-11 -1 -12 -2z"/>
<path d="M5990 2950 c0 -5 5 -10 11 -10 5 0 7 5 4 10 -3 6 -8 10 -11 10 -2 0
-4 -4 -4 -10z"/>
<path d="M3050 2935 c-13 -16 -6 -35 13 -34 9 0 9 2 0 6 -7 2 -13 9 -13 14 0
4 6 7 13 5 6 -1 9 -1 4 1 -4 3 -5 9 -1 14 8 14 -2 10 -16 -6z"/>
<path d="M4790 2920 c-9 -6 -10 -10 -3 -10 6 0 15 5 18 10 8 12 4 12 -15 0z"/>
<path d="M1973 2873 c0 -9 4 -10 14 -2 7 6 13 12 13 14 0 1 -6 2 -13 2 -8 0
-14 -6 -14 -14z"/>
<path d="M4798 2863 c7 -3 16 -2 19 1 4 3 -2 6 -13 5 -11 0 -14 -3 -6 -6z"/>
<path d="M4806 2834 c-3 -8 -2 -13 3 -9 5 3 11 -1 14 -7 3 -7 4 -3 4 10 -1 25
-12 29 -21 6z"/>
<path d="M4816 2791 c-3 -5 2 -15 12 -22 15 -12 16 -12 5 2 -7 9 -10 19 -6 22
3 4 4 7 0 7 -3 0 -8 -4 -11 -9z"/>
<path d="M3033 2765 c0 -8 4 -12 9 -9 5 3 6 10 3 15 -9 13 -12 11 -12 -6z"/>
<path d="M3010 2691 c0 -6 4 -13 10 -16 6 -3 7 1 4 9 -7 18 -14 21 -14 7z"/>
<path d="M2026 2652 c-3 -5 1 -9 9 -9 8 0 12 4 9 9 -3 4 -7 8 -9 8 -2 0 -6 -4
-9 -8z"/>
<path d="M5880 2581 c0 -6 4 -13 10 -16 6 -3 7 1 4 9 -7 18 -14 21 -14 7z"/>
<path d="M2045 2540 c-3 -5 -1 -10 4 -10 6 0 11 5 11 10 0 6 -2 10 -4 10 -3 0
-8 -4 -11 -10z"/>
<path d="M4885 2530 c-3 -6 1 -7 9 -4 18 7 21 14 7 14 -6 0 -13 -4 -16 -10z"/>
<path d="M4897 2489 c7 -7 15 -10 18 -7 3 3 -2 9 -12 12 -14 6 -15 5 -6 -5z"/>
<path d="M2906 2401 c-3 -5 0 -14 7 -19 10 -8 13 -6 14 9 2 19 -11 26 -21 10z"/>
<path d="M2894 2326 c24 -19 36 -20 36 -4 0 6 -3 8 -6 5 -4 -3 -16 -2 -28 4
-20 10 -20 10 -2 -5z"/>
<path d="M5755 2160 c-3 -5 -1 -10 4 -10 6 0 11 5 11 10 0 6 -2 10 -4 10 -3 0
-8 -4 -11 -10z"/>
<path d="M2833 2125 c0 -8 4 -12 9 -9 5 3 6 10 3 15 -9 13 -12 11 -12 -6z"/>
<path d="M5752 2127 c-10 -12 -10 -17 -1 -23 8 -5 9 -3 4 6 -6 10 -4 12 8 7 9
-3 19 -1 23 5 4 6 3 8 -4 4 -5 -3 -12 -1 -14 5 -2 7 -8 6 -16 -4z"/>
<path d="M5720 2056 c0 -2 7 -9 15 -16 9 -7 15 -8 15 -2 0 5 -7 12 -15 16 -8
3 -15 4 -15 2z"/>
<path d="M2769 1887 c-5 -12 -4 -45 2 -41 4 2 10 -2 12 -8 4 -9 6 -8 6 3 1 8
-5 21 -11 28 -11 11 -9 12 10 6 12 -3 22 -3 22 2 0 7 -38 16 -41 10z"/>
<path d="M2753 1775 c0 -8 4 -12 9 -9 4 3 8 9 8 15 0 5 -4 9 -8 9 -5 0 -9 -7
-9 -15z"/>
<path d="M5666 1763 c-6 -14 -9 -15 -15 -4 -7 10 -9 10 -14 -1 -8 -21 20 -18
40 4 9 10 11 18 6 18 -6 0 -14 -8 -17 -17z"/>
<path d="M5621 1663 c-15 -32 -13 -37 14 -40 19 -3 19 -2 1 8 -14 9 -15 13 -5
19 14 9 22 40 10 40 -4 0 -13 -12 -20 -27z"/>
<path d="M2705 1564 c-20 -22 -22 -30 -14 -47 10 -18 9 -19 -11 -14 -16 4 -20
3 -12 -5 6 -6 18 -8 27 -4 12 4 14 10 6 25 -8 15 -5 24 16 45 14 14 23 26 19
26 -4 0 -18 -12 -31 -26z"/>
<path d="M2670 1419 c0 -5 5 -7 10 -4 6 3 10 8 10 11 0 2 -4 4 -10 4 -5 0 -10
-5 -10 -11z"/>
<path d="M5561 1416 c-9 -11 -9 -16 1 -22 7 -4 10 -4 6 1 -4 4 0 14 10 21 9 7
12 14 6 14 -6 0 -17 -6 -23 -14z"/>
<path d="M2257 1359 c4 -13 8 -18 11 -10 2 7 -1 18 -6 23 -8 8 -9 4 -5 -13z"/>
<path d="M5457 1359 c4 -13 8 -18 11 -10 2 7 -1 18 -6 23 -8 8 -9 4 -5 -13z"/>
<path d="M1510 1361 c0 -5 11 -8 25 -8 30 0 28 6 -4 12 -11 2 -21 0 -21 -4z"/>
<path d="M1580 1360 c-10 -6 -11 -10 -2 -10 22 0 27 -2 41 -13 12 -10 12 -9 0
11 -16 25 -18 26 -39 12z"/>
<path d="M1634 1353 c20 -24 37 -22 35 5 -1 15 -2 14 -6 -1 -5 -18 -5 -18 -26
0 l-22 18 19 -22z"/>
<path d="M1713 1353 c1 -17 4 -19 14 -11 7 6 13 16 13 22 0 6 -4 5 -9 -3 -7
-11 -9 -11 -14 0 -3 8 -4 4 -4 -8z"/>
<path d="M1816 1354 c-4 -9 -4 -19 -1 -22 2 -3 7 3 11 12 4 9 4 19 1 22 -2 3
-7 -3 -11 -12z"/>
<path d="M2026 1358 c3 -5 10 -6 15 -3 13 9 11 12 -6 12 -8 0 -12 -4 -9 -9z"/>
<path d="M2056 1354 c-4 -9 -4 -19 -1 -22 2 -3 7 3 11 12 4 9 4 19 1 22 -2 3
-7 -3 -11 -12z"/>
<path d="M2283 1349 c-2 -23 3 -25 10 -4 4 8 3 16 -1 19 -4 3 -9 -4 -9 -15z"/>
<path d="M2506 1358 c3 -5 10 -6 15 -3 13 9 11 12 -6 12 -8 0 -12 -4 -9 -9z"/>
<path d="M2536 1354 c-4 -9 -4 -19 -1 -22 2 -3 7 3 11 12 4 9 4 19 1 22 -2 3
-7 -3 -11 -12z"/>
<path d="M2593 1357 c0 -8 6 -14 14 -14 9 0 10 4 2 14 -6 7 -12 13 -14 13 -1
0 -2 -6 -2 -13z"/>
<path d="M4470 1358 c0 -4 12 -6 28 -4 15 1 35 -1 44 -6 13 -6 16 -5 13 4 -6
14 -85 19 -85 6z"/>
<path d="M4800 1355 c-7 -9 -8 -15 -2 -15 5 0 12 7 16 15 3 8 4 15 2 15 -2 0
-9 -7 -16 -15z"/>
<path d="M5055 1360 c-3 -5 -1 -10 4 -10 6 0 11 5 11 10 0 6 -2 10 -4 10 -3 0
-8 -4 -11 -10z"/>
<path d="M5080 1350 c-6 -11 -8 -20 -6 -20 3 0 10 9 16 20 6 11 8 20 6 20 -3
0 -10 -9 -16 -20z"/>
<path d="M5116 1354 c-20 -19 -20 -25 -2 -18 8 3 17 12 20 20 7 18 1 18 -18
-2z"/>
<path d="M5375 1360 c-3 -5 -1 -10 4 -10 6 0 11 5 11 10 0 6 -2 10 -4 10 -3 0
-8 -4 -11 -10z"/>
<path d="M5400 1350 c-6 -11 -8 -20 -6 -20 3 0 10 9 16 20 6 11 8 20 6 20 -3
0 -10 -9 -16 -20z"/>
<path d="M1464 745 l0 -115 2038 0 c1121 0 2038 3 2039 8 1 10 1 195 0 210 -1
9 -416 12 -2039 12 l-2037 0 -1 -115z"/>
</g>
</svg>
