<svg xmlns="http://www.w3.org/2000/svg" viewBox="0 0 16.27 16.27">
  <defs>
    <style>
      .cls-1 {
        fill: #d4d2d2;
      }
    </style>
  </defs>
  <g id="close" transform="translate(0 0)">
    <g id="Group_19" data-name="Group 19" transform="translate(0 0)">
      <g id="Group_18" data-name="Group 18" transform="translate(0 0)">
        <path id="Path_81" data-name="Path 81" class="cls-1" d="M16.078.193a.657.657,0,0,0-.929,0L.193,15.148a.657.657,0,1,0,.929.929L16.078,1.122A.657.657,0,0,0,16.078.193Z" transform="translate(0 0)"/>
      </g>
    </g>
    <g id="Group_21" data-name="Group 21" transform="translate(0 0)">
      <g id="Group_20" data-name="Group 20" transform="translate(0 0)">
        <path id="Path_82" data-name="Path 82" class="cls-1" d="M16.078,15.149,1.122.194a.657.657,0,0,0-.929.929L15.148,16.079a.657.657,0,1,0,.929-.929Z" transform="translate(0 -0.001)"/>
      </g>
    </g>
  </g>
</svg>
