<svg id="error" xmlns="http://www.w3.org/2000/svg" viewBox="0 0 76 76">
  <defs>
    <style>
      .cls-1 {
        fill: #cc0505;
      }
    </style>
  </defs>
  <path id="Path_175" data-name="Path 175" class="cls-1" d="M38,0A38,38,0,1,0,76,38,38.043,38.043,0,0,0,38,0Zm0,73.077A35.077,35.077,0,1,1,73.077,38,35.118,35.118,0,0,1,38,73.077Z"/>
  <path id="Path_176" data-name="Path 176" class="cls-1" d="M44.8,16.428a1.46,1.46,0,0,0-2.067,0L30.615,28.549,18.495,16.428a1.461,1.461,0,0,0-2.067,2.067L28.549,30.615,16.428,42.736A1.461,1.461,0,1,0,18.495,44.8L30.615,32.682,42.736,44.8A1.461,1.461,0,0,0,44.8,42.736L32.682,30.615,44.8,18.495A1.46,1.46,0,0,0,44.8,16.428Z" transform="translate(7.384 7.384)"/>
</svg>
