<svg xmlns="http://www.w3.org/2000/svg" viewBox="0 0 65 65">
  <defs>
    <style>
      .cls-1 {
        fill: #7a9ade;
      }

      .cls-2 {
        fill: #3c58bf;
      }

      .cls-3 {
        fill: #293688;
      }

      .cls-4 {
        fill: #ffbc00;
      }

      .cls-5 {
        fill: #f7981d;
      }

      .cls-6 {
        fill: #ed7c00;
      }

      .cls-7 {
        fill: #051244;
      }
    </style>
  </defs>
  <g id="Group_39" data-name="Group 39" transform="translate(-192 -516)">
    <rect id="Rectangle_17" data-name="Rectangle 17" class="cls-1" width="65" height="65" rx="10" transform="translate(192 516)"/>
    <g id="visa" transform="translate(196 365.4)">
      <path id="Path_103" data-name="Path 103" class="cls-2" d="M184.8,195.477l2.68-15.077h4.188l-2.6,15.077Z" transform="translate(-165.451 -4.297)"/>
      <path id="Path_104" data-name="Path 104" class="cls-3" d="M184.8,195.477l3.434-15.077h3.434l-2.6,15.077Z" transform="translate(-165.451 -4.297)"/>
      <path id="Path_105" data-name="Path 105" class="cls-2" d="M260.815,176.27a10.624,10.624,0,0,0-3.853-.67c-4.188,0-7.2,2.094-7.2,5.109,0,2.262,2.094,3.434,3.769,4.188s2.178,1.256,2.178,1.926c0,1.005-1.34,1.508-2.513,1.508a9.1,9.1,0,0,1-4.021-.838l-.586-.251L248,190.677a13.582,13.582,0,0,0,4.774.838c4.439,0,7.371-2.094,7.371-5.277,0-1.759-1.089-3.1-3.6-4.188-1.508-.754-2.429-1.173-2.429-1.927,0-.67.754-1.34,2.429-1.34a7.682,7.682,0,0,1,3.183.586l.419.168.67-3.267Z" transform="translate(-222.034)"/>
      <path id="Path_106" data-name="Path 106" class="cls-3" d="M260.815,176.27a10.624,10.624,0,0,0-3.853-.67c-4.188,0-6.45,2.094-6.45,5.109,0,2.262,1.34,3.434,3.015,4.188s2.178,1.256,2.178,1.926c0,1.005-1.34,1.508-2.513,1.508a9.1,9.1,0,0,1-4.021-.838l-.586-.251L248,190.677a13.582,13.582,0,0,0,4.774.838c4.439,0,7.371-2.094,7.371-5.277,0-1.759-1.089-3.1-3.6-4.188-1.508-.754-2.429-1.173-2.429-1.927,0-.67.754-1.34,2.429-1.34a7.682,7.682,0,0,1,3.183.586l.419.168.67-3.267Z" transform="translate(-222.034)"/>
      <path id="Path_107" data-name="Path 107" class="cls-2" d="M366.86,180.4c-1.005,0-1.759.084-2.178,1.089L358.4,195.477h4.523l.838-2.513h5.361l.5,2.513h4.021L370.127,180.4Zm-1.927,10.051c.251-.754,1.675-4.439,1.675-4.439s.335-.921.586-1.508l.251,1.424s.838,3.769,1.005,4.607h-3.518Z" transform="translate(-320.875 -4.297)"/>
      <path id="Path_108" data-name="Path 108" class="cls-3" d="M367.865,180.4c-1.005,0-1.759.084-2.178,1.089L358.4,195.477h4.523l.838-2.513h5.361l.5,2.513h4.021L370.127,180.4Zm-2.932,10.051c.335-.838,1.675-4.439,1.675-4.439s.335-.921.586-1.508l.251,1.424s.838,3.769,1.005,4.607h-3.518Z" transform="translate(-320.875 -4.297)"/>
      <path id="Path_109" data-name="Path 109" class="cls-2" d="M57.482,191.67l-.419-2.178a12.142,12.142,0,0,0-5.863-6.617l3.769,13.4h4.523L66.277,181.2H61.754Z" transform="translate(-45.839 -5.014)"/>
      <path id="Path_110" data-name="Path 110" class="cls-3" d="M57.482,191.67l-.419-2.178a12.142,12.142,0,0,0-5.863-6.617l3.769,13.4h4.523L66.277,181.2H62.592Z" transform="translate(-45.839 -5.014)"/>
      <path id="Path_111" data-name="Path 111" class="cls-4" d="M0,180.4l.754.168c5.361,1.256,9.046,4.439,10.47,8.209l-1.508-7.12c-.251-1.005-1.005-1.256-1.927-1.256Z" transform="translate(0 -4.297)"/>
      <path id="Path_112" data-name="Path 112" class="cls-5" d="M0,180.4H0c5.361,1.256,9.8,4.523,11.224,8.292L9.8,182.745a2.045,2.045,0,0,0-2.01-1.591Z" transform="translate(0 -4.297)"/>
      <path id="Path_113" data-name="Path 113" class="cls-6" d="M0,180.4H0c5.361,1.256,9.8,4.523,11.224,8.292l-1.005-3.267A2.954,2.954,0,0,0,8.46,183Z" transform="translate(0 -4.297)"/>
      <g id="Group_24" data-name="Group 24" transform="translate(5.444 177.778)">
        <path id="Path_114" data-name="Path 114" class="cls-7" d="M62.386,204.776l-2.848-2.848-1.34,3.183-.335-2.094A12.142,12.142,0,0,0,52,196.4l3.769,13.4h4.523Z" transform="translate(-52 -196.4)"/>
        <path id="Path_115" data-name="Path 115" class="cls-7" d="M189.072,292.885l-3.6-3.685-.67,3.685Z" transform="translate(-170.896 -279.484)"/>
        <path id="Path_116" data-name="Path 116" class="cls-7" d="M255.287,274.8h0c.335.335.5.586.419.921,0,1.005-1.34,1.508-2.513,1.508a9.1,9.1,0,0,1-4.021-.838l-.586-.251L248,279.574a13.581,13.581,0,0,0,4.774.838c2.68,0,4.858-.754,6.115-2.094Z" transform="translate(-227.479 -266.591)"/>
        <path id="Path_117" data-name="Path 117" class="cls-7" d="M364,230.573h3.937l.838-2.513h5.361l.5,2.513h4.021l-1.424-6.115-5.026-4.858.251,1.34s.838,3.769,1.005,4.607h-3.518c.335-.838,1.675-4.439,1.675-4.439s.335-.921.586-1.508" transform="translate(-331.333 -217.171)"/>
      </g>
    </g>
  </g>
</svg>
