<svg xmlns="http://www.w3.org/2000/svg" xmlns:xlink="http://www.w3.org/1999/xlink" viewBox="0 0 56 56">
  <defs>
    <style>
      .cls-1 {
        fill: #fff;
      }

      .cls-2 {
        fill: rgba(246,246,246,0.21);
      }

      .cls-3 {
        clip-path: url(#clip-path);
      }

      .cls-17, .cls-4 {
        fill: #1f2d37;
      }

      .cls-5 {
        opacity: 0.75;
      }

      .cls-6 {
        clip-path: url(#clip-path-2);
      }

      .cls-7 {
        fill: #4d62a9;
      }

      .cls-8 {
        fill: #2d314e;
      }

      .cls-9 {
        fill: #495294;
      }

      .cls-10 {
        fill: #3d4476;
      }

      .cls-11 {
        fill: #edbbad;
      }

      .cls-12 {
        fill: #814c40;
      }

      .cls-13 {
        fill: #da9687;
      }

      .cls-14 {
        fill: #ae7467;
      }

      .cls-15 {
        fill: #363f57;
      }

      .cls-16 {
        fill: #313644;
      }

      .cls-17 {
        fill-rule: evenodd;
      }

      .cls-18 {
        clip-path: url(#clip-path-3);
      }
    </style>
    <clipPath id="clip-path">
      <circle id="Ellipse_1" data-name="Ellipse 1" class="cls-1" cx="26" cy="26" r="26" transform="translate(0)"/>
    </clipPath>
    <clipPath id="clip-path-2">
      <rect id="Rectangle_9" data-name="Rectangle 9" width="68.417" height="30.245"/>
    </clipPath>
    <clipPath id="clip-path-3">
      <rect id="Rectangle_14" data-name="Rectangle 14" width="66.19" height="10.643"/>
    </clipPath>
  </defs>
  <g id="Group_43" data-name="Group 43" transform="translate(-83 -227)">
    <g id="Group_16" data-name="Group 16" transform="translate(-435 -40)">
      <circle id="Ellipse_3" data-name="Ellipse 3" class="cls-2" cx="28" cy="28" r="28" transform="translate(518 267)"/>
      <g id="Group_15" data-name="Group 15" transform="translate(60 -38)">
        <circle id="Ellipse_2" data-name="Ellipse 2" class="cls-1" cx="25.35" cy="25.35" r="25.35" transform="translate(460.65 307.65)"/>
        <g id="Mask_Group_1" data-name="Mask Group 1" class="cls-3" transform="translate(460 307)">
          <g id="Group_14" data-name="Group 14" transform="translate(-50.05 -1.95)">
            <path id="Path_41" data-name="Path 41" class="cls-4" d="M144.652,36.7a.624.624,0,0,0-.489-.326c-.38-.706-1.249-.38-1.792-.706-.271-.054-.38-.217-.38-.38a1.865,1.865,0,0,1,.869-.706h.489c.163-.109.271-.217.434-.217.652-.109.652-.38.271-.76a2.077,2.077,0,0,0-.977-.652h-.054a.475.475,0,0,0-.489-.434c-.977-.054-1.195-.923-1.955-1.249-.109-.054.109-.109.109-.217,0-.326.489-.163.543-.38-.6-.109-.6-.109-.706-.489a1.7,1.7,0,0,1,.543-.271c.38.054.543-.38.923-.271.652-.434,1.466-.652,2.172-1.086.217-.109.489-.163.434-.38-.054-.271-.271-.38-.6-.38,0,.109.054.163-.109.271.054-.109.109-.163.109-.271-.489-.38-1.195-.543-1.683-.977a33.99,33.99,0,0,1-4.072-1.738,1.219,1.219,0,0,0-1.14-.326v.054a1.808,1.808,0,0,0-.814-.271c-.163-.109-.38-.217-.434-.434h.054c.434-.326,1.086-.271,1.575-.6,0-.054.054-.054.054-.109a2.243,2.243,0,0,0,.6-.38h0a.874.874,0,0,0,.814-.489c.271-.163.6-.271.217-.6-.109-.38-.217-.652-.76-.652l-.054.054h0a.053.053,0,0,0,.054-.054c.109-.271-.163-.434-.217-.652a1.049,1.049,0,0,1,.652-.489,1.627,1.627,0,0,0,1.032-.652,1.893,1.893,0,0,0,.923-.326,1.555,1.555,0,0,1,1.195-.434c.326.109.543-.163.814-.271V18.13a.458.458,0,0,0-.38-.109v-.109c-.38-.38-.869-.6-1.249-.923a8.39,8.39,0,0,0-1.195-.652c-.434-.163-.76-.543-1.3-.38h0c-.163-.217-.38-.38-.543-.6a7.132,7.132,0,0,0,3.638-1.249c.326,0,.543-.054.434-.326h0a2.085,2.085,0,0,1,.977-.489.689.689,0,0,0,.326-.054H144c-.054-.326-.326-.38-.652-.434-.054-.054-.109-.054-.163-.109-.543.109-.706-.489-1.14-.543l-.163-.163c.054-.271-.217-.38-.326-.543h-.163c-.217-.163-.434-.271-.652-.434l-1.466-1.14a4.5,4.5,0,0,0-.814-.6c-.054-.217.217-.271.326-.38.217-.054.543-.054.163-.271-.543-.271-1.086-.489-1.629-.706-.38-.434-1.086-.326-1.52-.706a5.946,5.946,0,0,1-.6-.543,1.593,1.593,0,0,1-.163-.543c0-.271,0-.652.326-.706.543-.054.163.38.271.543.054.054.109.054.217.109.217-.6-.489-1.086-.217-1.683.054-.054-.109-.217-.163-.217a.253.253,0,0,0-.271.271c.054.271-.054.652-.217.543-.543-.326-.76.217-1.195.109.109.217.217.271.38.217.38-.109.652.109.652.326-.109.434-.326-.054-.543,0a1.585,1.585,0,0,1-.489.109,37.082,37.082,0,0,0-4.072-1.575c-1.14-.271-2.281-.489-3.421-.76a1.95,1.95,0,0,0-.977-.109c-.489-.109-1.032-.271-1.52-.38-.652-.054-1.3-.109-1.9-.163a2.218,2.218,0,0,0-1.195-.163h0l-.054-.054a.168.168,0,0,0-.109.054h-.109a.053.053,0,0,1,.054-.054l.054.054V2.547h0c.109-.38-.109-.489-.489-.489v.271a.57.57,0,0,1-.489-.271.437.437,0,0,0-.489.326l.054.054v.054h0V2.438l-.054-.054c-.977-.109-1.9-.217-2.824-.271l-3.1-.163V2h0l.054-.054a9.288,9.288,0,0,0-2.118-.163,7.811,7.811,0,0,0-2.009.271c-.109-.054-.271-.163-.38-.109-.543.326-1.357-.271-1.9.326,0,.054-.217.054-.217,0-.217-.652-.869-.271-1.3-.38h-.977a3.321,3.321,0,0,0-.652-.271h-.163q-.163-.244-.326,0a1.511,1.511,0,0,0-1.249.543c-.109.271-.326.217-.434.271-.163.054-.271-.054-.38-.109.326.109.489,0,.6-.543-.163-.163-.38-.326-.326-.543-.054,0-.109-.054-.163,0a15.8,15.8,0,0,0-2.769-.163,1.611,1.611,0,0,0-.869-.109A14.6,14.6,0,0,1,94.915.809H91.168a2.536,2.536,0,0,0-.923-.163H88.073a1.785,1.785,0,0,1-.326.163A10.228,10.228,0,0,0,84.6.429C83.186.32,81.774.483,80.363.266a1.211,1.211,0,0,0-.977.217,2.066,2.066,0,0,0-.814-.271C77.648.212,76.724.157,75.8.1c-2.226-.109-4.4.054-6.624-.163-1.086-.109-2.172,0-3.258,0a30.245,30.245,0,0,0-5.43.109c-.054.054-.109.163-.163.217V.32h0V.266c0-.109.054-.163.163-.217A12.185,12.185,0,0,0,57.666-.06c-3.855,0-7.548,0-11.294.217A.689.689,0,0,1,46.046.1a13.785,13.785,0,0,0-2.118,0c-.109,0-.163-.054-.217-.054C41.919.212,40.127.1,38.335.266,36.923.375,35.566.483,34.208.7a11.568,11.568,0,0,0-1.357.163c-.652.163-1.3.163-1.955.271-1.086.109-2.226-.163-3.312.271a17.129,17.129,0,0,0-3.312.706,15.528,15.528,0,0,0-3.584.706,7.939,7.939,0,0,0-2.5.814A14.964,14.964,0,0,0,13.249,5.75c-.543.38-1.466.489-1.629,1.249h-.489a3.587,3.587,0,0,1-.814.271c-.76-.217-1.032.434-1.738.543.434.163.869-.163.977.217.163.326-.163.434-.38.652a.692.692,0,0,0-.217.814H8.471c-.543-.109-.923.217-1.357.434-.109.054-.109.271,0,.217.489-.054.706.434,1.195.38a8.76,8.76,0,0,1,1.195,0c-.217.434-.652.163-.869.38h1.683c.434,0,.869.054,1.3.054a4.778,4.778,0,0,0,.814.271c-.109.271.271.489.163.652-.6.706,0,.6.489.652h.652c.054,0,.054,0,.109.054a1.463,1.463,0,0,0,.814.271c.163.489-.489.489-.652.814-.543.326-1.3.38-1.629.977-.652.054-.76.6-1.14.869v.163h0v-.163c-.434,0-.543.271-.489.6-.054.109-.109.163-.163.271-.923,1.086-2.824,1.3-3.367,2.769a1.792,1.792,0,0,0,1.195-.054h1.629a2.658,2.658,0,0,0,1.466.326,2.768,2.768,0,0,0,1.357.271c.38.217,1.086-.054,1.3.543h-.163c-.109,0-.326,0-.38.054a9.167,9.167,0,0,1-2.063,1.032c-.543.163-.977.434-1.52.652a.493.493,0,0,0-.38.163,5.526,5.526,0,0,0-1.412.6,1.714,1.714,0,0,0,1.195-.271.492.492,0,0,1,.326.6c-.6.434-.923,1.086-1.629,1.412-.38.217-.869.217-1.14.543-.054.054-.109.109-.163.109-.434.163-.38.6-.814.706L5.376,26c-.489.217-1.14.109-1.575.543.326.217.543,0,.814,0s.652-.217.76.271c-.6.326-1.575.271-1.629,1.14a1.394,1.394,0,0,1-.652.271,2.634,2.634,0,0,0-1.14.434c-.706.054-1.195.543-1.955.814,1.412.109,2.715-.163,3.964.326H4.29a1.127,1.127,0,0,0,1.14.869l.054-.054H5.43c-.543.217-.271.923-.706,1.086-.6.217-.38.6-.434.869s.434.38.706.434a7.931,7.931,0,0,0,1.955.163c.163.054.271.109.434.163A16.664,16.664,0,0,0,12,34.312a3.007,3.007,0,0,0,.977.109c1.466.271,2.986.543,4.507.814h0c-.109.434.271.434.652.434.163.163.434.109.652.163l.163.163a1.289,1.289,0,0,1-.434,1.086,13.943,13.943,0,0,1-3.964,2.606,3.792,3.792,0,0,0-1.3.706,3.837,3.837,0,0,1-1.357.6c-.163.054-.38.217-.38.38,0,.217.217.217.434.271a5.138,5.138,0,0,0,1.792.271h.652c.814.109,1.629.217,2.443.271a1.961,1.961,0,0,0,.977.163c-.054-.054,0-.109,0-.163h0v.163c.326.163.652.271.977.434-.054-.054,0-.109,0-.163h0v.163a11.325,11.325,0,0,0,2.661.706c.163.163.434.109.652.163a.521.521,0,0,0,.489.109,18.623,18.623,0,0,1,2.443.869,2.033,2.033,0,0,1-.706.652c-.326.163-.652.326-.6.76a8.368,8.368,0,0,0-2.281,1.52.809.809,0,0,0-.489.217,22.073,22.073,0,0,1-4.778,3.149v.054h0a2.172,2.172,0,0,0-.977.706c-.652.109-.652.76-1.14.977-.326-.054-.543.163-.814.271-.6.326-.109.326.163.38.489.6,1.3.76,1.955,1.14.054.163.163.163.326.163,0,.271.054.543.489.543.652.109,1.3.217,2.009.271l.652.163a3.363,3.363,0,0,0,1.3.434c.163.217.38.217.652.326a.731.731,0,0,0,.652.271,10.105,10.105,0,0,0,1.357.543c.38.163.814.326,1.249.489a20.97,20.97,0,0,0,4.453,1.3,23.021,23.021,0,0,0,4.724.652,28.908,28.908,0,0,0,5.321-.217v-.163h0a.1.1,0,0,1,0,.163c1.3-.109,2.661-.054,3.964-.271.814-.054,1.575,0,2.389-.109a.19.19,0,0,1,.109.054.2.2,0,0,0,.163-.054,23.908,23.908,0,0,0,3.964-.326,2.9,2.9,0,0,0,1.357-.109c1.683-.054,3.421-.109,5.1-.326,1.357,0,2.715,0,4.072-.054,1.14-.054,2.335-.054,3.475-.217h.326a4.11,4.11,0,0,0,.814-.054c2.769-.054,5.593-.163,8.362-.271a3.552,3.552,0,0,0,1.52-.109c2.281,0,4.507,0,6.787-.054a5.932,5.932,0,0,0,1.955-.109h5.05c3.692,0,7.439,0,11.186.054.869,0,1.738-.054,2.606-.054h.869a27.391,27.391,0,0,0,2.986,0h9.665c.6,0,1.195-.054,1.792-.109.6,0,1.357-.326,1.846.271a.75.75,0,0,0,.217.163c.217.109.6,0,.652.38,0,.217.326.326.6.271.271-.109.271-.271.109-.489-.217-.326-.217-.6.326-.706.706,0,1.412-.054,2.118-.054.271-.163.543-.054.814-.054a16.115,16.115,0,0,0,2.824-.163,5.541,5.541,0,0,0,1.629-.163,5.077,5.077,0,0,0,1.792-.217l1.14-.163c.217-.163.489,0,.706-.109.326-.109.814,0,.977-.434.054-.054.109-.109.109-.163l.814-.163c.163-.163.434-.163.543-.38l.163-.163a1.081,1.081,0,0,0,.652-.434,1.31,1.31,0,0,0,.652-.543c.217-.054.38-.109.6-.163a1.284,1.284,0,0,0,.706-.6c.054-.054.109-.054.109-.109.38-.326.434-.814.869-1.086a7.712,7.712,0,0,0,.652-.706V51.2c.76-.489.977-1.3,1.575-1.9.163-.163,0-.326-.217-.434a1.549,1.549,0,0,1-.923-.923,1.326,1.326,0,0,1,.814-.434c-.6-.271-1.032-.706-1.738-.652-.271,0-.217-.271-.271-.326-.489-.217-.109-.923-.869-1.032a5.578,5.578,0,0,1-2.661-.923c-.6,0-.652-.326-.489-.652.109-.163-.054-.923.652-.326h.109c.109-.706.869-.434,1.3-.543a5.8,5.8,0,0,1,2.715-.543h1.086c.217,0,.489.163.489-.109s-.326-.326-.543-.271a1.291,1.291,0,0,1-1.249-.109c.217-.109.38-.271.543-.217.76.326.76-.326,1.032-.652h0a13.265,13.265,0,0,1,1.3-.543,1.1,1.1,0,0,0,.489-.326c.163-.109.38-.109.489-.271a.731.731,0,0,1,.489-.271c.543-.163,1.086-.271,1.195-.814a1.174,1.174,0,0,1-.923.543h0c.326-.163.652-.38.923-.543a6.4,6.4,0,0,0,.977-1.14v-.109c.109-.543.109-.76-.326-.977m-5-18.95c-.054.054,0,.109,0,.163-.054-.054,0-.109-.109-.163h.109m-1.249,1.955h0m.163-10.045Zm-.271,3.964h0m-.434-5.1-.109-.109c.109.054.109.054.109.109m-.543,7.548h-.054c0-.054.054,0,.054,0m-.271-4.181c-.054.109-.054.271-.109.434-.109-.217-.054-.38.109-.434m-.217,6.407h0m-.652-7.167h0a.441.441,0,0,0,.434.217.4.4,0,0,1-.326-.109c-.109,0-.109-.054-.109-.109ZM13.466,7.922a.59.59,0,0,0-.271-.054.49.49,0,0,1,.271.054m-.109,1.195Zm.109.489a.855.855,0,0,0-.38-.38h.054c.163.109.434.163.326.38m-4.4,16.181c0,.054-.054.109-.109.163.054-.054.054-.109.109-.163M9.5,29.045h0c-.217.054-.434.054-.652.109a.693.693,0,0,1,.652-.109h0m1.14-3.149c.054.054.109.054.109.109l-.109-.109m1.14,5.05h0c0-.054,0-.054.054-.054l-.054.054m.326-3.692h0m.271-2.063c.054-.054.054-.109.217-.109a.19.19,0,0,1,.054.109c-.109-.054-.217-.109-.271,0m1.357,6.244a.19.19,0,0,0-.054.109c.054-.054.054-.054.054-.109m-.054-2.715a1.929,1.929,0,0,0-.543.109,1.606,1.606,0,0,1,.543-.109m.271,5.484c0-.054-.054-.054,0,0Zm-.271-1.086a.326.326,0,0,0-.217-.054,1.847,1.847,0,0,0,.543-.054c-.109.054-.271.054-.326.109m.6-4.561h0c-.054,0-.109,0-.109-.054a.117.117,0,0,0,.109-.109v.163m1.195-5.973h-.109c0-.054.054-.054.109,0Zm-.054-10.208V12.32c.054,0,.054,0,0,.054Zm.163,19.439h0l.054-.054a.053.053,0,0,0-.054.054m.163-15.855V15.9h0c.054.054.054.054,0,.054m.543-1.846c0-.054-.109-.109-.163-.109a.588.588,0,0,1,.326-.054l-.163.163m.38-2.606h0c-.054-.054-.054-.054-.054-.109,0,.054,0,.054.054.109ZM17,6.945a.053.053,0,0,1-.054-.054c-.054,0-.109-.054-.217-.054H16.67c.109,0,.163.054.217.054s.109,0,.109.054h0m.054,20.8h0c.054.054,0,.054,0,0m.217,2.606a.261.261,0,0,1,.109-.326.772.772,0,0,0-.109.326m.163-24.6c.054.054.163.109.163.163L17.43,5.75m.489,14.987c-.054-.054-.054-.054-.109-.054l.109.054Zm-.054-6.624L17.973,14c0,.054-.054.054-.109.109m.271,9.665c-.163-.054-.163-.109-.163-.163a.75.75,0,0,0,.217.163h-.054m-1.357,18.3h0M24,28.664v0M20.959,12.538h.054a.41.41,0,0,0-.217.054.42.42,0,0,1,.163-.054m.326,2.172a.256.256,0,0,1,.326.054h0c-.109,0-.217-.054-.326-.054a1.726,1.726,0,0,1-.489.163,1.726,1.726,0,0,1,.489-.163m.652,3.747h0m-.217-2.878c-.163.054-.326-.054-.271-.163,0-.054-.054-.054-.054-.109a1.945,1.945,0,0,0,.6.217.49.49,0,0,1-.271.054m-.326,5.973Zm-.706,2.281a2.864,2.864,0,0,1-.652.163h0a.677.677,0,0,1,.652-.163m-.489-4.67h0m-.434-4.072h0M19.6,3.633h0c0,.054-.054,0,0,0M18.516,24.158h-.054c.054,0,.054-.054.109-.054h.109c-.109,0-.109,0-.163.054m-.054-7c.163,0,.217-.109.326-.109-.054.054-.054.109-.054.217-.054-.054-.109-.054-.271-.109m.271,18.3Zm0-5.267h0m0-12.434v-.163h0v.163Zm.054.923a3.363,3.363,0,0,0,1.3.434,1.6,1.6,0,0,1-1.3-.434M19.982,29.7c-.054.054-.054.109-.054.217h0V29.75c-.054-.054,0-.054.054-.054M18.95,22.149h0Zm1.14,14.281h0l-.326-.163h-.054a.493.493,0,0,1,.38.163Zm.76-5.376h0a1.54,1.54,0,0,1-.6-.434h0c.38-.054.489.163.6.434Zm0-14.009c.054,0,.054,0,.109-.054v.054h-.109m.109-.6c0-.054.054-.054.054-.109.054,0,.054.054.109.054-.109,0-.109.054-.163.054m.434,7.113a.412.412,0,0,0-.109.217v.054h-.054a.053.053,0,0,1,.054-.054c-.054-.109,0-.163.109-.217h0c.054-.054.054-.054.109-.054a3.742,3.742,0,0,1,.434-.163c-.163.054-.271.163-.434.163a.19.19,0,0,0-.109.054m.326,10.317c-.054.054-.109.054-.109.109.054-.054.054-.109.109-.109l.054-.054h.109a.2.2,0,0,1-.163.054m-.271-23.62c.054-.054.054,0,.054-.054a.278.278,0,0,1,.489,0c-.163-.054-.38.054-.543.054m.76,22.045h0M22.1,9.28l.054-.054c.054.054,0,.109.109.163-.109-.054-.109-.109-.163-.109m.109,8.471Zm.163,19.711h0M22.154,5.424c-.054,0-.109.054-.163.054a.2.2,0,0,1,.163-.054,1.82,1.82,0,0,1,.543,0,1.82,1.82,0,0,0-.543,0m.869,27.367h0c0-.054.054,0,0,0Zm.054-18.027h0m.489,19.222h0a.935.935,0,0,1,.652-.109,2.726,2.726,0,0,1-.652.109m.543-1.195a.168.168,0,0,1,.054-.109c0,.054,0,.054.054.054-.054,0-.054.054-.109.054m.38,6.9h0c-.054-.054-.109-.054-.163-.109h0c.054.054.109.054.163.109h0m-.054-.6h0a.326.326,0,0,1,.217.054c-.054,0-.163.054-.217-.054m-.163-28.616h-.054a3.061,3.061,0,0,1,.652-.217,1.945,1.945,0,0,0-.6.217M15.421,51.687Zm3.91,3.964Zm3.421-5.43a.053.053,0,0,0,.054-.054h.109a.238.238,0,0,1-.163.054m.326.814.217.109-.217-.109m9.231-24.272c-.054,0-.054.054-.109.054.054,0,.109,0,.109-.054m-.217,11.457h-.054c0,.054,0,.054.054,0M31.276,4.067h0A.542.542,0,0,1,31,4.284c.109-.054.163-.163.271-.217m-.6,3.91h0a.053.053,0,0,1-.054.054c0-.054,0-.054.054-.054m.869,3.855a2.2,2.2,0,0,0-1.032.217,1.442,1.442,0,0,1,1.032-.217m-.869,4.4a.053.053,0,0,1-.054.054.053.053,0,0,0,.054-.054m-.434,12.706h0m-.326-14.769H29.81a.075.075,0,0,0,.109,0M28.127,31.325a.256.256,0,0,1-.054.326c.109-.109.054-.217.054-.326m-.163-11.946v.054c-.054,0-.109,0-.109-.054.054.054.054.054.109,0m-.054.434.054.054a.053.053,0,0,1-.054-.054h0m.054,24.923a1.5,1.5,0,0,0-.489-.054.2.2,0,0,0,.163-.054c.217-.217.271-.054.326.109M27.692,5.1h0m.054,7.548h0c-.109.054-.217.163-.326.217-.054,0-.109,0-.109.054a3.031,3.031,0,0,0,.434-.271M27.8,30.565c-.054-.054-.163-.054-.217-.109a.282.282,0,0,1,.217.109M27.53,7.434c0,.054.054.109.054.163-.054,0-.109.054-.163.054-.109-.054-.163-.054-.217-.109.109.054.217-.054.326-.109m-.6-3.258h0a10.463,10.463,0,0,1-1.3.054,5.247,5.247,0,0,1,1.3-.054m-.6,15.149h-.109v-.109c0,.054.054.054.109.109m-.054-3.367Zm-.109,11.457v0M25.249,11.94c.054.054.054,0,.109.054h-.163c0-.054,0,0,.054-.054M26.118,28.5h0a5.9,5.9,0,0,1-.977.054c.326,0,.652-.163.977-.054M25.14,41.37a.053.053,0,0,0,.054-.054h.054c0,.054-.054.054-.109.054m.163-4.507Zm.109,11.946h0c.054,0,.054,0,.054-.054a.053.053,0,0,1-.054.054m.76,3.258c-.054,0-.163.054-.217.054s-.054,0-.109.054h.109c.109-.054.163-.109.217-.109.163-.054.271-.109.326,0h-.326m.434-27.1h0c0-.054.054,0,0,0Zm.271,25.683.163-.163v.163h-.163m.163-31-.163-.163c.109,0,.109.163.271.109,0,.054-.054.054-.109.054m.217-.543h0l.054-.054c-.054,0-.054,0-.054.054,0,.109-.054.271-.054.38a.334.334,0,0,1,.054-.38m.054,6.733Zm.38,15.475a1.726,1.726,0,0,0-.489-.163.876.876,0,0,1,.489.163m.109,15.2c-.109.109-.217.054-.326.109.109-.163.217-.163.326-.109h0c.054-.109.054-.054.109,0H27.8m.163-8.525a5.241,5.241,0,0,1,.923,0c-.326.054-.652.217-.923,0m.869-10.588h0s.054-.054.054,0Zm.109-24.76a.117.117,0,0,1,.109.109.117.117,0,0,0-.109-.109m.217,46.263c.054-.054,0-.054,0,0h0Zm.109-19.873Zm.543-25.358h0m0,33.665a2.037,2.037,0,0,0,.543-.054,1.513,1.513,0,0,1-.543.054m.652,9.5Zm.109-38.987c0-.109.109-.163.163-.217-.054.054-.054.163-.163.217M31.493,32.9ZM30.95,14.492c.217.109.489.217.76.326-.38,0-.543-.217-.76-.326m.923,16.127h0m.163,12.434A.689.689,0,0,1,32.362,43a.359.359,0,0,0-.326.054m.434-39.312h.109c-.054,0-.109-.054-.109,0m.109,28.724Zm0-8.688a.053.053,0,0,0-.054-.054.053.053,0,0,1,.054.054h0m.434,9.665Zm.217,20.091h0m0-6.19h0c-.054,0,0-.054,0,0Zm.054-26.769h0M33.5,55.542h0l.054-.054-.054.054m.217-32.2h0m-.76-20.959a2.277,2.277,0,0,0,.869.217.935.935,0,0,1-.869-.217m.814,36.163Zm.271-35.729h.109a.053.053,0,0,1,.054.054.2.2,0,0,0-.163-.054m.271,41.1v0h0m.054-40.616h0c.054,0,.054-.054.109,0h-.109M42.3,10.149h0m-.109,0h-.217c.109-.054.163-.054.217,0m-.217-9.5h0m-.054,12.163h-.054c.054.054.054,0,.054,0M42.027,34.2c-.109,0-.163-.054-.271,0,.054-.163.217-.163.271,0M39.964,22.149h0m-2.009-19a.168.168,0,0,0,.054.109c-.054,0-.109-.054-.163-.054a.168.168,0,0,0,.109-.054m.38,9.937a.858.858,0,0,1-.76-.109c-.054-.054-.054,0-.109-.054a6,6,0,0,0,.869.163m0,14.5h0m-.76,1.9ZM36.489,1.243Zm0,5.484h0Zm0,17.267h0m0,1.683h0m-.543-20.8h0m.163,2.226a3.1,3.1,0,0,0-.706.054c.109,0,.163-.054.271-.054a1.169,1.169,0,0,1,.434,0m-.652-5.756h0ZM35.24,2.764h0M34.588,53.37a.547.547,0,0,0-.054-.163h.109a.2.2,0,0,0-.054.163m.054-9.448h0M34.86,4.5h0m.434,16.941c.054.054.109.054.163.109-.054-.054-.109-.054-.163-.109m.271,13.032c.054,0,.054,0,.054-.054h.054c-.054.054-.054.054-.109.054M35.837,16.5h0v0Zm.271,34.751h0c.271-.163.543-.326.76-.489a5.965,5.965,0,0,1-.76.489M37.358,34.42a.346.346,0,0,1,.326,0c-.109-.109-.217-.054-.326,0m.923,15.53c-.109,0-.163.054-.271.109h0c.109-.109.163-.163.271-.109h0c.054,0,.163-.054.217,0h-.217m.109.977c-.054-.163.109-.271.326-.38-.163.109-.326.217-.326.38M38.715,29.7c.054,0,.054-.054.054,0h-.054M38.5,25.732a.49.49,0,0,0,.271-.054.407.407,0,0,1-.271.054m.6,6.081v-.054c.054,0,.054.054.109.109-.054,0-.054-.054-.109-.054m.706.271h-.109c.054-.054.054,0,.109,0ZM39.855.972h0M39.8,46.2h0c0,.054.054.109.109.217-.054-.109-.109-.163-.109-.217m0-.76c0-.054.109,0,.109-.054.054.054,0,.054.054.109-.054,0-.109-.054-.163-.054m0-3.91a.282.282,0,0,1,.217-.109c-.109,0-.109.054-.217.109m1.357,6.081h.109c-.054-.054-.054,0-.109,0m-.434-34.426a2.864,2.864,0,0,0,.652-.163,1.446,1.446,0,0,1-.652.163m.76,42.353c.109-.109.163-.163.217,0l.054.054a.59.59,0,0,1-.271-.054M41.322,51.9a2.5,2.5,0,0,0,.977-.543h.054l-.054.054c-.163.326-.6.38-.977.489m1.086,4.615a.805.805,0,0,0-.054-.38.322.322,0,0,1,.054.38M42.3,30.728a.075.075,0,0,0,0-.109c.054.054.109.109.163.109Zm.271,4.941h0m.163-5.05h0M42.9,4.5h0m.054,51.856h0c0-.054.054-.054.109-.054h0a.19.19,0,0,1-.109.054M42.9,4.067h.271c-.054.054-.163,0-.271,0M44.96,7.922h0c-.054,0-.054-.054,0,0h0m-.271,5.756h0m-.76-11.457h0m0,22.914h0c-.054-.054,0-.054,0,0h0m.109,14.444h.109v.109c-.054-.109-.054-.109-.109-.109m.271-5.1c.163-.054.38-.054.434.054.054.054.054.054.109.054a.979.979,0,0,0-.543-.109m.109-1.9c0-.054-.054-.054-.109-.054a3.243,3.243,0,0,0,.6.326,1.05,1.05,0,0,1-.489-.271m.652-8.8h0m.326-1.032h0Zm13.3-17h0ZM57.72,7.6c-.217.054-.434,0-.652.054.217-.054.434-.163.652-.054M57.5,25.135h0M57.34,14.873h0c.054-.054.109.054.163.054-.054,0-.054-.054-.163-.054m-.217-12.6c-.109,0-.271.109-.326.054a.49.49,0,0,0-.271-.054,1.11,1.11,0,0,0,.6,0m-.217,9.72a.761.761,0,0,0-.6-.434c.271,0,.543.054.6.434m.054,31.656a3.46,3.46,0,0,0-.38.109,1.007,1.007,0,0,1,.38-.109M55.6,7.705h0m-.217,28.181v0h0M55.222,21.28a.19.19,0,0,0-.054.109c-.054,0-.054-.054-.109-.109.109.054.109.054.163,0m-.6-18.9c.054,0,.109-.054.163-.054a.19.19,0,0,0,.109-.054.168.168,0,0,1-.109.054.2.2,0,0,1-.163.054c-.054,0-.054.054-.109.109-.054-.054-.109,0-.217-.054.163,0,.271,0,.326-.054m-.652,6.787h-.054c0,.054.054,0,.054,0m-.706,11.294a.556.556,0,0,1-.326.271.556.556,0,0,1,.326-.271M52.127,2.112h0l.054.054c.054.054,0,.163-.054.217,0-.054.054-.163.054-.217a.053.053,0,0,0-.054-.054m-.489,2.932c-.054.054-.054,0-.109.054-.054-.054-.054,0-.109-.054Zm0,4.941Zm-.76,2.552a.785.785,0,0,1,.38.109,1.381,1.381,0,0,1-.38-.109h0m-.434-10.86ZM49.9,12.918a.534.534,0,0,0,.434-.163.364.364,0,0,1-.434.163m.38,12.489h0M50.118,7.325c-.109,0-.163-.054-.217-.163a.75.75,0,0,0,.217.163M49.9,4.719h0m-.543.054h0m-1.629,0h.109c.109.054.217.054.271.109h.326c.054,0,.109-.054.163-.054V4.773c.163,0,.271.054.38.054a.326.326,0,0,0,.217-.054.41.41,0,0,1-.217.054c-.163,0-.326.054-.489.054h-.326a.585.585,0,0,1-.434-.109h0m.76,17.81c.109.054.271.109.271.217-.163-.109-.326-.109-.489-.217h.217M48.38,17.8a.053.053,0,0,1,.054-.054l-.054.054h0m-.217-2.986h0m-.652-8.036h0a.517.517,0,0,1-.38-.109,1.381,1.381,0,0,1,.38.109M47.457,12.7h0m-.271-.869h0m0,14.281ZM47.023,5.044h0m-.271.923h0m-.217,14.661a.2.2,0,0,0-.163-.054c.109-.109.109-.054.163.054m-.217,26.987Zm-.054-6.679c.054-.109.163-.109.163-.271a.407.407,0,0,1,.054.271c-.054,0-.109-.054-.217,0m.434-9.72h.163c-.109.054-.109,0-.163,0m.434,19.548c0-.163-.109-.163-.163-.271.109,0,.163.054.217.054,0,.109,0,.163-.054.217m-.163-17.756h-.054c0-.054,0-.054.054,0a1.055,1.055,0,0,1,.706.163,3.316,3.316,0,0,1-.706-.163m.652-15.692c.054,0,.054-.054,0,0,.054-.054.054,0,.054,0H47.62m0-4.235h0c.054,0,.109-.054.217-.054-.054,0-.163.054-.217.054m.326,8.416h0c.054.054.054.054.054.109a.168.168,0,0,0-.054-.109m.543,14.226v-.054c.054,0,.054.054,0,.054m-.434-2.552a2.251,2.251,0,0,1,.869.109,4.753,4.753,0,0,0-.869-.109M48.923,8.3h0a.978.978,0,0,1,1.086-.109c-.326.163-.76,0-1.086.109m.923,6.407h0m-.38,6.19h0m-.109,22.317h0a.053.053,0,0,1,.054.054l-.054-.054m.109-28.561h0m.163,14.878v.054c0-.054-.054,0-.109-.054,0,.054.054.054.109,0m.543,14.878h0m-.543-5.756h0a.889.889,0,0,1,.652-.109c.054.054.109,0,.163.054a1.4,1.4,0,0,0-.814.054m.76-2.335h0m.434-5.158a.415.415,0,0,0,.271-.109.2.2,0,0,1-.271.109m-.163-13.629c.054-.163.271-.109.38-.109-.109-.054-.271.054-.38.109m.6,33.068h0M51.1,18.239h0m.163,2.5h0m.163,21.937h-.054a.117.117,0,0,0,.109-.109c0,.054,0,.109-.054.109m.163,4.507ZM52.018,15.8c.054,0,.109.054.163.054a.42.42,0,0,1-.163-.054h0m.109,16.724Zm.054,18.244a.168.168,0,0,0-.054-.109c.054,0,.054.054.109.054,0,.054-.054,0-.054.054m.054-19.928Zm.054-7.33h-.054c0-.054,0-.054.054,0Zm-.163-10.317a2.022,2.022,0,0,1-1.738.489h0a8.125,8.125,0,0,0,1.738-.489l.054-.054h.109a.2.2,0,0,0-.163.054m.163,12.38a.19.19,0,0,1,.109.054c-.054,0-.054,0-.109-.054m.054-23.186ZM52.561.7Zm.489,24.163a.282.282,0,0,0,.217.109.689.689,0,0,0-.326-.054.19.19,0,0,0,.109-.054m.163,3.529h0m.109,23.674h0m1.412-11.946h-.217c-.434,0-.923.217-1.412,0a5.46,5.46,0,0,1,1.629,0,5.414,5.414,0,0,1,.869.109c-.326-.054-.6-.054-.869-.109m1.032-28.67Zm.054,3.258h0l.163-.054c-.109.054-.109.054-.163.054m.977,2.824h0a.623.623,0,0,1-.543.054.893.893,0,0,0,.543-.054M56.96,55c.054-.054.054-.163.109-.163a.28.28,0,0,1,.38.163.519.519,0,0,0-.489,0m-.652-1.412a2.546,2.546,0,0,1,1.3-.217.19.19,0,0,0,.109.054,5.6,5.6,0,0,0-1.412.163m1.683-32.416h0m.217-15.747h0m.38,49.3a.144.144,0,0,1,.163-.163l-.163.163m.326-29.81h0M59.023.863Zm.217,2.118Zm.217,35.24a.168.168,0,0,0-.109-.054h.109v.054m.109-29.484h0a.053.053,0,0,1-.054.054.053.053,0,0,0,.054-.054M59.512,41.8v-.163a.75.75,0,0,0,.163.217c0-.054-.054-.054-.163-.054m.217-10.968h0c.109,0,0,.109,0,0M60,16.936Zm.163,13.032Zm0-12.869Zm2.118,7.33Zm-.163,15.855Zm-1.14-9.774c.054,0,0,.054.054.054-.054,0-.054,0-.054-.054h0M60.326,5.37Zm.109,7.6c-.054.054-.109.054-.217.109v-.054a.41.41,0,0,1,.217-.054m-.217,5.81c.109-.109.163-.109.271-.054-.109,0-.163.054-.271.054m.434,1.412c-.054-.054-.109-.054-.163-.109.054.054.109,0,.217,0a.168.168,0,0,1-.054.109m.217,18.57h0c.054-.163.217-.109.38,0Zm.543-27.692h0l.054-.054-.054.054m.163,6.027h0m0,21.285h.163c-.109.054-.109,0-.163,0m.163,14.661h0l.054-.054c0,.054,0,.054-.054.054m.109-49.086c.109,0,.163-.054.271-.054a.19.19,0,0,0-.109.054c-.054,0-.109.054-.163,0m.217,37.9h.054c-.054,0-.054.054-.054,0h0m.109,3.1Zm-.109-2.335a.628.628,0,0,1,.38-.271.974.974,0,0,0-.38.271m.543-33.883Zm.054-.38h0m1.412.923c0,.054.054,0,0,0a.053.053,0,0,1-.054.054.053.053,0,0,0,.054-.054m-.6-1.683Zm0,26.987h.163c-.054.054-.109,0-.163,0M63.8,5.533Zm.271,25.792c-.054,0-.109-.054-.163-.109h.109c.054.054,0,.054.054.109h.054c.054-.054,0,.109-.054,0M64.181,15.2a.407.407,0,0,0-.054-.271.407.407,0,0,1,.054.271m.489-10.86a.75.75,0,0,1-.217.163c0,.054-.054.054-.054.109V4.556l.054-.054a.291.291,0,0,1,.217-.163h0M65.1,20.791c0,.054.054.054.109.109l-.109-.109M65.43,9.225h0c-.054,0,0-.054,0-.054h.054l-.054.054m.6,13.575c-.054.054-.109.109-.217,0h.217l.109-.109-.109.109m.652-16.615c0-.109.054-.163.109-.109l-.109.109m.38,25.466c-.163-.109-.054-.163,0-.271-.054.109-.163.217,0,.271M67,54.076c.109,0,.217-.054.326-.054a.689.689,0,0,0-.326.054m.163-44.525c.054,0,.054-.054.109-.109,0,.054.054.109-.054.163a.053.053,0,0,0-.054-.054m.217,30.19h0m.054-37.3c-.163.109-.271.054-.434,0h.6c-.054,0-.109-.054-.163,0m.326,9.882c.109.054.271.109.38,0-.163.163-.326.163-.38,0m.163,12.76h0M68.2,44.846h0m0-12.815c.054,0,.054-.054.109,0a.075.075,0,0,0-.109,0M67.765,9.877c.326-.109.6-.326.977-.271a3.3,3.3,0,0,1-.977.271M68.8,34.583h0m.054-20.525c0-.109.054-.109.109-.109.054.054.054.054.054.109-.109,0-.109.054-.163,0M77.81,2.275h0c0,.054-.054.109-.109.054.054-.054.054,0,.109-.054M76.616,6.13c-.109,0-.271.054-.38-.054a.924.924,0,0,0,.38.054m-.434-2.986Zm0,.977V4.23l-.109-.109Zm.163,21.665a.689.689,0,0,1-.326-.054.689.689,0,0,0,.326.054m-.489,12.76a.168.168,0,0,1,.109.054l-.109-.054h0m0,8.091a.053.053,0,0,1-.054-.054h.054v.054m.109-35.24s0,.054.054,0Zm0,3.2c0-.054-.054-.109-.109-.217h0c.054.109.109.163.109.217M75.8,11.343c.054,0,.109.109.163.054-.054,0-.109.054-.163,0-.054,0,0,0,0-.054m-.163,34.045ZM75.53,15.2a.053.053,0,0,1-.054.054V15.2c0,.054,0,0,.054,0m-.977-6.842h0m-.489,4.887h0l-.054.054a.053.053,0,0,1,.054-.054M72.326,4.61v.217h0V4.61M72.6,9.986a.653.653,0,0,0-.434-.109.653.653,0,0,1,.434.109m-.923,11.023c-.054,0-.054.054,0,0-.109,0-.109-.054-.109-.054,0,.054.054.054.109.054m-.489-1.792c0,.054.054.054.054.109h-.054c-.054-.054,0-.054,0-.109M71.023,4.393h0m-.217,11.566c0,.054.054.109.054.217a.75.75,0,0,1-.163-.217h.109m-.76-15.1h-.054a.053.053,0,0,1-.054-.054c.054,0,.109,0,.109.054M69.34,3.687c0,.054-.109-.054,0,0h0m.326,40.833h0m.163-11.131h0m.109,2.769-.054.054a.053.053,0,0,1,.054-.054l.054-.054a.053.053,0,0,1-.054.054m.109-6.57ZM70.1,12.049c-.054-.054-.054-.054-.163-.054a.415.415,0,0,0,.271-.109c-.054.054-.054.109-.109.163m.434,11.729a.414.414,0,0,0,0-.434,1.583,1.583,0,0,0,.6.489,1.174,1.174,0,0,1-.6-.054m.814,8.253c-.054-.163-.163-.163-.326-.109h0c.38-.271.326-.054.326.109m0,4.941c.054-.109.163-.163.163-.271.217.054.217.163.326.217-.217-.054-.326-.109-.489.054m.869-9.285a.412.412,0,0,0-.109-.217h.054c.109.109.109.163.054.217m.38,26.878-.109.054h-.054c.109-.054.163-.054.271-.109-.054,0-.109-.054-.109.054m.38-31.928h0c0-.054.054-.054,0,0ZM73.2,3.687c-.054,0-.054-.054-.109-.054.054.054.054.054.109.054m0,24.869c-.054.054-.054,0-.109,0a.2.2,0,0,0,.163-.054.053.053,0,0,0-.054.054m.054,12.815h0c.109,0,.217-.054.326,0Zm.271-34.48c.054,0,.109-.054.163-.054a.2.2,0,0,1-.163.054m.38,46.969Zm-.163-14.552c.109-.109.217-.109.271-.054a2.352,2.352,0,0,0-.271.054m0-7.222a.407.407,0,0,1,.271.054.407.407,0,0,0-.271-.054m.217-4.4c.054.054.109.054.109.109-.054,0-.054-.054-.109-.109M74.5,2.764h-.054c0-.054.054,0,.054,0m-.054,23.023h0c.109-.054.054,0,.109,0a.075.075,0,0,0-.109,0m.163,2.5a.075.075,0,0,1,.109,0h-.109Zm.543,7.059a.412.412,0,0,0-.489-.163c.054,0,.109-.054.163-.054h.054c.326-.109.271.054.271.217m0,8.525h0m.163-40.616h0m1.249,50.607Zm-.109-9.774a.41.41,0,0,1,.054-.217c.054-.054.163,0,.217-.054-.054.163-.163.163-.271.271m.434-24.706a.6.6,0,0,1-.434,0h0a.6.6,0,0,1,.434,0h0m.543,5.81v-.109h.054a.168.168,0,0,1-.054.109m.109,11.131a.168.168,0,0,0,.109.054c-.054.054-.109,0-.163,0a.053.053,0,0,1,.054-.054m-.109-22.86h0m.109,38.824a.772.772,0,0,0-.326.109.582.582,0,0,1,.326-.109m.109,4.507c-.054,0-.054,0-.109-.054H77.7a.053.053,0,0,1-.054.054m.054-2.769Zm.217-45.231h0a3.322,3.322,0,0,0-.652-.271c.271,0,.543,0,.652.271Zm.6,8.471h0c.054-.054.054-.054.054,0h-.054m.217-1.3ZM79,23.778c.054-.054.054,0,.109,0-.054,0-.109-.054-.109,0m0-10.86h0m.217,14.226h0m-.054-1.086h.054v.054l-.054-.054m.434-19Zm.434,31.765h0m0-25.683c-.054,0,0-.054-.054-.054.054,0,.109.054.163.054h-.109m1.52,30.027c.109,0,.054.109.109.109h-.217c0-.054,0-.109.109-.109m-.163-23.783Zm-.977,24a.689.689,0,0,1,.326-.054.689.689,0,0,0-.326.054m.76,5.376a.979.979,0,0,1,.543.054c-.163,0-.38-.054-.543-.054m.706-28.181a.425.425,0,0,1,.434.054.425.425,0,0,0-.434-.054M82.154,1.9a.2.2,0,0,0,.163-.054h.054c-.054,0-.109.054-.217.054m.6,20.471v-.054c0,.054.054,0,.109.054Zm.38,12.869Zm0,22.1V57.28h.054l-.054.054m0-37.738h0m.434,2.986a.49.49,0,0,0-.271-.054.2.2,0,0,0,.163-.054c.054,0,.109.054.217,0,0,.054-.054.054-.109.109m.543,17.158ZM87.421,1.189h.109c-.054,0-.109.054-.109,0h-.163c.054,0,.054-.271.163,0M87.313,34.42h0m-.271,2.335c0,.054.054.054.109.054a.19.19,0,0,1-.109-.054ZM86.01,19.379a.49.49,0,0,1-.271-.054.407.407,0,0,0,.271.054M85.792,13.3h0m-1.14,9.774Zm-.109,23.837s0-.054.109-.054c.054,0,0,.054.054.054h-.163m.109-28.67h0m1.195-6.624c-.109.054-.217,0-.271.054s-.109,0-.217,0c.163-.054.271,0,.489-.054m.054,30.95a.053.053,0,0,0,.054-.054v.054H85.9m.163-2.389h0m-.271-17.539c-.163.163-.326.054-.434,0,.109.054.271,0,.434,0,.109-.054.217,0,.326,0a.49.49,0,0,0,.271.054c-.217,0-.38-.054-.6-.054m1.14,27.8c.054-.054,0-.109.109-.163a.173.173,0,0,0,.163.163h-.271M86.5,38.981c.054,0,.109-.054.163-.054a.426.426,0,0,1,.6-.054.489.489,0,0,0,.271.054,1.659,1.659,0,0,0-1.032.054m1.032-23.24a.168.168,0,0,1-.109-.054c.054,0,.054.054.109.054Zm1.629,1.683c0,.054.054.109,0,.163s-.109-.054-.217-.054c.109-.054.163-.054.217-.109M88.344,4.99h0c-.054.054-.054,0,0,0m-.326,22.263a1.3,1.3,0,0,0,.489-.109.976.976,0,0,1-.489.217Zm.271,2.715h0a.411.411,0,0,1,.38.054,1.06,1.06,0,0,0-.38-.054m.6-7.167h0v.109c0-.054,0-.054-.054-.109,0-.054.054,0,.054,0m.163,23.349c-.054,0-.054-.109-.109-.109H89.1c0,.054,0,.109-.054.109M89,34.094c-.054-.054-.109,0-.109.054,0-.109.054-.109.109-.271,0,.217.163.217.271.271-.163,0-.217,0-.271-.054m.38,20.145c.109.054.217,0,.326.054-.109-.054-.217,0-.326-.054m.217-4.778v-.054a.19.19,0,0,1,.109.054Zm.489-45.068Zm.109,30.516h0M92.743,1.026h0m-1.683,19.33h0v0m-.434-16.4h0m0,14.281h0c0,.054-.054.054,0,0Zm-.109,24.217V42.4h0c.054.054,0,.054,0,.054m.271,4.127h0c.109-.054.109,0,.163.054-.054,0-.109-.054-.163-.054m.271-12a.59.59,0,0,1-.489.217,1.929,1.929,0,0,0,.489-.217.2.2,0,0,0,.054-.163.117.117,0,0,1,.109.109.2.2,0,0,1-.163.054m-.271-3.692c.054,0,.109-.054.163,0s.163.109.217.163a.493.493,0,0,0-.38-.163m.326-8.8a.19.19,0,0,0-.054-.109c-.054-.054-.109-.054-.163-.109-.054,0-.109-.054-.217-.054a.326.326,0,0,1,.217.054c.054,0,.163.054.163.109a.412.412,0,0,0,.217.109Zm.271-17.7c-.054.054-.109.163-.217.217a.424.424,0,0,1,.217-.217h0m.326,13.575h0M91.765,7h0c0-.054.054-.054.109-.054h.054A.053.053,0,0,0,91.874,7c-.109-.054-.109,0-.109,0m.109.489h0c.054.054.054,0,0,0m1.412-5.43c-.109,0-.163.054-.271.054-.271,0-.489-.109-.706-.109.326,0,.652.054.977.054m-.814,4.778h0a.168.168,0,0,1-.109-.054h0c.054.054.054.054.109.054m-.054-2.552Zm.163,26.824c-.109,0-.163.054-.271.109.054-.109.163-.109.271-.109m-.217,3.312a.407.407,0,0,1,.271.054.407.407,0,0,1-.271-.054m.271-21.394a.053.053,0,0,0-.054-.054c.054,0,.054,0,.054.054Zm.326,25.521h0m.163-2.606.054-.054-.054.054m0-12.054h.217c-.054-.054-.163,0-.217,0m.489,14.5-.109-.109.109-.109Zm.109,9.285h.109a.053.053,0,0,0,.054.054c-.054.054-.109,0-.163-.054m0-21.068h0m.054,18.57h0a.168.168,0,0,0,.109.054.19.19,0,0,0-.109-.054m.271-42.245c-.109.217-.217.054-.326-.054h.38c0,.054-.054,0-.054.054m.6,13.466h0c.054.054.054.054.054.109-.054,0,0-.109-.054-.109M96.6,1.569c.054-.054.163-.109.217-.163h-.054a.173.173,0,0,1-.163.163h0M95.566,33.877a.19.19,0,0,0-.054.109c-.054,0-.054-.054-.109-.109h.163m-.489,22.534a1.187,1.187,0,0,1,.271.163c-.109-.054-.163-.109-.271-.163m.38-1.792c-.109,0-.109-.054-.163-.054h.217a.053.053,0,0,1-.054.054m-.271-6.842h0c.163-.109.271-.163.434,0a.6.6,0,0,0-.434,0m.76,5.158h0v0Zm.38-10.643h-.054a1.847,1.847,0,0,1-.543.054,2.352,2.352,0,0,0-.271.054,2.353,2.353,0,0,0,.271-.054,1.847,1.847,0,0,1,.543-.054Zm0-22.914c-.109.109-.271.217-.38.326.109-.109.163-.326.38-.326Zm.163-4.833a.407.407,0,0,1,.272.054.689.689,0,0,1-.326.054s0-.109.054-.109m.217,12.977-.054-.054c.054,0,.054-.054.109-.054-.054.054-.054.054-.054.109m.054,9.665h0Zm.489-27.855c0-.054,0,0-.054-.054H97.3a.053.053,0,0,1-.054.054m.38,39.475h0m0-1.683h-.163c.109,0,.109-.054.163,0ZM97.575,15.2c.054,0,.109-.054.109,0,0-.054-.054-.054-.109,0m.271-7.385a1.273,1.273,0,0,0,.543.271h0c-.272.054-.38-.109-.543-.271m.38,18.516a.49.49,0,0,0,.271.054c-.109.054-.163,0-.271-.054m.326-5.213c-.054,0-.109.054-.163.054,0-.054.054,0,.054-.054Zm.434-12.054a.339.339,0,0,1-.271-.163c.109.054.163.109.271.163M98.77,30.4v-.109c.054-.054.109-.054.163-.109.054,0,.109-.054.163-.054-.054,0-.109.054-.163.054-.109.054-.163.109-.163.217m.163,12.977c.054-.054.109-.163.217-.271-.109.109-.163.217-.217.271m.489,13.52h0m.163-27.747h0c-.109.109-.109.217-.271.271h.054a.953.953,0,0,1,.217-.271h0m.109,5.484h-.054c.054,0,.109-.054.163-.054a.168.168,0,0,0-.109.054m-.109-8.362a.407.407,0,0,0,.271.054c-.109.054-.217.054-.271-.054m.869,5.1.054-.109c.054.054.109,0,.163,0-.109.054-.163.109-.217.109m1.249,12h0m-.76-16.181c.38-.163.652-.109.814.109a.844.844,0,0,0-.814-.109m.76-19.439h0c0-.054.054-.054.109-.109l-.109.109m.271,19.33c0,.054.054.054.054.109a.168.168,0,0,1-.054-.109m.326,10.48a.053.053,0,0,0-.054-.054l.054.054h0m.109-32.308h0l.054-.054c0,.054,0,.054-.054.054m.109,17.158c.054-.054.054-.109.109-.163,0,.054,0,.109.054.109a.2.2,0,0,0-.163.054m.217,7c-.109-.054-.054-.109-.054-.217.054.109.109.217.217.217-.054,0-.109.054-.163,0m.217,14.987h0m.109-29.1h0c0-.054.054,0,0,0m1.412-2.769h0c-.054.054-.054.054-.109.054.054-.054.054-.054.109-.054m-.217-9.991h0V2.71h0V2.547h0c-.054.054-.054,0,0,0M103.385,38.6c0-.054.054-.054.109-.054a.053.053,0,0,0,.054.054Zm.163-6.787c-.054-.054-.163,0-.217-.054.109,0,.163,0,.217-.054v.109Zm-.054-12.706h0m.163-14.661a.41.41,0,0,0-.217.054c.109-.054.163-.109.217-.054.054,0,.054-.054,0,0h0m.163,47.512c.054,0,.109.054.163.054-.054,0-.109-.054-.163-.054m.163-6.3c0-.109-.109-.109-.109-.163.054,0,.109.054.163.054a.168.168,0,0,1-.054.109m-.217-9.937c0-.054.054-.163.109-.054.109.054.163.054.271.109a1.06,1.06,0,0,0-.38-.054m.814-3.91Zm-.109-7.71a.493.493,0,0,1-.38.163.053.053,0,0,0-.054.054h.054a.934.934,0,0,1,.38-.217c.054,0,.054-.054.109-.109h.054c-.054.054-.109.054-.163.109m1.683,2.443h0m-.109-23.4h0m-.869,3.312h0m-.326,15.692h.109a.2.2,0,0,1,.163.054c.054.054.109.054.163.163l-.163-.163c-.054,0-.109-.054-.163-.054h-.109m.272,17.539h0m-.054,2.878a1.593,1.593,0,0,0,.543-.163.521.521,0,0,1-.543.163m.543-15.53a.19.19,0,0,1,.109-.054.19.19,0,0,0-.109.054M106.1,49.57c-.054,0-.054-.054-.109-.054h0c.054,0,.054.054.109.054Zm-.38-16.018a.714.714,0,0,0,.652.163c-.054,0-.109.054-.217.054-.217.109-.271-.054-.434-.217m.6,13.14Zm.054-14.769a.2.2,0,0,0,.163-.054v.054h-.163m.489,14.335.054-.054a.19.19,0,0,0,.109.054c-.054,0-.109.054-.163,0m.163.326Zm.163-3.964a3.429,3.429,0,0,1-.217.489.688.688,0,0,1,.217-.489h0m.326-21.665Zm0,22.643c.054,0,.054-.054,0,0h0Zm.163-29.159c.054,0,.109-.054.163,0Zm.38,28.724v0h0m.271-30.516c-.163-.054-.271.163-.38.163.163-.054.217-.163.326-.271.054,0,.109.054.054.109m.163,3.2Zm9.882,4.833Zm0,5.538s0,.054.054,0Zm-1.9-19.385c-.054,0-.109-.054-.217-.054.109,0,.163.054.217.054m-.163,6.842h0c.217.054.434.109.6.163a.91.91,0,0,1-.6-.163ZM116.2,25.624h0m-.054-.706c.054,0,.163.054.217.054-.054,0-.109-.054-.217-.054m.217,2.715h.054c-.054.054-.109.109-.109.163a.053.053,0,0,0-.054-.054c0-.054.054-.054.109-.109m-.163-9.339c0-.054-.054-.109-.054-.163.054.054.054.109.109.163ZM116.037,6.4h0a.075.075,0,0,1,0,.109h-.054c.054,0,.109,0,.054-.109m.054,11.294h.163a.2.2,0,0,0-.163.054V17.7h0M114.082,4.067c-.054.054-.109,0-.163,0V4.013a.2.2,0,0,0,.163.054m-4.29,5.7h0m0,3.258h0m0,2.5a.664.664,0,0,0-.489.163c.109-.163.326-.163.489-.163m-.543-9.665h0m-.109,22.588h0m0,3.747h0m.271,5.756h0c-.109.109-.271.054-.326-.109,0-.054-.054,0-.054-.054a.493.493,0,0,0,.38.163c.109-.109.217,0,.326-.054a.689.689,0,0,1-.326.054m.326-11.186h0Zm.6-1.412V25.3a1.361,1.361,0,0,0,.38.217c-.163-.054-.38-.054-.38-.163m1.738-11.62h0c-.38-.109-.814-.109-1.195-.217a1.508,1.508,0,0,1,1.195.217m.054,24.489Zm-1.249,12.434Zm1.086,6.136h0m.054-7.819c.109-.054.217-.054.271-.163.054.109.163.163.217.217a.51.51,0,0,0-.489-.054m1.086-27.1.326-.163a.884.884,0,0,0-.326.163m0,21.991h0M113,15.687c-.054,0-.054-.054-.109-.109a.326.326,0,0,0,.217.054c0,.054-.054.054-.109.054m0,9.231h0m-.109,28.67c.054-.109.054-.163.109-.217a.291.291,0,0,0,.217.163.689.689,0,0,1-.326.054m.76-26.064c0-.054,0-.109.054-.109a1.349,1.349,0,0,1,.434-.054c-.163.054-.38.054-.489.163m.434-13.738c-.6,0-1.14-.109-1.738-.054a6.151,6.151,0,0,1,1.738.054h.163a.19.19,0,0,1,.109.054.49.49,0,0,0-.271-.054m-.706-3.584c.109.054.271,0,.38,0-.109.054-.271.163-.38,0h0m.814,3.2h.109v.109c-.054-.109-.109-.109-.109-.109m0-7.71a.672.672,0,0,0,.163-.109c0,.054,0,.109.054.109-.109,0-.109.054-.217,0m.543,45.394Zm-.109-15.91h.271c-.054,0-.163.054-.271,0m.109-3.312c0-.054.054-.054,0,0l.054-.054-.054.054M115.06,4.5h-.109c-.489.217-1.14.109-1.683.38a2.032,2.032,0,0,1,1.683-.38c.054,0,.109-.054.163-.054-.054,0-.054,0-.054.054m.814,27.53h0c0-.054.054,0,.054,0h-.054m.054-9.937c.109.054.163,0,.217.054-.054-.054-.163,0-.217-.054m.217,2.824h0m.217,29.159a2.006,2.006,0,0,1,.76-.38,2.726,2.726,0,0,1,.652-.109,6.2,6.2,0,0,0-1.412.489m-.054-7.385h0m.217,2.172h0m.38-1.086h0m.434,1.14v0h0m.652-7.059-.163-.163a.412.412,0,0,1-.217-.109c.054.054.109.054.217.109a.477.477,0,0,0,.38-.054c-.054.109-.163.109-.217.217m.38-3.2c-.76-.217-1.52.109-2.281,0a3.638,3.638,0,0,1,2.281,0h.054l.054.054a.168.168,0,0,0-.109-.054M120,4.447h0m-.814,19.168Zm.109,5.376c-.054.054-.054.054-.054.109l-.054-.054a.168.168,0,0,1,.109-.054m-.6-21.177a.19.19,0,0,0,.109.054.19.19,0,0,1-.109-.054Zm.869,36.543h0c0-.109.054-.054.054-.054.054,0,0,.054-.054.054m-.326-.706a.459.459,0,0,1-.38,0c-.054-.054-.054-.054-.109-.054a2.093,2.093,0,0,0,.977-.326,1.5,1.5,0,0,1-.489.38m.6,9.122c.054,0,.109,0,.109-.054a.168.168,0,0,1,.109.054Zm0-2.715c0-.054-.054-.109,0-.109.109,0,.163.054.217.054a.41.41,0,0,0-.217.054m.326-38.552Zm0-7.493h0V3.9c.054,0,.054.054,0,.109m.163,39.15ZM120.489,31Zm-.271-7.6v-.109c.054,0,.109.109.271.109h-.271m.706-.38a.534.534,0,0,1-.434-.163,1.419,1.419,0,0,0,.434.163h0m1.575,4.344h0m-.6,4.778ZM121.2,12.7h0m.109,13.52h0a.168.168,0,0,1,.054.109.168.168,0,0,1-.054-.109m.543,17.43a.412.412,0,0,0-.109-.217c.217.054.163.163.109.217m.434,9.611c.109-.054.163,0,.271,0-.109-.054-.163,0-.271,0m.326-3.584h-.054c.054-.054.054-.054.054,0h0c.109.054.163.163.271.217-.054-.054-.217-.109-.271-.217m.434-30.19a.053.053,0,0,1-.054-.054l.054.054ZM126.462,6.4c-.109.054-.217.054-.326.109a.41.41,0,0,0-.054-.217c.163.054.217.163.38.109m-.217,23.24h0m0,1.086h0l-.054.054h0c.054,0,0-.054.054-.054h0M125.1,11.4h0m-.76,7.439h0c-.054.054-.054,0-.054,0ZM123.8,4.284h0s-.054.054-.054,0c0,.054.054.054.054,0m-.217,48.706c.054,0,.163.054.217.054-.054,0-.109-.054-.217-.054m.38-22.806c-.109-.109,0-.163,0-.271Zm-.109-.814h0c0-.054,0-.109.054-.109,0,.054,0,.109-.054.109m-.163-4.67c.109,0,.163-.054.163-.109,0,.054.054.054.109.163-.109-.109-.163-.109-.271-.054m.489-9.882v.054h-.109c.054,0,.054,0,.109-.054m0,41.213v-.054h.109l-.109.054m.054-3.367v-.109c.054-.109.163-.109.217-.163a.542.542,0,0,0-.217.271m.543-25.466h.054c-.054-.054-.054,0-.054,0m.054-2.118h.217a.2.2,0,0,0-.054.163c-.054-.109-.109-.109-.163-.163m.109,27.041c.217-.054.38-.109.38,0v.054a.805.805,0,0,0-.38-.054m.434-6.624c0-.054,0-.054-.054-.054h0c.054-.054.054,0,.054.054Zm.054-24.978a.053.053,0,0,1,.054-.054s.163,0,.217.054l.054.054c-.163-.109-.217-.054-.326-.054m.326,29.267a.19.19,0,0,0-.109-.054c.054,0,.109.054.163.054,0-.054,0,0-.054,0m.6-37.086a.415.415,0,0,0-.271.109.2.2,0,0,1,.271-.109m-.109,39.53Zm.217-14.009ZM126.3,33.66c-.054,0-.054.054-.109.054V33.66h.109c.054,0,.054,0,.109-.054h.109l.054.054c-.163,0-.217-.054-.271,0m.271-24.109Zm2.824,11.023a.053.053,0,0,1,.054.054.053.053,0,0,0-.054-.054Zm.054,3.1c0,.054.054.109-.054.109a.168.168,0,0,1,.054-.109M127.06,44.14v-.163c.109.109.217.054.326.109-.163-.054-.271-.054-.326.054M127.711,5.8c-.054,0-.109,0-.109-.054h.38c-.109.054-.217.109-.271.054m.217,2.878h0v0m-.163,45.937v-.109l.109-.109c-.054.109-.109.109-.109.217m0-44.525V9.986c.054.054.109.054.163.109,0,0-.109-.054-.163,0m.489,34.969a.19.19,0,0,0,.054-.109.053.053,0,0,1,.054.054c-.054,0-.109,0-.109.054m.271,4.67a.689.689,0,0,0-.054-.326c.054.163.109.217.054.326m.054-6.027c0,.054-.054.054,0,0Zm.326-33.991h0c.054-.054,0-.054,0,0m.271,34.154c-.054,0-.054-.054,0,0Zm.109,9.991c-.054,0-.054-.054-.109-.054a.19.19,0,0,1,.109.054h0m-.054-27.692c.054,0,.163-.054.271,0a.247.247,0,0,1-.271,0m1.032-14.389Zm-.054,25.575h0Zm.109-5.81h0c0-.054.054-.054.109-.054,0,.054-.054.054-.109.054m.76,24.109c-.054,0-.054.054-.109.054a.19.19,0,0,1,.109-.054.168.168,0,0,1,.109-.054c.054,0,.109,0,.109-.054-.054.054-.163.054-.217.109m-.217-12.977a1.278,1.278,0,0,1,.434-.109c-.163.054-.271.054-.434.109m.706-30.027h-.054v-.054c0,.054,0,.054.054.054.054-.054.109-.054.217-.054h0c-.109,0-.163.054-.217.054m.109,29.05v-.054h.054c-.054,0-.054,0-.054.054m0-3.367h0s.054-.109.109-.109c-.054.054-.109.054-.109.109m.652,1.52h0c-.054,0-.054-.054,0,0Zm.271-5.7h0m.489,15.8h-.217a.749.749,0,0,0,.217-.163c0,.054-.054.163,0,.163m.054-2.063h0l-.054-.054.109.109c0-.054,0-.054-.054-.054m.38,7h-.054c0-.054.054-.054.054-.109Zm.977-32.579c.109,0,.217-.054.217.054a.19.19,0,0,0,.054.109c-.109-.054-.163-.109-.271-.163m.109-2.172.054.054-.054-.054h0c-.109.109-.054-.054,0,0m-.271-6.244a.569.569,0,0,1,.217-.163.412.412,0,0,0,.217.109,1.528,1.528,0,0,0-.434.054m1.14,10.263v.054c-.054,0,0-.054,0-.054m.163,17.321a2.309,2.309,0,0,0-.6.109c.217-.054.38-.217.6-.109Zm.76-16.67h0m.706,3.367h0a.577.577,0,0,1-.652-.38c.217.109.434.271.652.38Zm.054,6.9v-.054h.054c0-.054,0,0-.054.054m.38-5.376h0v0m1.3,1.032h0c.054,0,.054,0,.054.054.054,0,0-.054-.054-.054m0-2.552c.109-.054.163-.109.271-.054-.109-.054-.163,0-.271.054m1.846,4.018h0M141.5,38.6h-.109a.2.2,0,0,1,.163.054L141.5,38.6m.109,0a2.538,2.538,0,0,1,1.032.326,5.855,5.855,0,0,1-1.032-.326" transform="translate(0 0.131)"/>
            <path id="Path_42" data-name="Path 42" class="cls-7" d="M110.9,27.8a.234.234,0,0,1,.217.217l-2.824,14.226c0,.109-.054.109-.109,0l-3.692-14.226c-.054-.109.054-.217.163-.217Z" transform="translate(-47.745 -12.634)"/>
            <path id="Path_43" data-name="Path 43" class="cls-8" d="M121.574,67.431a.113.113,0,0,0-.217,0l-3.475,5.593c-.054.109,0,.217.109.217h6.624c.109,0,.163-.109.109-.217Z" transform="translate(-53.864 -30.709)"/>
            <path id="Path_44" data-name="Path 44" class="cls-9" d="M114.251,28.231c0-.109.054-.109.109,0l4.127,20.905c0,.109-.054.163-.109.054l-6.787-6.353a.36.36,0,0,1-.109-.38Z" transform="translate(-50.939 -12.794)"/>
            <path id="Path_45" data-name="Path 45" class="cls-10" d="M115,67.422c-.054.109-.163.109-.163-.054L111.582,55.2c-.054-.109,0-.163.109-.054l6.787,6.353a.334.334,0,0,1,.054.38Z" transform="translate(-50.984 -25.106)"/>
            <path id="Path_46" data-name="Path 46" class="cls-9" d="M124.67,62.1a.334.334,0,0,1,.054-.38l6.244-5.973c.109-.109.163-.054.109.054l-3.1,11.837c-.054.109-.109.163-.163,0Z" transform="translate(-56.959 -25.38)"/>
            <path id="Path_47" data-name="Path 47" class="cls-10" d="M130.121,28.231c.054-.109.054-.109.054,0l.923,14.552c0,.109-.054.326-.163.38l-6.244,5.973c-.109.109-.163.054-.109-.054Z" transform="translate(-56.926 -12.794)"/>
            <path id="Path_48" data-name="Path 48" class="cls-8" d="M137.769,34.458a1.2,1.2,0,0,1,.054.434l-1.9,7.873c-.054.109-.054.109-.054,0L135,28.213c0-.109.054-.163.054,0Z" transform="translate(-61.696 -12.776)"/>
            <path id="Path_49" data-name="Path 49" class="cls-11" d="M110.9,27.8a.234.234,0,0,1,.217.217l-2.824,14.226c0,.109-.054.109-.109,0l-3.692-14.226c-.054-.109.054-.217.163-.217Z" transform="translate(-47.745 -12.634)"/>
            <path id="Path_50" data-name="Path 50" class="cls-12" d="M121.574,67.431a.113.113,0,0,0-.217,0l-3.475,5.593c-.054.109,0,.217.109.217h6.624c.109,0,.163-.109.109-.217Z" transform="translate(-53.864 -30.709)"/>
            <path id="Path_51" data-name="Path 51" class="cls-13" d="M114.251,28.231c0-.109.054-.109.109,0l4.127,20.905c0,.109-.054.163-.109.054l-6.787-6.353a.36.36,0,0,1-.109-.38Z" transform="translate(-50.939 -12.794)"/>
            <path id="Path_52" data-name="Path 52" class="cls-14" d="M115,67.422c-.054.109-.163.109-.163-.054L111.582,55.2c-.054-.109,0-.163.109-.054l6.787,6.353a.334.334,0,0,1,.054.38Z" transform="translate(-50.984 -25.106)"/>
            <path id="Path_53" data-name="Path 53" class="cls-13" d="M124.67,62.1a.334.334,0,0,1,.054-.38l6.244-5.973c.109-.109.163-.054.109.054l-3.1,11.837c-.054.109-.109.163-.163,0Z" transform="translate(-56.959 -25.38)"/>
            <path id="Path_54" data-name="Path 54" class="cls-14" d="M130.121,28.231c.054-.109.054-.109.054,0l.923,14.552c0,.109-.054.326-.163.38l-6.244,5.973c-.109.109-.163.054-.109-.054Z" transform="translate(-56.926 -12.794)"/>
            <path id="Path_55" data-name="Path 55" class="cls-12" d="M137.769,34.458a1.2,1.2,0,0,1,.054.434l-1.9,7.873c-.054.109-.054.109-.054,0L135,28.213c0-.109.054-.163.054,0Z" transform="translate(-61.696 -12.776)"/>
            <path id="Path_56" data-name="Path 56" class="cls-7" d="M164.217,27.9a.234.234,0,0,0-.217.217l2.769,14.226c0,.109.054.109.109,0l3.747-14.226c.054-.109-.054-.217-.163-.217Z" transform="translate(-74.95 -12.68)"/>
            <path id="Path_57" data-name="Path 57" class="cls-8" d="M153.231,67.531a.113.113,0,0,1,.217,0l3.475,5.593c.054.109,0,.217-.109.217h-6.624c-.109,0-.163-.109-.109-.217Z" transform="translate(-68.579 -30.754)"/>
            <path id="Path_58" data-name="Path 58" class="cls-9" d="M160.39,28.231c0-.109-.054-.109-.109,0L156.1,49.137c0,.109.054.163.109.054L163,42.838a.36.36,0,0,0,.109-.38Z" transform="translate(-71.339 -12.794)"/>
            <path id="Path_59" data-name="Path 59" class="cls-10" d="M159.745,67.422c.054.109.163.109.163-.054L163.22,55.2c.054-.109,0-.163-.109-.054L156.324,61.5a.334.334,0,0,0-.054.38Z" transform="translate(-71.401 -25.106)"/>
            <path id="Path_60" data-name="Path 60" class="cls-9" d="M150.489,62.2a.334.334,0,0,0-.054-.38l-6.244-5.973c-.109-.109-.163-.054-.109.054l3.1,11.837c.054.109.109.163.163,0Z" transform="translate(-65.837 -25.426)"/>
            <path id="Path_61" data-name="Path 61" class="cls-10" d="M144.977,28.231c-.054-.109-.054-.109-.054,0L144,42.784c0,.109.054.326.163.38l6.244,5.973c.109.109.163.054.109-.054Z" transform="translate(-65.809 -12.794)"/>
            <path id="Path_62" data-name="Path 62" class="cls-8" d="M140.454,34.458a1.2,1.2,0,0,0-.054.434l1.846,7.873c.054.109.054.109.054,0l.923-14.552c0-.109-.054-.163-.054,0Z" transform="translate(-64.164 -12.776)"/>
            <path id="Path_63" data-name="Path 63" class="cls-11" d="M137.832,34.579l2.824-6.462c.054-.109,0-.217-.163-.217H134.9" transform="translate(-61.651 -12.68)"/>
            <rect id="Rectangle_10" data-name="Rectangle 10" class="cls-15" width="24.543" height="1.086" transform="translate(63.856 44.162)"/>
            <rect id="Rectangle_11" data-name="Rectangle 11" class="cls-13" width="12.272" height="1.086" transform="translate(63.856 44.162)"/>
            <rect id="Rectangle_12" data-name="Rectangle 12" class="cls-11" width="6.136" height="1.086" transform="translate(63.856 44.162)"/>
            <rect id="Rectangle_13" data-name="Rectangle 13" class="cls-16" width="6.244" height="1.086" transform="translate(76.181 44.162)"/>
            <path id="Path_64" data-name="Path 64" class="cls-17" d="M184.5,42h0" transform="translate(-84.318 -19.124)"/>
            <path id="Path_65" data-name="Path 65" class="cls-17" d="M184.5,42.2h0" transform="translate(-84.318 -19.215)"/>
            <path id="Path_66" data-name="Path 66" class="cls-17" d="M184.5,42.2v.054h0V42.2h0" transform="translate(-84.318 -19.215)"/>
            <path id="Path_67" data-name="Path 67" class="cls-17" d="M184.5,42.3h0" transform="translate(-84.318 -19.261)"/>
            <path id="Path_68" data-name="Path 68" class="cls-17" d="M184.4,42.1h0" transform="translate(-84.273 -19.169)"/>
            <path id="Path_69" data-name="Path 69" class="cls-17" d="M184,42.4h0" transform="translate(-84.09 -19.306)"/>
            <path id="Path_70" data-name="Path 70" class="cls-17" d="M184.5,42.1h0" transform="translate(-84.318 -19.169)"/>
            <path id="Path_71" data-name="Path 71" class="cls-17" d="M184.5,42.2h0" transform="translate(-84.318 -19.215)"/>
            <path id="Path_72" data-name="Path 72" class="cls-17" d="M184.4,42.3h0" transform="translate(-84.273 -19.261)"/>
            <path id="Path_73" data-name="Path 73" class="cls-17" d="M184.4,42.3h0" transform="translate(-84.273 -19.261)"/>
            <path id="Path_74" data-name="Path 74" class="cls-17" d="M184.5,41.7h0" transform="translate(-84.318 -18.986)"/>
            <path id="Path_75" data-name="Path 75" class="cls-17" d="M184.4,41.3h0" transform="translate(-84.273 -18.804)"/>
            <path id="Path_76" data-name="Path 76" class="cls-17" d="M184.4,41.3h0" transform="translate(-84.273 -18.804)"/>
            <path id="Path_77" data-name="Path 77" class="cls-17" d="M184.5,41.5h0" transform="translate(-84.318 -18.895)"/>
            <path id="Path_78" data-name="Path 78" class="cls-17" d="M184.4,41.7h0" transform="translate(-84.273 -18.986)"/>
            <path id="Path_79" data-name="Path 79" class="cls-17" d="M184.4,41.4h0" transform="translate(-84.273 -18.849)"/>
            <path id="Path_80" data-name="Path 80" class="cls-17" d="M184.1,41.3h0" transform="translate(-84.136 -18.804)"/>
          </g>
        </g>
      </g>
    </g>
  </g>
</svg>
