<svg xmlns="http://www.w3.org/2000/svg" viewBox="0 0 65 65">
  <defs>
    <style>
      .cls-1 {
        fill: #7a9ade;
      }

      .cls-2 {
        fill: #3c58bf;
      }

      .cls-3 {
        fill: #293688;
      }

      .cls-4 {
        fill: #ffbc00;
      }

      .cls-5 {
        fill: #f7981d;
      }

      .cls-6 {
        fill: #ed7c00;
      }

      .cls-7 {
        fill: #051244;
      }

      .cls-8 {
        fill: #ffb600;
      }

      .cls-9 {
        fill: #ff8500;
      }

      .cls-10 {
        fill: #ff5050;
      }

      .cls-11 {
        fill: #e52836;
      }

      .cls-12 {
        fill: #cb2026;
      }

      .cls-13 {
        fill: #fff;
      }

      .cls-14 {
        fill: #dce5e5;
      }
    </style>
  </defs>
  <g id="Group_79" data-name="Group 79" transform="translate(-796 -887)">
    <rect id="Rectangle_51" data-name="Rectangle 51" class="cls-1" width="65" height="65" rx="10" transform="translate(796 887)"/>
    <g id="Group_77" data-name="Group 77" transform="translate(0 -2)">
      <g id="visa" transform="translate(805 723.4)">
        <path id="Path_103" data-name="Path 103" class="cls-2" d="M184.8,192.7l2.187-12.3H190.4l-2.119,12.3Z" transform="translate(-169.013 -4.39)"/>
        <path id="Path_104" data-name="Path 104" class="cls-3" d="M184.8,192.7l2.8-12.3h2.8l-2.119,12.3Z" transform="translate(-169.013 -4.39)"/>
        <path id="Path_105" data-name="Path 105" class="cls-2" d="M258.456,176.147a8.668,8.668,0,0,0-3.144-.547c-3.417,0-5.877,1.709-5.877,4.169,0,1.845,1.709,2.8,3.075,3.417s1.777,1.025,1.777,1.572c0,.82-1.093,1.23-2.05,1.23a7.428,7.428,0,0,1-3.28-.683l-.478-.205L248,187.9a11.081,11.081,0,0,0,3.9.683c3.622,0,6.014-1.709,6.014-4.306,0-1.435-.888-2.529-2.939-3.417-1.23-.615-1.982-.957-1.982-1.572,0-.547.615-1.093,1.982-1.093a6.268,6.268,0,0,1,2.6.478l.342.137.547-2.665Z" transform="translate(-226.814)"/>
        <path id="Path_106" data-name="Path 106" class="cls-3" d="M258.456,176.147a8.668,8.668,0,0,0-3.144-.547c-3.417,0-5.262,1.709-5.262,4.169a3.572,3.572,0,0,0,2.46,3.417c1.367.615,1.777,1.025,1.777,1.572,0,.82-1.093,1.23-2.05,1.23a7.428,7.428,0,0,1-3.28-.683l-.478-.205L248,187.9a11.081,11.081,0,0,0,3.9.683c3.622,0,6.014-1.709,6.014-4.306,0-1.435-.888-2.529-2.939-3.417-1.23-.615-1.982-.957-1.982-1.572,0-.547.615-1.093,1.982-1.093a6.268,6.268,0,0,1,2.6.478l.342.137.547-2.665Z" transform="translate(-226.814)"/>
        <path id="Path_107" data-name="Path 107" class="cls-2" d="M365.3,180.4c-.82,0-1.435.068-1.777.888L358.4,192.7h3.69l.683-2.05h4.374l.41,2.05h3.28l-2.87-12.3Zm-1.572,8.2c.2-.615,1.367-3.622,1.367-3.622s.273-.752.478-1.23l.205,1.162s.683,3.075.82,3.759h-2.87Z" transform="translate(-327.783 -4.39)"/>
        <path id="Path_108" data-name="Path 108" class="cls-3" d="M366.123,180.4c-.82,0-1.435.068-1.777.888L358.4,192.7h3.69l.683-2.05h4.374l.41,2.05h3.28l-2.87-12.3Zm-2.392,8.2c.273-.683,1.367-3.622,1.367-3.622s.273-.752.478-1.23l.205,1.162s.683,3.075.82,3.759h-2.87Z" transform="translate(-327.783 -4.39)"/>
        <path id="Path_109" data-name="Path 109" class="cls-2" d="M56.326,189.743l-.342-1.777a9.907,9.907,0,0,0-4.784-5.4L54.275,193.5h3.69L63.5,181.2h-3.69Z" transform="translate(-46.826 -5.122)"/>
        <path id="Path_110" data-name="Path 110" class="cls-3" d="M56.326,189.743l-.342-1.777a9.907,9.907,0,0,0-4.784-5.4L54.275,193.5h3.69L63.5,181.2H60.494Z" transform="translate(-46.826 -5.122)"/>
        <path id="Path_111" data-name="Path 111" class="cls-4" d="M0,180.4l.615.137c4.374,1.025,7.381,3.622,8.543,6.7l-1.23-5.809c-.205-.82-.82-1.025-1.572-1.025Z" transform="translate(0 -4.39)"/>
        <path id="Path_112" data-name="Path 112" class="cls-5" d="M0,180.4H0c4.374,1.025,8,3.69,9.158,6.766L8,182.314a1.668,1.668,0,0,0-1.64-1.3Z" transform="translate(0 -4.39)"/>
        <path id="Path_113" data-name="Path 113" class="cls-6" d="M0,180.4H0c4.374,1.025,8,3.69,9.158,6.766l-.82-2.665A2.41,2.41,0,0,0,6.9,182.519Z" transform="translate(0 -4.39)"/>
        <g id="Group_24" data-name="Group 24" transform="translate(4.442 177.377)">
          <path id="Path_114" data-name="Path 114" class="cls-7" d="M60.474,203.234l-2.324-2.324-1.093,2.6-.273-1.709A9.907,9.907,0,0,0,52,196.4l3.075,10.935h3.69Z" transform="translate(-52 -196.4)"/>
          <path id="Path_115" data-name="Path 115" class="cls-7" d="M188.285,292.207l-2.939-3.007-.547,3.007Z" transform="translate(-173.455 -281.272)"/>
          <path id="Path_116" data-name="Path 116" class="cls-7" d="M253.946,274.8h0c.273.273.41.478.342.752,0,.82-1.093,1.23-2.05,1.23a7.428,7.428,0,0,1-3.28-.683l-.478-.205L248,278.7a11.08,11.08,0,0,0,3.9.683,6.767,6.767,0,0,0,4.989-1.709Z" transform="translate(-231.256 -268.103)"/>
          <path id="Path_117" data-name="Path 117" class="cls-7" d="M364,228.553h3.212l.683-2.05h4.374l.41,2.05h3.28l-1.162-4.989-4.1-3.964.205,1.093s.683,3.075.82,3.759h-2.87c.273-.683,1.367-3.622,1.367-3.622s.273-.752.478-1.23" transform="translate(-337.347 -217.618)"/>
        </g>
      </g>
      <g id="mastercard" transform="translate(807 817.2)">
        <path id="Path_118" data-name="Path 118" class="cls-8" d="M227.552,113.776a12.976,12.976,0,1,1-25.952,0h0a12.976,12.976,0,1,1,25.952,0Z" transform="translate(-184.298 0)"/>
        <path id="Path_119" data-name="Path 119" class="cls-5" d="M214.576,100.8a13.01,13.01,0,0,1,12.976,12.976h0a12.976,12.976,0,0,1-25.952,0" transform="translate(-184.298)"/>
        <path id="Path_120" data-name="Path 120" class="cls-9" d="M352.8,100.8a13.01,13.01,0,0,1,12.976,12.976h0A12.966,12.966,0,0,1,352.8,126.752" transform="translate(-322.522)"/>
        <path id="Path_121" data-name="Path 121" class="cls-10" d="M12.839,100.8a12.977,12.977,0,0,0,.137,25.952,13.127,13.127,0,0,0,8.719-3.364h0a12.339,12.339,0,0,0,1.3-1.373H20.322a15.839,15.839,0,0,1-.961-1.3h4.6a8.8,8.8,0,0,0,.755-1.373h-6.11a8.183,8.183,0,0,1-.549-1.373H25.2a13.633,13.633,0,0,0,.687-4.119,17.722,17.722,0,0,0-.275-2.746H17.645a10.037,10.037,0,0,1,.343-1.373h7.14a8.183,8.183,0,0,0-.549-1.373H18.537a13.616,13.616,0,0,1,.755-1.373h4.6a6.53,6.53,0,0,0-1.03-1.373h-2.54a11.7,11.7,0,0,1,1.3-1.3,12.669,12.669,0,0,0-8.719-3.364C12.908,100.8,12.908,100.8,12.839,100.8Z"/>
        <path id="Path_122" data-name="Path 122" class="cls-11" d="M0,115.239a12.966,12.966,0,0,0,12.976,12.976,13.127,13.127,0,0,0,8.719-3.364h0a12.337,12.337,0,0,0,1.3-1.373H20.322a15.837,15.837,0,0,1-.961-1.3h4.6a8.8,8.8,0,0,0,.755-1.373h-6.11a8.183,8.183,0,0,1-.549-1.373H25.2a13.633,13.633,0,0,0,.687-4.119,17.722,17.722,0,0,0-.275-2.746H17.645a10.037,10.037,0,0,1,.343-1.373h7.14a8.183,8.183,0,0,0-.549-1.373H18.537a13.616,13.616,0,0,1,.755-1.373h4.6a6.529,6.529,0,0,0-1.03-1.373h-2.54a11.7,11.7,0,0,1,1.3-1.3,12.669,12.669,0,0,0-8.719-3.364h-.069" transform="translate(0 -1.463)"/>
        <path id="Path_123" data-name="Path 123" class="cls-12" d="M149.737,128.215a13.127,13.127,0,0,0,8.719-3.364h0a12.336,12.336,0,0,0,1.3-1.373h-2.678a15.836,15.836,0,0,1-.961-1.3h4.6a8.8,8.8,0,0,0,.755-1.373h-6.11a8.184,8.184,0,0,1-.549-1.373h7.14a13.633,13.633,0,0,0,.687-4.119,17.72,17.72,0,0,0-.275-2.746h-7.964a10.038,10.038,0,0,1,.343-1.373h7.14a8.183,8.183,0,0,0-.549-1.373H155.3a13.62,13.62,0,0,1,.755-1.373h4.6a6.53,6.53,0,0,0-1.03-1.373h-2.54a11.7,11.7,0,0,1,1.3-1.3,12.669,12.669,0,0,0-8.719-3.364H149.6" transform="translate(-136.761 -1.463)"/>
        <g id="Group_25" data-name="Group 25" transform="translate(1.236 110.412)">
          <path id="Path_124" data-name="Path 124" class="cls-13" d="M183.591,226.042l.206-1.167a2.974,2.974,0,0,1-.343.069c-.481,0-.549-.275-.481-.412l.412-2.4h.755l.206-1.3h-.687L183.8,220h-1.373s-.824,4.531-.824,5.081a1.031,1.031,0,0,0,1.1,1.167A2.107,2.107,0,0,0,183.591,226.042Z" transform="translate(-167.251 -219.382)"/>
          <path id="Path_125" data-name="Path 125" class="cls-13" d="M210.4,231.8a2.184,2.184,0,0,0,2.4,2.4,3.565,3.565,0,0,0,1.442-.206l.275-1.3a4.116,4.116,0,0,1-1.442.343c-1.51,0-1.236-1.1-1.236-1.1h2.815a8.9,8.9,0,0,0,.206-1.236,1.86,1.86,0,0,0-1.991-1.991C211.43,228.57,210.4,230.081,210.4,231.8Zm2.4-1.991c.755,0,.618.893.618.961h-1.51C211.91,230.7,212.048,229.806,212.8,229.806Z" transform="translate(-193.579 -227.334)"/>
          <path id="Path_126" data-name="Path 126" class="cls-13" d="M299.776,219.46l.275-1.51a3.374,3.374,0,0,1-1.167.343c-.961,0-1.373-.755-1.373-1.579,0-1.648.824-2.54,1.785-2.54a2.293,2.293,0,0,1,1.236.412l.206-1.442a4.827,4.827,0,0,0-1.579-.343c-1.579,0-3.158,1.373-3.158,3.982,0,1.716.824,2.884,2.472,2.884A6.161,6.161,0,0,0,299.776,219.46Z" transform="translate(-271.833 -212.8)"/>
          <path id="Path_127" data-name="Path 127" class="cls-13" d="M89.009,227.2a4.862,4.862,0,0,0-1.648.275l-.206,1.167a4.058,4.058,0,0,1,1.51-.275c.481,0,.893.069.893.481,0,.275-.069.343-.069.343h-.618c-1.167,0-2.472.481-2.472,2.06,0,1.236.824,1.51,1.3,1.51a2.063,2.063,0,0,0,1.442-.618l-.069.549h1.236l.549-3.776A1.627,1.627,0,0,0,89.009,227.2Zm.275,3.09c0,.206-.137,1.3-.961,1.3a.536.536,0,0,1-.549-.549c0-.343.206-.824,1.236-.824A1.082,1.082,0,0,0,89.284,230.29Z" transform="translate(-80.221 -225.964)"/>
          <path id="Path_128" data-name="Path 128" class="cls-13" d="M136.779,232.03a1.76,1.76,0,0,0,2.06-1.785c0-1.716-1.648-1.373-1.648-2.06,0-.343.275-.481.755-.481.206,0,.961.069.961.069l.206-1.236a5.216,5.216,0,0,0-1.3-.137c-1.03,0-2.06.412-2.06,1.785,0,1.579,1.716,1.442,1.716,2.06,0,.412-.481.481-.824.481a4.49,4.49,0,0,1-1.236-.206l-.206,1.236C135.269,231.893,135.612,232.03,136.779,232.03Z" transform="translate(-124.833 -225.233)"/>
          <path id="Path_129" data-name="Path 129" class="cls-13" d="M431.113,214.4l-.275,1.854a1.9,1.9,0,0,0-1.3-.687c-1.236,0-2.334,1.51-2.334,3.3,0,1.1.549,2.266,1.716,2.266a1.833,1.833,0,0,0,1.3-.549l-.069.481h1.373l1.03-6.591Zm-.618,3.639c0,.755-.343,1.716-1.1,1.716-.481,0-.755-.412-.755-1.1,0-1.1.481-1.785,1.1-1.785C430.221,216.872,430.5,217.215,430.5,218.039Z" transform="translate(-391.773 -214.263)"/>
          <path id="Path_130" data-name="Path 130" class="cls-13" d="M15.7,220.991l.824-4.943.137,4.943h.961l1.785-4.943-.755,4.943H20.1l1.1-6.591H18.931l-1.373,4.051L17.49,214.4H15.5l-1.1,6.591Z" transform="translate(-14.4 -214.263)"/>
          <path id="Path_131" data-name="Path 131" class="cls-13" d="M261.51,234.155c.412-2.266.481-4.119,1.442-3.776a5.389,5.389,0,0,1,.481-1.579h-.275c-.618,0-1.1.824-1.1.824l.137-.755h-1.3L260,234.224h1.51Z" transform="translate(-238.922 -227.427)"/>
          <path id="Path_132" data-name="Path 132" class="cls-13" d="M349.009,227.2a4.863,4.863,0,0,0-1.648.275l-.206,1.167a4.058,4.058,0,0,1,1.51-.275c.481,0,.893.069.893.481,0,.275-.069.343-.069.343h-.618c-1.167,0-2.472.481-2.472,2.06,0,1.236.824,1.51,1.3,1.51a2.063,2.063,0,0,0,1.442-.618l-.069.549h1.236l.549-3.776A1.6,1.6,0,0,0,349.009,227.2Zm.343,3.09c0,.206-.137,1.3-.961,1.3a.536.536,0,0,1-.549-.549c0-.343.206-.824,1.236-.824C349.284,230.29,349.284,230.29,349.352,230.29Z" transform="translate(-317.907 -225.964)"/>
          <path id="Path_133" data-name="Path 133" class="cls-13" d="M395.91,234.155c.412-2.266.481-4.119,1.442-3.776a5.389,5.389,0,0,1,.481-1.579h-.275c-.618,0-1.1.824-1.1.824l.137-.755h-1.3l-.893,5.355h1.51Z" transform="translate(-361.788 -227.427)"/>
        </g>
        <g id="Group_26" data-name="Group 26" transform="translate(1.236 110.412)">
          <path id="Path_134" data-name="Path 134" class="cls-14" d="M180,225.081a1.031,1.031,0,0,0,1.1,1.167,2.614,2.614,0,0,0,1.03-.206l.206-1.167a2.973,2.973,0,0,1-.343.069c-.481,0-.549-.275-.481-.412l.412-2.4h.755l.206-1.3H182.2l.137-.824" transform="translate(-165.788 -219.382)"/>
          <path id="Path_135" data-name="Path 135" class="cls-14" d="M218.4,231.8c0,1.922.618,2.4,1.716,2.4a3.565,3.565,0,0,0,1.442-.206l.275-1.3a4.116,4.116,0,0,1-1.442.343c-1.51,0-1.236-1.1-1.236-1.1h2.815a8.9,8.9,0,0,0,.206-1.236,1.86,1.86,0,0,0-1.991-1.991C218.743,228.57,218.4,230.081,218.4,231.8Zm1.716-1.991c.755,0,.893.893.893.961h-1.785C219.224,230.7,219.361,229.806,220.116,229.806Z" transform="translate(-200.892 -227.334)"/>
          <path id="Path_136" data-name="Path 136" class="cls-14" d="M307.09,219.46l.275-1.51a3.374,3.374,0,0,1-1.167.343c-.961,0-1.373-.755-1.373-1.579,0-1.648.824-2.54,1.785-2.54a2.293,2.293,0,0,1,1.236.412l.206-1.442a4.827,4.827,0,0,0-1.579-.343c-1.579,0-2.472,1.373-2.472,3.982,0,1.716.137,2.884,1.785,2.884A6.161,6.161,0,0,0,307.09,219.46Z" transform="translate(-279.146 -212.8)"/>
          <path id="Path_137" data-name="Path 137" class="cls-14" d="M87.155,230.173a4.058,4.058,0,0,1,1.51-.275c.481,0,.893.069.893.481,0,.275-.069.343-.069.343h-.618c-1.167,0-2.472.481-2.472,2.06,0,1.236.824,1.51,1.3,1.51a2.063,2.063,0,0,0,1.442-.618l-.069.549h1.236l.549-3.776c0-1.579-1.373-1.648-1.922-1.648m1.03,2.952a2.248,2.248,0,0,1-1.648,1.3.536.536,0,0,1-.549-.549c0-.343.206-.824,1.236-.824A5.61,5.61,0,0,0,89.97,231.752Z" transform="translate(-80.221 -227.427)"/>
          <path id="Path_138" data-name="Path 138" class="cls-14" d="M136,231.893a5.81,5.81,0,0,0,1.579.137,1.76,1.76,0,0,0,2.06-1.785c0-1.716-1.648-1.373-1.648-2.06,0-.343.275-.481.755-.481.206,0,.961.069.961.069l.206-1.236a5.216,5.216,0,0,0-1.3-.137c-1.03,0-1.373.412-1.373,1.785,0,1.579,1.03,1.442,1.03,2.06,0,.412-.481.481-.824.481" transform="translate(-125.564 -225.233)"/>
          <path id="Path_139" data-name="Path 139" class="cls-14" d="M438.1,216.985a1.9,1.9,0,0,0-1.3-.687c-1.236,0-1.648,1.51-1.648,3.3,0,1.1-.137,2.266,1.03,2.266a1.833,1.833,0,0,0,1.3-.549l-.069.481h1.373l1.03-6.591m-1.785,3.57c0,.755-.618,1.716-1.373,1.716-.481,0-.755-.412-.755-1.1,0-1.1.481-1.785,1.1-1.785A1.049,1.049,0,0,1,438.03,218.77Z" transform="translate(-399.033 -214.994)"/>
          <path id="Path_140" data-name="Path 140" class="cls-14" d="M15.7,220.991l.824-4.943.137,4.943h.961l1.785-4.943-.755,4.943H20.1l1.1-6.591H19.481l-1.922,4.051L17.49,214.4h-.755L14.4,220.991Z" transform="translate(-14.4 -214.263)"/>
          <path id="Path_141" data-name="Path 141" class="cls-14" d="M260.8,234.155h1.442c.412-2.266.481-4.119,1.442-3.776a5.389,5.389,0,0,1,.481-1.579h-.275c-.618,0-1.1.824-1.1.824l.137-.755" transform="translate(-239.654 -227.427)"/>
          <path id="Path_142" data-name="Path 142" class="cls-14" d="M347.155,230.173a4.059,4.059,0,0,1,1.51-.275c.481,0,.893.069.893.481,0,.275-.069.343-.069.343h-.618c-1.167,0-2.472.481-2.472,2.06,0,1.236.824,1.51,1.3,1.51a2.063,2.063,0,0,0,1.442-.618l-.069.549h1.236l.549-3.776c0-1.579-1.373-1.648-1.922-1.648m1.03,2.952a2.248,2.248,0,0,1-1.648,1.3.536.536,0,0,1-.549-.549c0-.343.206-.824,1.236-.824A6.041,6.041,0,0,0,349.97,231.752Z" transform="translate(-317.907 -227.427)"/>
          <path id="Path_143" data-name="Path 143" class="cls-14" d="M395.2,234.155h1.442c.412-2.266.481-4.119,1.442-3.776a5.389,5.389,0,0,1,.481-1.579h-.275c-.618,0-1.1.824-1.1.824l.137-.755" transform="translate(-362.519 -227.427)"/>
        </g>
      </g>
    </g>
  </g>
</svg>
