<svg xmlns="http://www.w3.org/2000/svg" viewBox="0 0 65 65">
  <defs>
    <style>
      .cls-1 {
        fill: #224287;
      }

      .cls-2 {
        fill: #ffb600;
      }

      .cls-3 {
        fill: #f7981d;
      }

      .cls-4 {
        fill: #ff8500;
      }

      .cls-5 {
        fill: #ff5050;
      }

      .cls-6 {
        fill: #e52836;
      }

      .cls-7 {
        fill: #cb2026;
      }

      .cls-8 {
        fill: #fff;
      }

      .cls-9 {
        fill: #dce5e5;
      }
    </style>
  </defs>
  <g id="Group_40" data-name="Group 40" transform="translate(-280 -516)">
    <rect id="Rectangle_17" data-name="Rectangle 17" class="cls-1" width="65" height="65" rx="10" transform="translate(280 516)"/>
    <g id="mastercard" transform="translate(288 433.2)">
      <path id="Path_118" data-name="Path 118" class="cls-2" d="M231.3,115.651a14.851,14.851,0,1,1-29.7,0h0a14.851,14.851,0,1,1,29.7,0Z" transform="translate(-181.799 0)"/>
      <path id="Path_119" data-name="Path 119" class="cls-3" d="M216.451,100.8A14.889,14.889,0,0,1,231.3,115.651h0a14.851,14.851,0,0,1-29.7,0" transform="translate(-181.799)"/>
      <path id="Path_120" data-name="Path 120" class="cls-4" d="M352.8,100.8a14.889,14.889,0,0,1,14.851,14.851h0A14.839,14.839,0,0,1,352.8,130.5" transform="translate(-318.148)"/>
      <path id="Path_121" data-name="Path 121" class="cls-5" d="M14.694,100.8a14.851,14.851,0,0,0,.157,29.7,15.024,15.024,0,0,0,9.979-3.85h0a14.121,14.121,0,0,0,1.493-1.572H23.258a18.127,18.127,0,0,1-1.1-1.493h5.265a10.066,10.066,0,0,0,.864-1.572H21.294a9.365,9.365,0,0,1-.629-1.572h8.172a15.6,15.6,0,0,0,.786-4.715,20.282,20.282,0,0,0-.314-3.143H20.194a11.488,11.488,0,0,1,.393-1.572h8.172a9.365,9.365,0,0,0-.629-1.572H21.215a15.583,15.583,0,0,1,.864-1.572h5.265a7.473,7.473,0,0,0-1.179-1.572H23.258a13.393,13.393,0,0,1,1.493-1.493,14.5,14.5,0,0,0-9.979-3.85C14.772,100.8,14.772,100.8,14.694,100.8Z"/>
      <path id="Path_122" data-name="Path 122" class="cls-6" d="M0,117.094a14.839,14.839,0,0,0,14.851,14.851,15.024,15.024,0,0,0,9.979-3.85h0a14.119,14.119,0,0,0,1.493-1.572H23.258a18.124,18.124,0,0,1-1.1-1.493h5.265a10.066,10.066,0,0,0,.864-1.572H21.294a9.365,9.365,0,0,1-.629-1.572h8.172a15.6,15.6,0,0,0,.786-4.715,20.282,20.282,0,0,0-.314-3.143H20.194a11.487,11.487,0,0,1,.393-1.572h8.172a9.365,9.365,0,0,0-.629-1.572H21.215a15.583,15.583,0,0,1,.864-1.572h5.265a7.473,7.473,0,0,0-1.179-1.572H23.258a13.394,13.394,0,0,1,1.493-1.493,14.5,14.5,0,0,0-9.979-3.85h-.079" transform="translate(0 -1.443)"/>
      <path id="Path_123" data-name="Path 123" class="cls-7" d="M149.757,131.944a15.024,15.024,0,0,0,9.979-3.85h0a14.119,14.119,0,0,0,1.493-1.572h-3.064a18.123,18.123,0,0,1-1.1-1.493h5.265a10.065,10.065,0,0,0,.864-1.572H156.2a9.366,9.366,0,0,1-.629-1.572h8.172a15.6,15.6,0,0,0,.786-4.715,20.28,20.28,0,0,0-.314-3.143H155.1a11.488,11.488,0,0,1,.393-1.572h8.172a9.366,9.366,0,0,0-.629-1.572h-6.915a15.587,15.587,0,0,1,.864-1.572h5.265a7.473,7.473,0,0,0-1.179-1.572h-2.907a13.4,13.4,0,0,1,1.493-1.493,14.5,14.5,0,0,0-9.979-3.85H149.6" transform="translate(-134.906 -1.443)"/>
      <g id="Group_25" data-name="Group 25" transform="translate(1.414 111.801)">
        <path id="Path_124" data-name="Path 124" class="cls-8" d="M183.879,226.915l.236-1.336a3.4,3.4,0,0,1-.393.079c-.55,0-.629-.314-.55-.471l.471-2.75h.864l.236-1.493h-.786l.157-.943h-1.572s-.943,5.186-.943,5.815a1.18,1.18,0,0,0,1.257,1.336A2.412,2.412,0,0,0,183.879,226.915Z" transform="translate(-165.178 -219.293)"/>
        <path id="Path_125" data-name="Path 125" class="cls-8" d="M210.4,232.245a2.5,2.5,0,0,0,2.75,2.75,4.08,4.08,0,0,0,1.65-.236l.314-1.493a4.71,4.71,0,0,1-1.65.393c-1.729,0-1.414-1.257-1.414-1.257h3.222a10.188,10.188,0,0,0,.236-1.414,2.129,2.129,0,0,0-2.279-2.279C211.579,228.552,210.4,230.28,210.4,232.245Zm2.75-2.279c.864,0,.707,1.021.707,1.1h-1.729C212.129,230.987,212.286,229.966,213.15,229.966Z" transform="translate(-191.149 -227.137)"/>
        <path id="Path_126" data-name="Path 126" class="cls-8" d="M300.322,220.422l.314-1.729a3.862,3.862,0,0,1-1.336.393c-1.1,0-1.572-.864-1.572-1.807,0-1.886.943-2.907,2.043-2.907a2.624,2.624,0,0,1,1.414.471l.236-1.65a5.524,5.524,0,0,0-1.807-.393c-1.807,0-3.614,1.572-3.614,4.557,0,1.964.943,3.3,2.829,3.3A7.052,7.052,0,0,0,300.322,220.422Z" transform="translate(-268.341 -212.8)"/>
        <path id="Path_127" data-name="Path 127" class="cls-8" d="M89.386,227.2a5.565,5.565,0,0,0-1.886.314l-.236,1.336a4.645,4.645,0,0,1,1.729-.314c.55,0,1.021.079,1.021.55,0,.314-.079.393-.079.393h-.707c-1.336,0-2.829.55-2.829,2.357,0,1.414.943,1.729,1.493,1.729a2.361,2.361,0,0,0,1.65-.707l-.079.629h1.414l.629-4.322A1.862,1.862,0,0,0,89.386,227.2Zm.314,3.536c0,.236-.157,1.493-1.1,1.493a.613.613,0,0,1-.629-.629c0-.393.236-.943,1.414-.943A1.239,1.239,0,0,0,89.7,230.736Z" transform="translate(-79.328 -225.786)"/>
        <path id="Path_128" data-name="Path 128" class="cls-8" d="M137.007,232.843a2.014,2.014,0,0,0,2.357-2.043c0-1.964-1.886-1.572-1.886-2.357,0-.393.314-.55.864-.55.236,0,1.1.079,1.1.079l.236-1.414a5.97,5.97,0,0,0-1.493-.157c-1.179,0-2.357.471-2.357,2.043,0,1.807,1.964,1.65,1.964,2.357,0,.471-.55.55-.943.55a5.138,5.138,0,0,1-1.414-.236l-.236,1.414C135.279,232.686,135.671,232.843,137.007,232.843Z" transform="translate(-123.335 -225.064)"/>
        <path id="Path_129" data-name="Path 129" class="cls-8" d="M431.679,214.4l-.314,2.122a2.179,2.179,0,0,0-1.493-.786c-1.414,0-2.672,1.729-2.672,3.772,0,1.257.629,2.593,1.964,2.593a2.1,2.1,0,0,0,1.493-.629l-.079.55h1.572l1.179-7.543Zm-.707,4.165c0,.864-.393,1.964-1.257,1.964-.55,0-.864-.471-.864-1.257,0-1.257.55-2.043,1.257-2.043C430.657,217.229,430.972,217.622,430.972,218.564Z" transform="translate(-386.655 -214.243)"/>
        <path id="Path_130" data-name="Path 130" class="cls-8" d="M15.893,221.943l.943-5.657.157,5.657h1.1l2.043-5.657-.864,5.657h1.65l1.257-7.543H19.586l-1.572,4.636-.079-4.636H15.657L14.4,221.943Z" transform="translate(-14.4 -214.243)"/>
        <path id="Path_131" data-name="Path 131" class="cls-8" d="M261.729,234.929c.471-2.593.55-4.715,1.65-4.322a6.168,6.168,0,0,1,.55-1.807h-.314c-.707,0-1.257.943-1.257.943l.157-.864h-1.493L260,235.008h1.729Z" transform="translate(-235.877 -227.229)"/>
        <path id="Path_132" data-name="Path 132" class="cls-8" d="M349.386,227.2a5.565,5.565,0,0,0-1.886.314l-.236,1.336a4.644,4.644,0,0,1,1.729-.314c.55,0,1.021.079,1.021.55,0,.314-.079.393-.079.393h-.707c-1.336,0-2.829.55-2.829,2.357,0,1.414.943,1.729,1.493,1.729a2.361,2.361,0,0,0,1.65-.707l-.079.629h1.414l.629-4.322A1.835,1.835,0,0,0,349.386,227.2Zm.393,3.536c0,.236-.157,1.493-1.1,1.493a.613.613,0,0,1-.629-.629c0-.393.236-.943,1.414-.943C349.7,230.736,349.7,230.736,349.779,230.736Z" transform="translate(-313.791 -225.786)"/>
        <path id="Path_133" data-name="Path 133" class="cls-8" d="M396.129,234.929c.471-2.593.55-4.715,1.65-4.322a6.167,6.167,0,0,1,.55-1.807h-.314c-.707,0-1.257.943-1.257.943l.157-.864h-1.493l-1.022,6.129h1.729Z" transform="translate(-357.077 -227.229)"/>
      </g>
      <g id="Group_26" data-name="Group 26" transform="translate(1.414 111.801)">
        <path id="Path_134" data-name="Path 134" class="cls-9" d="M180,225.815a1.179,1.179,0,0,0,1.257,1.336,2.991,2.991,0,0,0,1.179-.236l.236-1.336a3.4,3.4,0,0,1-.393.079c-.55,0-.629-.314-.55-.471l.471-2.75h.864l.236-1.493h-.786l.157-.943" transform="translate(-163.735 -219.293)"/>
        <path id="Path_135" data-name="Path 135" class="cls-9" d="M218.4,232.245c0,2.2.707,2.75,1.964,2.75a4.08,4.08,0,0,0,1.65-.236l.314-1.493a4.71,4.71,0,0,1-1.65.393c-1.729,0-1.414-1.257-1.414-1.257h3.222a10.188,10.188,0,0,0,.236-1.414,2.129,2.129,0,0,0-2.279-2.279C218.793,228.552,218.4,230.28,218.4,232.245Zm1.964-2.279c.864,0,1.021,1.021,1.021,1.1h-2.043C219.343,230.987,219.5,229.966,220.364,229.966Z" transform="translate(-198.363 -227.137)"/>
        <path id="Path_136" data-name="Path 136" class="cls-9" d="M307.536,220.422l.314-1.729a3.862,3.862,0,0,1-1.336.393c-1.1,0-1.572-.864-1.572-1.807,0-1.886.943-2.907,2.043-2.907a2.624,2.624,0,0,1,1.414.471l.236-1.65a5.525,5.525,0,0,0-1.807-.393c-1.807,0-2.829,1.572-2.829,4.557,0,1.964.157,3.3,2.043,3.3A7.052,7.052,0,0,0,307.536,220.422Z" transform="translate(-275.556 -212.8)"/>
        <path id="Path_137" data-name="Path 137" class="cls-9" d="M87.264,230.372a4.645,4.645,0,0,1,1.729-.314c.55,0,1.021.079,1.021.55,0,.314-.079.393-.079.393h-.707c-1.336,0-2.829.55-2.829,2.357,0,1.414.943,1.729,1.493,1.729a2.361,2.361,0,0,0,1.65-.707l-.079.629h1.414l.629-4.322c0-1.807-1.572-1.886-2.2-1.886m1.179,3.379a2.573,2.573,0,0,1-1.886,1.493.613.613,0,0,1-.629-.629c0-.393.236-.943,1.414-.943A6.42,6.42,0,0,0,90.486,232.179Z" transform="translate(-79.328 -227.228)"/>
        <path id="Path_138" data-name="Path 138" class="cls-9" d="M136,232.686a6.65,6.65,0,0,0,1.807.157,2.014,2.014,0,0,0,2.357-2.043c0-1.964-1.886-1.572-1.886-2.357,0-.393.314-.55.864-.55.236,0,1.1.079,1.1.079l.236-1.414a5.97,5.97,0,0,0-1.493-.157c-1.179,0-1.572.471-1.572,2.043,0,1.807,1.179,1.65,1.179,2.357,0,.471-.55.55-.943.55" transform="translate(-124.056 -225.064)"/>
        <path id="Path_139" data-name="Path 139" class="cls-9" d="M438.526,217.243a2.179,2.179,0,0,0-1.493-.786c-1.414,0-1.886,1.729-1.886,3.772,0,1.257-.157,2.593,1.179,2.593a2.1,2.1,0,0,0,1.493-.629l-.079.55h1.572l1.179-7.543m-2.043,4.086c0,.864-.707,1.964-1.572,1.964-.55,0-.864-.471-.864-1.257,0-1.257.55-2.043,1.257-2.043A1.2,1.2,0,0,1,438.448,219.286Z" transform="translate(-393.817 -214.964)"/>
        <path id="Path_140" data-name="Path 140" class="cls-9" d="M15.893,221.943l.943-5.657.157,5.657h1.1l2.043-5.657-.864,5.657h1.65l1.257-7.543H20.215l-2.2,4.636-.079-4.636h-.864L14.4,221.943Z" transform="translate(-14.4 -214.243)"/>
        <path id="Path_141" data-name="Path 141" class="cls-9" d="M260.8,234.929h1.65c.471-2.593.55-4.715,1.65-4.322a6.167,6.167,0,0,1,.55-1.807h-.314c-.707,0-1.257.943-1.257.943l.157-.864" transform="translate(-236.599 -227.229)"/>
        <path id="Path_142" data-name="Path 142" class="cls-9" d="M347.264,230.372a4.645,4.645,0,0,1,1.729-.314c.55,0,1.021.079,1.021.55,0,.314-.079.393-.079.393h-.707c-1.336,0-2.829.55-2.829,2.357,0,1.414.943,1.729,1.493,1.729a2.361,2.361,0,0,0,1.65-.707l-.079.629h1.414l.629-4.322c0-1.807-1.572-1.886-2.2-1.886m1.179,3.379a2.573,2.573,0,0,1-1.886,1.493.613.613,0,0,1-.629-.629c0-.393.236-.943,1.414-.943A6.913,6.913,0,0,0,350.486,232.179Z" transform="translate(-313.791 -227.228)"/>
        <path id="Path_143" data-name="Path 143" class="cls-9" d="M395.2,234.929h1.65c.471-2.593.55-4.715,1.65-4.322a6.167,6.167,0,0,1,.55-1.807h-.314c-.707,0-1.257.943-1.257.943l.157-.864" transform="translate(-357.798 -227.229)"/>
      </g>
    </g>
  </g>
</svg>
