<svg xmlns="http://www.w3.org/2000/svg" viewBox="0 0 65 65">
  <defs>
    <style>
      .cls-1 {
        fill: #224287;
      }

      .cls-2 {
        fill: #263b80;
      }

      .cls-3 {
        fill: #139ad6;
      }

      .cls-4 {
        fill: #232c65;
      }

      .cls-5 {
        fill: #2a4dad;
      }

      .cls-6 {
        fill: #0d7dbc;
      }

      .cls-7 {
        fill: #436bc4;
      }

      .cls-8 {
        fill: #0cb2ed;
      }

      .cls-9 {
        opacity: 0.6;
      }

      .cls-10 {
        fill: #33e2ff;
      }
    </style>
  </defs>
  <g id="Group_38" data-name="Group 38" transform="translate(-104 -516)">
    <rect id="Rectangle_17" data-name="Rectangle 17" class="cls-1" width="65" height="65" rx="10" transform="translate(104 516)"/>
    <g id="paypal" transform="translate(78.598 524)">
      <path id="Path_83" data-name="Path 83" class="cls-2" d="M72.746,3.667C70.513,1.116,66.368,0,61.185,0H45.958A2.218,2.218,0,0,0,43.8,1.834L37.427,42.016A1.283,1.283,0,0,0,38.7,43.531H48.11L50.5,28.542l-.08.478a2.155,2.155,0,0,1,2.153-1.834H57.04c8.77,0,15.626-3.588,17.62-13.872.08-.319.08-.638.159-.877h0c.558-3.827,0-6.378-2.073-8.77" transform="translate(0 0)"/>
      <path id="Path_84" data-name="Path 84" class="cls-3" d="M165.717,124.8h0c-.08.319-.08.558-.159.877-1.993,10.285-8.85,13.872-17.62,13.872h-4.465a2.218,2.218,0,0,0-2.153,1.834l-2.95,18.576a1.16,1.16,0,0,0,1.116,1.355h7.893a1.968,1.968,0,0,0,1.913-1.595l.08-.4,1.515-9.408.08-.558a1.894,1.894,0,0,1,1.913-1.595h1.2c7.654,0,13.633-3.109,15.387-12.118.718-3.747.319-6.936-1.595-9.089a9.035,9.035,0,0,0-2.153-1.754" transform="translate(-90.898 -112.363)"/>
      <path id="Path_85" data-name="Path 85" class="cls-4" d="M190.293,110.318l-.957-.239a4.04,4.04,0,0,0-1.036-.159,20.406,20.406,0,0,0-3.907-.319H172.514a2.359,2.359,0,0,0-.8.159,1.8,1.8,0,0,0-1.036,1.435l-2.551,16.025-.08.478a2.155,2.155,0,0,1,2.153-1.834h4.465c8.77,0,15.626-3.588,17.62-13.872.08-.319.08-.638.159-.877a17.561,17.561,0,0,0-1.674-.718c-.159,0-.319-.08-.478-.08" transform="translate(-117.627 -98.677)"/>
      <path id="Path_86" data-name="Path 86" class="cls-5" d="M85.817,0H70.669a2.218,2.218,0,0,0-2.153,1.834L64.849,24.8,89.4.239A25.4,25.4,0,0,0,85.817,0Z" transform="translate(-24.711 0)"/>
      <path id="Path_87" data-name="Path 87" class="cls-6" d="M172.267,127.67a9.491,9.491,0,0,0-.718-1.2A9.137,9.137,0,0,0,169.4,124.8c-.08.319-.08.558-.159.877-1.993,10.285-8.85,13.872-17.62,13.872h-4.465A2.218,2.218,0,0,0,145,141.383l-2.551,16.1Z" transform="translate(-94.578 -112.363)"/>
      <path id="Path_88" data-name="Path 88" class="cls-4" d="M38.856,300.668h9.408l2.312-14.51a1.152,1.152,0,0,1,.159-.558L37.66,298.675l-.08.478A1.326,1.326,0,0,0,38.856,300.668Z" transform="translate(-0.154 -257.138)"/>
      <path id="Path_89" data-name="Path 89" class="cls-7" d="M94.471,0H82.193a2.359,2.359,0,0,0-.8.159l-1.2,1.2a1.133,1.133,0,0,0-.159.478L77.649,16.822Z" transform="translate(-36.236 0)"/>
      <g id="Group_22" data-name="Group 22" transform="translate(49.784 19.772)">
        <path id="Path_90" data-name="Path 90" class="cls-8" d="M312.877,201.828a17.16,17.16,0,0,0,.319-3.428l-15.547,15.547C305.223,213.867,311.123,210.758,312.877,201.828Z" transform="translate(-284.095 -198.4)"/>
        <path id="Path_91" data-name="Path 91" class="cls-8" d="M170.339,399.173l1.276-7.973-9.966,9.966h6.777a1.968,1.968,0,0,0,1.913-1.594v-.4Z" transform="translate(-161.649 -371.986)"/>
      </g>
      <g id="Group_23" data-name="Group 23" class="cls-9" transform="translate(47.632 13.474)">
        <path id="Path_92" data-name="Path 92" class="cls-10" d="M408.049,136.316l4.544,4.544a12.106,12.106,0,0,0-.239-1.674l-3.986-3.986A5.873,5.873,0,0,0,408.049,136.316Z" transform="translate(-381.341 -135.2)"/>
        <path id="Path_93" data-name="Path 93" class="cls-10" d="M392.527,180l-.478.957,5.5,5.5.239-1.2h0Z" transform="translate(-366.935 -175.535)"/>
        <path id="Path_94" data-name="Path 94" class="cls-10" d="M375.068,223.816l.478-.957-6.059-6.059c-.239.239-.4.558-.638.8Z" transform="translate(-346.047 -208.668)"/>
        <path id="Path_95" data-name="Path 95" class="cls-10" d="M335.249,245.358l6.936,6.936.718-.718-6.777-6.777A5.366,5.366,0,0,0,335.249,245.358Z" transform="translate(-315.796 -233.877)"/>
        <path id="Path_96" data-name="Path 96" class="cls-10" d="M292.849,263.519l7.574,7.574.957-.478-7.415-7.415C293.567,263.28,293.248,263.439,292.849,263.519Z" transform="translate(-277.621 -250.444)"/>
        <path id="Path_97" data-name="Path 97" class="cls-10" d="M248.1,280.132c.4-.08.877-.08,1.276-.16L241.4,272c-.478,0-.877.08-1.355.08Z" transform="translate(-230.083 -258.367)"/>
        <path id="Path_98" data-name="Path 98" class="cls-10" d="M184.525,272.8h-.638c-.239,0-.478.08-.638.08l8.611,8.69a2.064,2.064,0,0,1,.877-.558Z" transform="translate(-178.944 -259.087)"/>
        <path id="Path_99" data-name="Path 99" class="cls-10" d="M164.049,302.876l9.408,9.408.239-1.276-9.408-9.408Z" transform="translate(-161.657 -285.017)"/>
        <path id="Path_100" data-name="Path 100" class="cls-10" d="M156.049,354l9.408,9.408.239-1.2-9.408-9.408Z" transform="translate(-154.454 -331.114)"/>
        <path id="Path_101" data-name="Path 101" class="cls-10" d="M149.008,403.2l-.159,1.276,7.494,7.494h.558a2.328,2.328,0,0,0,.718-.159Z" transform="translate(-147.972 -376.492)"/>
        <path id="Path_102" data-name="Path 102" class="cls-10" d="M140.049,455.6l2.472,2.472h1.435l-3.667-3.667Z" transform="translate(-140.049 -422.589)"/>
      </g>
    </g>
  </g>
</svg>
