<svg xmlns="http://www.w3.org/2000/svg" viewBox="0 0 65 65">
  <defs>
    <style>
      .cls-1 {
        fill: #030310;
      }

      .cls-2 {
        fill: #fcb316;
        fill-rule: evenodd;
      }
    </style>
  </defs>
  <g id="Group_42" data-name="Group 42" transform="translate(-456 -516)">
    <rect id="Rectangle_17" data-name="Rectangle 17" class="cls-1" width="65" height="65" rx="10" transform="translate(456 516)"/>
    <g id="Group_29" data-name="Group 29" transform="translate(-112.148 49.044)">
      <path id="Path_170" data-name="Path 170" class="cls-2" d="M50.088,51.051a10.6,10.6,0,0,0-.836-1.428,20.391,20.391,0,0,0-2.165-2.311c-.267-.093-.38-.339-.639-.442a3.641,3.641,0,0,0-.639-.491,12.652,12.652,0,0,0-1.376-.887,14.544,14.544,0,0,0-3.148-1.327c-1.205-.287-2.473-.511-3.786-.688a11.645,11.645,0,0,1-3.59-.886,8.036,8.036,0,0,1-1.476-.737A8.208,8.208,0,0,1,31.1,40.92a6.062,6.062,0,0,1-1.132-1.131,5.524,5.524,0,0,1-.442-.689c-.131-.049-.162-.2-.246-.295s-.09-.3-.247-.344a7.228,7.228,0,0,0,0,1.672c.066.229.089.5.148.737.041.206.225.527.147.688a18.043,18.043,0,0,1-9.345-3.1,18.435,18.435,0,0,1-3.294-2.9,20.056,20.056,0,0,1-1.28-1.82c-.4-.651-.723-1.374-1.08-2.066a18.334,18.334,0,0,1-1.329-4.868,15.617,15.617,0,0,1,.2-5.558,15.357,15.357,0,0,1,.689-2.41c.17-.353.34-.708.491-1.082a6.956,6.956,0,0,1,.591-.984,12.429,12.429,0,0,1,2.9-3.344,12.112,12.112,0,0,1,4.18-2.016,13.553,13.553,0,0,1,5.411-.049,16.86,16.86,0,0,1,8.213,4.23,18.737,18.737,0,0,1,5.065,7.377,16.371,16.371,0,0,1,.54,10.475q-.659-.373-1.328-.738a9.33,9.33,0,0,0-1.671-.393,4.546,4.546,0,0,0-1.968.247,6.076,6.076,0,0,1,3.2.786,6.043,6.043,0,0,1,1.426,1.033A7.379,7.379,0,0,1,43.3,38.51c0,.052.063.039.048-.049.056-.011.077-.055.1-.1a2.455,2.455,0,0,0,.2-.246,2.081,2.081,0,0,0,.343-.492,6.561,6.561,0,0,0,.688-1.033,23.568,23.568,0,0,0,1.23-2.213,23.176,23.176,0,0,0,1.623-5.262,19.339,19.339,0,0,0-1.623-11.459,18.585,18.585,0,0,0-6.393-7.328,19.326,19.326,0,0,0-10.476-3.3c-.02-.084-.063.01-.147,0a20.821,20.821,0,0,0-6.147.738,19.157,19.157,0,0,0-2.558.934,25.141,25.141,0,0,0-2.41,1.131c-.3.276-.734.415-1.033.689-.394.2-.682.5-1.081.688-.629.552-1.31,1.051-1.919,1.623-.611.552-1.135,1.192-1.721,1.77a1.519,1.519,0,0,1-.393.492,1.681,1.681,0,0,1-.393.492c-.064.231-.268.322-.345.541-.169.125-.2.385-.392.492-.17.405-.453.7-.641,1.082-.223.367-.4.777-.639,1.131-.352.828-.739,1.621-1.032,2.508A18.061,18.061,0,0,0,7.449,24.1,14.943,14.943,0,0,0,7.1,27.2a4.744,4.744,0,0,0,0,1.426c0,.07-.05.106-.05.147,0,.462.131,1.032.149,1.328a13.071,13.071,0,0,0,.59,2.951,20.413,20.413,0,0,0,.885,2.606A19.779,19.779,0,0,0,9.957,37.92a11.431,11.431,0,0,0,1.476,2.017,13.606,13.606,0,0,0,1.819,1.721,18.083,18.083,0,0,0,4.327,2.705,24.889,24.889,0,0,0,11.509,2.163,27.122,27.122,0,0,0,3-.492,14.039,14.039,0,0,1,2.9-.638,18.112,18.112,0,0,1,6.245.59,14.839,14.839,0,0,1,4.82,2.214,13.525,13.525,0,0,1,1.967,1.524c.63.55,1.145,1.215,1.721,1.819a2.968,2.968,0,0,0,.346.59c.151.16.076.545.442.492.232-.222-.038-.557-.049-.836C50.32,51.572,50.267,51.248,50.088,51.051Z" transform="translate(572.103 469.956)"/>
      <path id="Path_171" data-name="Path 171" class="cls-2" d="M15.3,14.383c-.05,0-.059.04-.1.049a1.2,1.2,0,0,0,0,.689c.261.542.358,1.249.935,1.475.284-.092.255-.5.245-.885a3.03,3.03,0,0,0-.591-1.229C15.588,14.408,15.45,14.29,15.3,14.383Z" transform="translate(597.697 493.149)"/>
      <path id="Path_172" data-name="Path 172" class="cls-2" d="M15.167,14.713c0-.027-.041-.056-.05,0-.485-.058-.651.2-.885.393a1.515,1.515,0,0,0,1.426,2.164,1.047,1.047,0,0,0,.837-.934C16.439,15.408,16.039,14.824,15.167,14.713Z" transform="translate(594.393 494.197)"/>
    </g>
  </g>
</svg>
