<svg xmlns="http://www.w3.org/2000/svg" viewBox="0 0 65 65">
  <defs>
    <style>
      .cls-1 {
        fill: #18284c;
      }

      .cls-2 {
        fill: #036cb5;
      }
    </style>
  </defs>
  <g id="Group_41" data-name="Group 41" transform="translate(-368 -516)">
    <rect id="Rectangle_17" data-name="Rectangle 17" class="cls-1" width="65" height="65" rx="10" transform="translate(368 516)"/>
    <path id="Combined-Shape" class="cls-2" d="M745.637,54.039a21.39,21.39,0,0,1,9.28,2.114c.443.2.889.439,1.33.678l-1.937,1.716-2.9-2.992-5,4.387-2.946-3.151-9.2,8.177,5.89,6.422-2.3,1.994,5.811,6.422-2.3,1.993,8.312,9.134,4.92-4.468,4.279,4.788a23.89,23.89,0,0,1-2.784,1.835,21.276,21.276,0,0,1-10.41,2.71,20.881,20.881,0,1,1-.041-41.76Zm-3.874,19.585,5.044-4.468,4.52,4.986-5.045,4.467Zm3.592,8.616,5-4.507,4.56,4.985-5.044,4.468Zm-7.181-17.111,5.042-4.468,4.519,4.986-5.044,4.467Zm9.238-2.394,3.753-3.35,3.39,3.71-3.753,3.39Zm6.7,15.356,3.752-3.351,3.39,3.748L757.5,81.841Zm3.308,7.539,3.753-3.351,3.387,3.709-3.751,3.389ZM758.952,68.4l2.5-2.234,2.259,2.474-2.5,2.233Zm-3.228-7.379,2.5-2.273,2.26,2.512-2.5,2.234Zm6.415,14.759,2.5-2.234,2.3,2.473L764.4,78.25Zm-11.257-5.545,3.753-3.351,3.388,3.709-3.751,3.351Z" transform="translate(-345.535 473.961)"/>
  </g>
</svg>
